<?xml version="1.0" standalone="no"?>
<!DOCTYPE svg PUBLIC "-//W3C//DTD SVG 1.1//EN" "http://www.w3.org/Graphics/SVG/1.1/DTD/svg11.dtd" >
<svg>
<metadata>
Created by FontForge 20090914 at Thu Jul 20 13:21:02 2017
 By www-data
&#194;&#169;2014-15 Ilya Ruderman and Yury Ostromentsky, under exclusive license to CSTM Fonts. All rights reserved.
</metadata>
<defs>
<font id="Kazimir-Regular" horiz-adv-x="653" >
  <font-face 
    font-family="Kazimir"
    font-weight="400"
    font-stretch="normal"
    units-per-em="1000"
    panose-1="2 7 5 3 7 7 6 4 3 3"
    ascent="750"
    descent="-250"
    x-height="501"
    cap-height="690"
    bbox="-117.001 -323 1233 960.998"
    underline-thickness="50"
    underline-position="-100"
    unicode-range="U+0020-U+FB02"
  />
<missing-glyph horiz-adv-x="500" 
d="M0 0v700h500v-700h-500zM250 395l170 255h-340zM280 350l170 -255v510zM80 50h340l-170 255zM50 605v-510l170 255z" />
    <glyph glyph-name="fi" unicode="fi" horiz-adv-x="625" 
d="M283 33l0.000976562 -33.001h-250v33h80v436h-80v32h81c0 50 6.83301 93.167 20.5 129.5s32 63.833 55 82.5s46.667 32 71 40s49.833 12 76.5 12c60.667 0 106.334 -13.667 137.001 -41s46 -59 46 -95c0 -20.667 -5.83301 -37 -17.5 -49s-27.834 -18 -48.501 -18
c-21.333 0 -37.666 5.5 -48.999 16.5s-17 25.5 -17 43.5c0 19.333 6.33301 34.5 19 45.5s29 17.833 49 20.5c-16 29.333 -48.667 44 -98 44c-12.667 0 -24.334 -0.833008 -35.001 -2.5s-23 -5.66699 -37 -12s-25.833 -15 -35.5 -26s-17.834 -27.167 -24.501 -48.5
s-10 -46.666 -10 -75.999v-66h117c66 0 109 0.666992 129 2s33.333 5.33301 40 12l12 -9v-473h80v-33h-251v33h68v436h-195v-436h67z" />
    <glyph glyph-name="fl" unicode="fl" horiz-adv-x="622" 
d="M283 33l0.00195312 -33.002h-250v33h79v436h-79v32h80c0 50 6.83301 93.167 20.5 129.5s32 63.833 55 82.5s46.833 32 71.5 40s50.667 12 78 12c31.333 0 64 -5 98 -15c36.667 0.666992 59.667 5.33398 69 14.001l10 -9v-722h80v-33h-252v33h69v688
c-16.667 7.33301 -36.334 11 -59.001 11c-16.667 0 -31.667 -1.66699 -45 -5s-27.833 -10.166 -43.5 -20.499s-27.834 -27.5 -36.501 -51.5s-13 -54 -13 -90v-64h128v-32h-128v-436h68z" />
    <glyph glyph-name="f_b" unicode="fb" horiz-adv-x="909" 
d="M638 21c76.667 0 115.666 77.332 116.999 231.999c0 72 -9.33301 126.833 -28 164.5s-49.667 56.5 -93 56.5c-35.333 0 -64.666 -19 -87.999 -57s-35 -86 -35 -144v-48c0 -61.333 10.667 -110.666 32 -147.999s53 -56 95 -56zM510.999 691.999
c0 -125.333 -4.99805 -236.668 -14.998 -334.001c8 46.667 25.667 84.167 53 112.5s63 42.5 107 42.5c58 0 107 -25.833 147 -77.5s60 -111.5 60 -179.5c-0.666992 -67.333 -22.5 -128.666 -65.5 -183.999s-95.167 -83 -156.5 -83c-36 0 -67.167 9.5 -93.5 28.5
s-46.166 45.5 -59.499 79.5l-61 -117h-18v741c-15.333 7.33301 -34.333 11 -57 11c-17.333 0 -32.5 -1.66699 -45.5 -5s-27.333 -10 -43 -20s-27.834 -26.833 -36.501 -50.5s-13 -53.5 -13 -89.5v-66h127v-32h-127v-436h68v-33h-250v33h79v436h-79v32h80
c0 50 6.83301 93.167 20.5 129.5s32 63.833 55 82.5s46.667 32 71 40s50.166 12 77.499 12c31.333 0 63.666 -4.66699 96.999 -14c35.333 0 58 4.33301 68 13l10 -9v-63z" />
    <glyph glyph-name="f_h" unicode="fh" horiz-adv-x="947" 
d="M412 33l0.00195312 687.998c-16.667 7.33301 -36.334 11 -59.001 11c-16.667 0 -31.667 -1.66699 -45 -5s-27.833 -10.166 -43.5 -20.499s-27.834 -27.5 -36.501 -51.5s-13 -54 -13 -90v-64h128v-32h-128v-436h68v-33h-250v33h79v436h-79v32h80
c0 50 6.83301 93.167 20.5 129.5s32 63.833 55 82.5s46.833 32 71.5 40s50.667 12 78 12c31.333 0 64 -5 98 -15c36.667 0.666992 59.667 5.33398 69 14.001l10 -9v-158c0 -50 -4.33301 -124 -13 -222c8.66699 42 27.167 75.5 55.5 100.5s64.833 37.5 109.5 37.5
c116 0 174 -66.667 174 -200v-280h78v-33h-256v33h75v273c0 103.333 -36.667 155 -110 155c-75.333 0 -113 -58 -113 -174v-254h75v-33h-255v33h77z" />
    <glyph glyph-name="f_k" unicode="fk" horiz-adv-x="882" 
d="M412 33l0.00195312 687.999c-16.667 7.33301 -36.334 11 -59.001 11c-16.667 0 -31.667 -1.83301 -45 -5.5s-27.833 -10.667 -43.5 -21s-27.834 -27.5 -36.501 -51.5s-13 -54 -13 -90v-63h128v-32h-128v-436h68v-33h-250v33h79v436h-79v32h80
c0 50 6.83301 93.167 20.5 129.5s32 63.833 55 82.5s46.833 32 71.5 40s50.667 12 78 12c31.333 0 64 -5 98 -15c36.667 0.666992 59.667 5.33398 69 14.001l10 -9v-544l204 258h-94v32h224v-32h-82l-127 -161l187 -275h51v-33h-225v33h56l-138 203l-56 -71v-132h63v-33
h-243v33h77z" />
    <glyph glyph-name=".notdef" horiz-adv-x="500" 
d="M0 0v700h500v-700h-500zM250 395l170 255h-340zM280 350l170 -255v510zM80 50h340l-170 255zM50 605v-510l170 255z" />
    <glyph glyph-name="space" unicode=" " horiz-adv-x="250" 
 />
    <glyph glyph-name="exclam" unicode="!" horiz-adv-x="271" 
d="M152 194h-29.998c0 68.667 -4.33301 134.5 -13 197.5s-17.334 114.5 -26.001 154.5s-13 66.667 -13 80c0 18 5 35 15 51s26.667 24 50 24s40.166 -8.16699 50.499 -24.5s15.5 -33.166 15.5 -50.499c0 -14 -4.16699 -41 -12.5 -81s-16.5 -91.333 -24.5 -154
s-12 -128.334 -12 -197.001zM206.002 57c0 -15.333 -5.66699 -30.5 -17 -45.5s-29 -22.5 -53 -22.5c-25.333 0 -43.333 7.33301 -54 22s-16 30 -16 46s5.33301 31.667 16 47s28.667 23 54 23c24 0 41.667 -7.66699 53 -23s17 -31 17 -47z" />
    <glyph glyph-name="quotedbl" unicode="&#x22;" horiz-adv-x="379" 
d="M86 448l-35 216c-2.66699 10.667 -3 17.667 -1 21s9 5 21 5h60c10.667 0 17.167 -1.5 19.5 -4.5s2.83301 -10.167 1.5 -21.5l-30 -216h-36zM246 448l-35 216c-2.66699 10.667 -3 17.667 -1 21s9 5 21 5h60c10.667 0 17.167 -1.5 19.5 -4.5s2.83301 -10.167 1.5 -21.5
l-30 -216h-36z" />
    <glyph glyph-name="numbersign" unicode="#" horiz-adv-x="530" 
d="M341 458h-115l-42 -160h115zM57 0l68 258h-105v40h116l42 160h-128v40h139l67 252h48l-67 -252h115l67 252h47l-67 -252h111v-40h-122l-42 -160h134v-40h-145l-68 -258h-47l68 258h-115l-68 -258h-48z" />
    <glyph glyph-name="dollar" unicode="$" horiz-adv-x="507" 
d="M257 668c-7.33301 0 -16.333 -0.666992 -27 -2v-255l52 -18v274c-4.66699 0.666992 -13 1 -25 1zM112 542c0 -32.667 7.83301 -58 23.5 -76s38.167 -33 67.5 -45v240c-28.667 -8.66699 -51 -23.5 -67 -44.5s-24 -45.833 -24 -74.5zM257 21c11.333 0 19.667 0.333008 25 1
v256l-52 15v-271c4.66699 -0.666992 13.667 -1 27 -1zM400.001 149c0 33.333 -7.83301 58.833 -23.5 76.5s-38.5 32.167 -68.5 43.5v-243c36 6.66699 60.333 20.5 73 41.5s19 48.167 19 81.5zM230.001 -10l0.000976562 -110.002h-27v113
c-49.333 7.33301 -88.833 23.833 -118.5 49.5s-44.5 57.167 -44.5 94.5c0 20.667 5.5 37.5 16.5 50.5s26.167 19.5 45.5 19.5c21.333 0 37.666 -6 48.999 -18s17 -27.333 17 -46c0 -18 -5.5 -33 -16.5 -45s-26.167 -19.667 -45.5 -23c22.667 -26.667 55 -43 97 -49v274
c-48 16 -86 39.5 -114 70.5s-42 77.5 -42 139.5c0 45.333 14.167 85 42.5 119s66.166 56.333 113.499 67v95h27v-92c10.667 1.33301 20 2 28 2c10.667 0 18.667 -0.333008 24 -1v91h26v-93c45.333 -7.33301 82.833 -23.666 112.5 -48.999s44.5 -56.666 44.5 -93.999
c0 -20 -5.5 -36.333 -16.5 -49s-26.167 -19 -45.5 -19c-21.333 0 -37.666 6 -48.999 18s-17 27.333 -17 46c0 38 20.667 60.333 62 67c-22 28 -52.333 43.333 -91 46v-280c50 -18 88.833 -41.833 116.5 -71.5s41.5 -74.5 41.5 -134.5c0 -46 -12.333 -86.167 -37 -120.5
s-65 -55.833 -121 -64.5v-113h-26v110c-18 -2.66699 -35.333 -2.66699 -52 0z" />
    <glyph glyph-name="percent" unicode="%" horiz-adv-x="854" 
d="M225 -11l-41 26.998l373 558c5.33301 8 9 14.333 11 19c-71.333 -17.333 -135.333 -12.333 -192 15c10.667 -25.333 16 -55 16 -89c0 -54 -13.667 -97.667 -41 -131s-64 -50 -110 -50c-42 0 -80.833 17.333 -116.5 52s-53.5 77.667 -53.5 129s18 94.5 54 129.5
s74.667 52.5 116 52.5c37.333 0 69.666 -12 96.999 -36c64.667 -49.333 147.334 -59.666 248.001 -30.999c6 16.667 11 28.834 15 36.501s10 14.667 18 21s17.667 9.5 29 9.5c12 0 22 -3 30 -9s12 -15 12 -27c0 -14.667 -4.83301 -27.5 -14.5 -38.5
s-21.167 -21.167 -34.5 -30.5s-22.333 -17.333 -27 -24zM176 518.998c0 -45.333 7.16699 -81.168 21.5 -107.501s35.833 -39.5 64.5 -39.5c28 0 49.667 13.333 65 40s23 62.334 23 107.001c0 45.333 -7.66699 81.333 -23 108s-37.333 40 -66 40
c-28 0 -49.167 -13.333 -63.5 -40s-21.5 -62.667 -21.5 -108zM791 169.996c0 -54 -13.667 -97.667 -41 -131s-64 -50 -110 -50c-42 0 -80.833 17.333 -116.5 52s-53.5 77.667 -53.5 129s17.833 94.5 53.5 129.5s74.5 52.5 116.5 52.5c46 0 82.667 -16.667 110 -50
s41 -77.333 41 -132zM575 169.996c0 -98 28.667 -147.001 86 -147.001c28 0 49.667 13.333 65 40s23 62.334 23 107.001c0 45.333 -7.66699 81.333 -23 108s-37.333 40 -66 40s-50 -13.167 -64 -39.5s-21 -62.5 -21 -108.5z" />
    <glyph glyph-name="ampersand" unicode="&#x26;" horiz-adv-x="740" 
d="M575 -11c-32.667 0 -61.499 6.49805 -86.499 19.498s-52.167 35.167 -81.5 66.5c-31.333 -33.333 -61.333 -55.666 -90 -66.999s-62.334 -17 -101.001 -17c-58.667 0 -105.334 16.5 -140.001 49.5s-52 75.5 -52 127.5c0 87.333 51 154 153 200
c-26 37.333 -44 68.5 -54 93.5s-15 52.5 -15 82.5c0 46 15.833 83.5 47.5 112.5s73.5 43.5 125.5 43.5c46.667 0 85.167 -12.167 115.5 -36.5s45.5 -57.166 45.5 -98.499c0 -36.667 -14.167 -68.667 -42.5 -96s-65.166 -53 -110.499 -77
c6.66699 -8.66699 63.334 -78.667 170.001 -210c20.667 24 43.667 58 69 102s45 86.333 59 127h-82v33h190v-33h-67c-38.667 -90.667 -87.334 -175.667 -146.001 -255c31.333 -42.667 56.333 -72 75 -88s38 -24 58 -24c14 0 26.167 5 36.5 15s17.833 23 22.5 39
s8 31.333 10 46s3 29 3 43h29c0 -132 -47 -198 -141 -198zM191.001 583.998c0 -24.667 5.66797 -49 17.001 -73s31.666 -55.333 60.999 -94c58.667 36 88 86 88 150c0 67.333 -26.333 101 -79 101c-24 0 -44.5 -7.5 -61.5 -22.5s-25.5 -35.5 -25.5 -61.5zM263.002 49.998
c51.333 0 91.667 17.333 121 52l-185 237c-53.333 -30.667 -80 -77.667 -80 -141c0 -47.333 12.5 -83.833 37.5 -109.5s60.5 -38.5 106.5 -38.5z" />
    <glyph glyph-name="quotesingle" unicode="'" horiz-adv-x="219" 
d="M95 448l-35 216c-2.66699 10.667 -3 17.667 -1 21s9 5 21 5h60c10.667 0 17.167 -1.5 19.5 -4.5s2.83301 -10.167 1.5 -21.5l-30 -216h-36z" />
    <glyph glyph-name="parenleft" unicode="(" horiz-adv-x="396" 
d="M391 -232l-18.0068 -28.001c-84.667 38.667 -156.167 103.334 -214.5 194.001s-87.5 188 -87.5 292c0 108 30.167 215.833 90.5 323.5s130.833 179.167 211.5 214.5l18 -28c-20 -12.667 -36.667 -24.334 -50 -35.001s-30.666 -29.5 -51.999 -56.5
s-38.5 -57.167 -51.5 -90.5s-24.5 -78.5 -34.5 -135.5s-15 -121.167 -15 -192.5c0 -33.333 1.33301 -64.833 4 -94.5s5.83398 -56 9.50098 -79s9.33398 -45.167 17.001 -66.5s14.334 -39.166 20.001 -53.499s13.834 -29 24.501 -44l25 -34.5c6 -8 15.333 -17.5 28 -28.5
l26 -22.5c4.66699 -4 13.334 -10.333 26.001 -19s20.334 -14 23.001 -16z" />
    <glyph glyph-name="parenright" unicode=")" horiz-adv-x="396" 
d="M324 240c0 -104 -29.168 -203.001 -87.501 -297.001s-129.5 -161.667 -213.5 -203l-18 28c3.33301 2.66699 8.33301 6.33398 15 11.001c20.667 14.667 36.834 27 48.501 37s27.667 27.833 48 53.5s36.166 53.167 47.499 82.5s21.5 69.166 30.5 119.499
s13.5 106.5 13.5 168.5c0 39.333 -1.5 76.5 -4.5 111.5s-6.66699 65.667 -11 92s-11.166 51.833 -20.499 76.5l-23.5 60.5c-6.33301 15.667 -16 31.834 -29 48.501l-28.5 37c-6 8 -16.333 17.833 -31 29.5l-28 22c-4 3 -13 9.16699 -27 18.5l18 28
c81.333 -36 151.833 -105.5 211.5 -208.5s89.5 -208.167 89.5 -315.5z" />
    <glyph glyph-name="asterisk" unicode="*" horiz-adv-x="465" 
d="M295 716c-2.66699 -16.667 -10.833 -35.3311 -24.5 -55.998s-21.5 -36.334 -23.5 -47.001l-21 4c2 10.667 -1 27.667 -9 51s-10.667 43.333 -8 60c2 11.333 8 20.666 18 27.999s20.333 10.333 31 9c10.667 -2 20 -7.83301 28 -17.5s11 -20.167 9 -31.5zM219.001 613.003
l-12.999 -16.002c-8.66699 6.66699 -25 12.667 -49 18s-42.667 13 -56 23c-9.33301 6.66699 -14.5 16.334 -15.5 29.001s1.83301 23 8.5 31c6 8 15.167 13 27.5 15s23.166 0 32.499 -6c13.333 -11.333 25.5 -28.166 36.5 -50.499s20.5 -36.833 28.5 -43.5zM373.002 599.001
c-15.333 -7.33301 -35.1689 -10.168 -59.502 -8.50098s-41.833 0.5 -52.5 -3.5l-8 21c10.667 4 24.334 15 41.001 33s32.667 30 48 36c10.667 4 21.5 3.5 32.5 -1.5s18.5 -12.167 22.5 -21.5c4 -10.667 3.83301 -21.667 -0.5 -33s-12.166 -18.666 -23.499 -21.999z
M211.999 569.999c-10 -4.66699 -23.335 -16 -40.002 -34s-33 -30 -49 -36c-10.667 -4.66699 -21.667 -4.66699 -33 0s-18.666 12 -21.999 22c-4.66699 10 -4.66699 20.833 0 32.5s12.334 19.5 23.001 23.5c16 6.66699 36.333 9.16699 61 7.5s42 -0.5 52 3.5z
M371.997 477.999c-6.66699 -8.66699 -15.8311 -13.998 -27.498 -15.998s-22.5 0.666992 -32.5 8c-13.333 10.667 -25.5 27.167 -36.5 49.5s-20.5 36.833 -28.5 43.5l12 17c8.66699 -6 25 -11.833 49 -17.5s42.667 -13.834 56 -24.501
c9.33301 -6.66699 14.666 -16.334 15.999 -29.001s-1.33398 -23 -8.00098 -31zM255 448.001c-2 -11.333 -7.83203 -20.5 -17.499 -27.5s-19.834 -9.83301 -30.501 -8.5c-11.333 1.33301 -20.666 6.66602 -27.999 15.999s-10 20 -8 32c2.66699 16.667 10.667 35.5 24 56.5
s21 36.5 23 46.5l21 -4c-1.33301 -10 1.66699 -26.667 9 -50s9.66602 -43.666 6.99902 -60.999z" />
    <glyph glyph-name="plus" unicode="+" horiz-adv-x="462" 
d="M417 292h-167v-163h-38v163h-167v35h167v164h38v-164h167v-35z" />
    <glyph glyph-name="comma" unicode="," horiz-adv-x="254" 
d="M85 -195l-26.998 22.999c21.333 17.333 40.666 41 57.999 71s27.666 60.333 30.999 91c-2 0 -5.5 -0.166992 -10.5 -0.5s-8.16699 -0.5 -9.5 -0.5c-25.333 0 -43.666 7.66699 -54.999 23s-17 31 -17 47c0 16.667 5.66699 32.834 17 48.501s29.666 23.5 54.999 23.5
s43.666 -8.5 54.999 -25.5s17 -37.5 17 -61.5c0 -48 -10.167 -92.833 -30.5 -134.5s-48.166 -76.5 -83.499 -104.5z" />
    <glyph glyph-name="hyphen" unicode="-" horiz-adv-x="388" 
d="M45 290v36h298v-36h-298z" />
    <glyph glyph-name="period" unicode="." horiz-adv-x="254" 
d="M199 59c0 -15.333 -5.66699 -30.833 -17 -46.5s-29.666 -23.5 -54.999 -23.5s-43.666 7.66699 -54.999 23s-17 31 -17 47c0 16.667 5.66699 32.834 17 48.501s29.666 23.5 54.999 23.5s43.666 -7.83301 54.999 -23.5s17 -31.834 17 -48.501z" />
    <glyph glyph-name="slash" unicode="/" horiz-adv-x="447" 
d="M457 749l-428 -857l-39 18l428 857z" />
    <glyph glyph-name="zero" unicode="0" horiz-adv-x="566" 
d="M529 346c0 -38 -5.16699 -77.332 -15.5 -117.999s-25.333 -79 -45 -115s-45.667 -65.667 -78 -89s-68.166 -35 -107.499 -35s-75.333 11.667 -108 35s-58.667 53.333 -78 90s-34.166 75.167 -44.499 115.5s-15.5 79.166 -15.5 116.499c0 38 5.16699 77.167 15.5 117.5
s25.333 78.5 45 114.5s45.667 65.5 78 88.5s68.166 34.5 107.499 34.5s75.166 -11.5 107.499 -34.5s58.333 -52.5 78 -88.5s34.667 -74.167 45 -114.5s15.5 -79.5 15.5 -117.5zM154 346.001c0 -120.667 9.66797 -205 29.001 -253s52.666 -72 99.999 -72
c48 0 81.5 23.5 100.5 70.5s28.5 131.833 28.5 254.5c0 122 -9.5 206.333 -28.5 253s-52.5 70 -100.5 70s-81.5 -23 -100.5 -69s-28.5 -130.667 -28.5 -254z" />
    <glyph glyph-name="one" unicode="1" horiz-adv-x="424" 
d="M391 0h-362v33h130v588h-130v32c66 0 117 4.83301 153 14.5s62 25.167 78 46.5l20 -5c-9.33301 -22.667 -14 -65 -14 -127v-549h125v-33z" />
    <glyph glyph-name="two" unicode="2" horiz-adv-x="515" 
d="M34 0v39.002c156.667 165.333 252.667 269.666 288 312.999c15.333 20 27.333 36.667 36 50c-28.667 -33.333 -68.667 -50 -120 -50c-54.667 0 -104 15.833 -148 47.5s-66 74.167 -66 127.5s23.667 95.666 71 126.999s102.333 47 165 47
c59.333 0 108.833 -15.5 148.5 -46.5s59.5 -73.5 59.5 -127.5c0 -42 -28.333 -95 -85 -159c-13.333 -17.333 -32.333 -39.5 -57 -66.5l-94.5 -103l-98.5 -108.5h183c48 0 80.167 4.5 96.5 13.5s26.5 32.167 30.5 69.5l6 54h33l-26 -227h-422zM135 526.002
c-0.666992 -46 9.50098 -81.333 30.501 -106s48.5 -37 82.5 -37c32 0 58.333 12.333 79 37s31 60 31 106c0 45.333 -10.667 80.5 -32 105.5s-48 37.5 -80 37.5s-58.333 -12.333 -79 -37s-31.334 -60 -32.001 -106z" />
    <glyph glyph-name="three" unicode="3" horiz-adv-x="522" 
d="M244 -11c-70 0 -121.996 17.1689 -155.996 51.502s-51 75.5 -51 123.5c0 21.333 6.33301 39.333 19 54s30 22 52 22c21.333 0 37.666 -6.83301 48.999 -20.5s17 -29.834 17 -48.501c0 -20.667 -7 -37 -21 -49s-35 -18.333 -63 -19c20.667 -54 66.334 -81 137.001 -81
c42 0 74.833 16.333 98.5 49s35.167 77 34.5 133c-0.666992 57.333 -13.334 101.333 -38.001 132s-53.667 46 -87 46c-23.333 0 -44.333 -7 -63 -21l-14 16l200 223h-134c-56.667 0 -91.834 -4.83301 -105.501 -14.5s-20.5 -37.5 -20.5 -83.5v-27h-33v215h389v-34l-215 -239
c49.333 -5.33301 90.666 -15.5 123.999 -30.5s57.666 -33.333 72.999 -55s25.833 -42.334 31.5 -62.001s8.5 -41.5 8.5 -65.5c0 -56 -19.167 -105.833 -57.5 -149.5s-96.5 -65.5 -174.5 -65.5z" />
    <glyph glyph-name="four" unicode="4" horiz-adv-x="531" 
d="M490 0h-291v33h98v154h-286v18l358 497h36v-482h85v-33h-85v-154h85v-33zM297 220v328l-232 -328h232z" />
    <glyph glyph-name="five" unicode="5" horiz-adv-x="522" 
d="M228 -11c-64 0 -111.998 15.1699 -143.998 45.5029s-48 67.833 -48 112.5c0 21.333 6.33301 39.166 19 53.499s30 21.5 52 21.5c21.333 0 37.666 -6.83301 48.999 -20.5s17 -29.5 17 -47.5c0 -20 -7.66699 -36.333 -23 -49s-35.333 -19.334 -60 -20.001
c8 -18.667 23 -33.834 45 -45.501s49.667 -17.5 83 -17.5c45.333 0 78.666 16.667 99.999 50s32 84 32 152c0 128.667 -44.333 193 -133 193c-28.667 0 -54.334 -7.66699 -77.001 -23s-38.667 -38.333 -48 -69h-27l40 365h225c28.667 0 48.167 5.66699 58.5 17
s16.833 28.333 19.5 51l2 17h32l-23 -175h-289l-22 -205c29.333 40 74.333 60 135 60c32.667 0 62.167 -5.16699 88.5 -15.5s47.666 -23.5 63.999 -39.5s30 -34.333 41 -55s18.667 -40.834 23 -60.501s6.5 -39.167 6.5 -58.5c0 -20.667 -2.66699 -41.5 -8 -62.5
s-14.166 -42.167 -26.499 -63.5s-27.333 -40.166 -45 -56.499s-40.167 -29.5 -67.5 -39.5s-57.666 -15 -90.999 -15z" />
    <glyph glyph-name="six" unicode="6" horiz-adv-x="533" 
d="M495 204c0 -57.333 -22.4971 -107.499 -67.4971 -150.499s-97.167 -64.5 -156.5 -64.5c-64.667 0 -119.834 26.667 -165.501 80s-68.5 133.333 -68.5 240c0 45.333 5.66699 90.666 17 135.999s27.5 87.333 48.5 126s49 70 84 94s73.5 36 115.5 36
c47.333 0 85.666 -12 114.999 -36s44 -54.667 44 -92c0 -21.333 -5.83301 -38.333 -17.5 -51s-27.834 -19 -48.501 -19c-22 0 -39.167 6.16699 -51.5 18.5s-18.5 28.166 -18.5 47.499c0 20 6.16699 36 18.5 48s29.833 18.333 52.5 19c-21.333 23.333 -54.333 35 -99 35
c-48 0 -84.333 -22.667 -109 -68s-37 -118.666 -37 -219.999v-58c26.667 62.667 73 94 139 94c52.667 0 100 -21 142 -63s63 -92.667 63 -152zM158.003 204.001c0 -52.667 8.66699 -96.332 26 -130.999s46.333 -52 87 -52c37.333 0 65.333 17.667 84 53
s28 78.666 28 129.999c0 53.333 -9.16699 96.666 -27.5 129.999s-46.5 50 -84.5 50c-40 0 -68.833 -17.167 -86.5 -51.5s-26.5 -77.166 -26.5 -128.499z" />
    <glyph glyph-name="seven" unicode="7" horiz-adv-x="456" 
d="M187 -11c-38 0 -57 18.668 -57 56.001c0 15.333 5 32.5 15 51.5s25.167 45.667 45.5 80s37.833 68.833 52.5 103.5c66 163.333 106.333 270 121 320h-173c-56 0 -91 -4.83301 -105 -14.5s-21 -37.5 -21 -83.5v-27h-33v215h392v-29l-59 -167
c-24 -66.667 -37.667 -105.334 -41 -116.001c-22 -62.667 -38.167 -117.5 -48.5 -164.5s-17 -85.333 -20 -115s-5.83301 -49.167 -8.5 -58.5c-9.33301 -34 -29.333 -51 -60 -51z" />
    <glyph glyph-name="eight" unicode="8" horiz-adv-x="552" 
d="M276 -11c-71.333 0 -129.002 20.833 -173.002 62.5s-66 89.167 -66 142.5c0 45.333 15 86.333 45 123s74.667 62 134 76c-51.333 12 -89.166 31.167 -113.499 57.5s-36.5 56.833 -36.5 91.5c0 44.667 20.333 82.334 61 113.001s90 46 148 46
c58.667 0 108.5 -15.333 149.5 -46s61.5 -68.334 61.5 -113.001c0 -34.667 -12.167 -65.167 -36.5 -91.5s-62.166 -45.5 -113.499 -57.5c59.333 -14 104 -39.333 134 -76s45 -77.667 45 -123c0 -53.333 -22 -100.833 -66 -142.5s-101.667 -62.5 -173 -62.5zM275.998 408
c28.667 0 51.999 11.333 69.999 34s27 56 27 100c0 42 -8.83301 73.667 -26.5 95s-41.5 32 -71.5 32c-29.333 0 -52.666 -10.833 -69.999 -32.5s-26 -53.167 -26 -94.5c0 -44 9 -77.333 27 -100s41.333 -34 70 -34zM275.997 21c40 0 70.5 15.667 91.5 47
s31.167 73.333 30.5 126c-0.666992 55.333 -11 99.5 -31 132.5s-50.333 49.5 -91 49.5s-71 -16.5 -91 -49.5s-30.333 -77.167 -31 -132.5c-0.666992 -52.667 9.5 -94.667 30.5 -126s51.5 -47 91.5 -47z" />
    <glyph glyph-name="nine" unicode="9" horiz-adv-x="537" 
d="M154 486c0 -52 9.66699 -94.999 29 -128.999s47 -51 83 -51c38.667 0 67.167 16.5 85.5 49.5s27.5 76.5 27.5 130.5c0 51.333 -9.16699 94.666 -27.5 129.999s-46.833 53 -85.5 53c-35.333 0 -62.833 -18 -82.5 -54s-29.5 -79 -29.5 -129zM247 -10.999
c-56 0 -99.835 12.499 -131.502 37.499s-47.5 58.833 -47.5 101.5c0 20 6.33301 36.667 19 50s29.334 20 50.001 20c21.333 0 37.666 -6.33301 48.999 -19s17 -28.667 17 -48s-6.66699 -35.166 -20 -47.499s-31.333 -18.833 -54 -19.5c20.667 -30 57.334 -45 110.001 -45
c52 0 88.667 19.5 110 58.5s32 109.5 32 211.5v72c-22 -60 -69 -90 -141 -90c-51.333 0 -97.166 20.167 -137.499 60.5s-60.5 91.833 -60.5 154.5c0 57.333 22.5 107.5 67.5 150.5s97.167 64.5 156.5 64.5c68.667 0 124.667 -27 168 -81s65 -139.667 65 -257
c0 -69.333 -8.33301 -131.333 -25 -186s-44.5 -99.667 -83.5 -135s-86.833 -53 -143.5 -53z" />
    <glyph glyph-name="colon" unicode=":" horiz-adv-x="251" 
d="M196 378c0 -16 -5.5 -31.5 -16.5 -46.5s-28.833 -22.5 -53.5 -22.5c-25.333 0 -43.5 7.5 -54.5 22.5s-16.5 30.5 -16.5 46.5c0 16.667 5.5 32.667 16.5 48s29.167 23 54.5 23c24.667 0 42.5 -7.66699 53.5 -23s16.5 -31.333 16.5 -48zM196 58
c0 -16 -5.5 -31.5 -16.5 -46.5s-28.833 -22.5 -53.5 -22.5c-25.333 0 -43.5 7.5 -54.5 22.5s-16.5 30.5 -16.5 46.5c0 16.667 5.5 32.667 16.5 48s29.167 23 54.5 23c24.667 0 42.5 -7.66699 53.5 -23s16.5 -31.333 16.5 -48z" />
    <glyph glyph-name="semicolon" unicode=";" horiz-adv-x="251" 
d="M196 378c0 -16 -5.5 -31.5 -16.5 -46.5s-28.833 -22.5 -53.5 -22.5c-25.333 0 -43.5 7.5 -54.5 22.5s-16.5 30.5 -16.5 46.5c0 16.667 5.5 32.667 16.5 48s29.167 23 54.5 23c24.667 0 42.5 -7.66699 53.5 -23s16.5 -31.333 16.5 -48zM82 -195l-26 23.001
c21.333 16.667 40.5 40.167 57.5 70.5s27.5 60.833 31.5 91.5c-2 0 -5.33301 -0.166992 -10 -0.5s-7.66699 -0.5 -9 -0.5c-25.333 0 -43.5 7.5 -54.5 22.5s-16.5 30.5 -16.5 46.5c0 16.667 5.5 32.667 16.5 48s29.167 23 54.5 23c24.667 0 42.5 -8.33301 53.5 -25
s16.5 -37.334 16.5 -62.001c0 -97.333 -38 -176.333 -114 -237z" />
    <glyph glyph-name="less" unicode="&#x3c;" horiz-adv-x="436" 
d="M351 84l-306 209v33l306 209v-50l-259 -175l259 -175v-51z" />
    <glyph glyph-name="equal" unicode="=" horiz-adv-x="446" 
d="M45 377v35h356v-35h-356zM45 207v35h356v-35h-356z" />
    <glyph glyph-name="greater" unicode="&#x3e;" horiz-adv-x="436" 
d="M85 535l306 -209v-33l-306 -209v50l259 175l-259 175v51z" />
    <glyph glyph-name="question" unicode="?" horiz-adv-x="391" 
d="M206 176c-36 0 -64.168 9.66992 -84.501 29.0029s-30.5 45.666 -30.5 78.999c0 29.333 6.83301 55.833 20.5 79.5s30.334 43 50.001 58l59 44c19.667 14.333 36.334 30.666 50.001 48.999s20.5 38.5 20.5 60.5c0 62.667 -34.667 94 -104 94
c-54 0 -89.667 -16.333 -107 -49c48.667 -7.33301 73 -30.333 73 -69c0 -18.667 -5.66699 -34 -17 -46s-27 -18 -47 -18c-22 0 -38.833 6.33301 -50.5 19s-17.5 29.667 -17.5 51c0 43.333 16.5 78.166 49.5 104.499s75.167 39.5 126.5 39.5c54 0 96.833 -12.833 128.5 -38.5
s47.5 -63.834 47.5 -114.501c0 -27.333 -7.16699 -52.333 -21.5 -75s-31.833 -42.167 -52.5 -58.5l-62 -47c-20.667 -15 -38.167 -31.5 -52.5 -49.5s-21.5 -37 -21.5 -57c0 -34 17.667 -51 53 -51c25.333 0 42.333 10.833 51 32.5s2.66699 46.834 -18 75.501l19 15
c21.333 -17.333 32.666 -38.5 33.999 -63.5s-7 -46.833 -25 -65.5s-41.667 -28 -71 -28zM263.999 57.0029c0 -15.333 -5.5 -30.5 -16.5 -45.5s-28.833 -22.5 -53.5 -22.5c-25.333 0 -43.333 7.33301 -54 22s-16 30 -16 46s5.33301 31.667 16 47s28.667 23 54 23
c24.667 0 42.5 -7.66699 53.5 -23s16.5 -31 16.5 -47z" />
    <glyph glyph-name="at" unicode="@" horiz-adv-x="908" 
d="M468 -193c-58.667 0 -113.502 8.33301 -164.502 25s-96.167 41.167 -135.5 73.5s-70.333 74.166 -93 125.499s-34 109.333 -34 174c0 76 19.667 145 59 207s91.833 110.167 157.5 144.5s136.834 51.5 213.501 51.5c122.667 0 219.334 -33.333 290.001 -100
s106 -154.667 106 -264c0 -30.667 -3.66699 -60.5 -11 -89.5s-18.333 -56.167 -33 -81.5s-35 -45.666 -61 -60.999s-55.667 -23 -89 -23c-45.333 0 -80 10.333 -104 31s-36 49 -36 85c-28 -77.333 -76.333 -116 -145 -116c-52 0 -93.5 20.833 -124.5 62.5
s-43.167 96.167 -36.5 163.5c7.33301 62 30.833 113.833 70.5 155.5s87.834 62.5 144.501 62.5c30.667 0 56.667 -8.16699 78 -24.5s35.666 -37.166 42.999 -62.499l76 87h10l-37 -297c-4.66699 -38.667 -2.5 -67.667 6.5 -87s31.5 -29 67.5 -29
c42.667 0 74.834 21.667 96.501 65s32.5 95 32.5 155c0 103.333 -29.667 185 -89 245s-144.333 90 -255 90c-106 0 -195.5 -34.833 -268.5 -104.5s-109.5 -158.167 -109.5 -265.5c0 -118.667 35.333 -209.334 106 -272.001s160.334 -94 269.001 -94
c115.333 0 195.666 20.333 240.999 61l14 -18c-22.667 -24 -56.834 -42.5 -102.501 -55.5s-96.5 -19.5 -152.5 -19.5zM404.998 27c34 0 61.334 17.499 82.001 52.499s35 80.167 43 135.5c8 58 4 104 -12 138s-41 51 -75 51c-31.333 0 -57 -17.667 -77 -53
s-33 -80.333 -39 -135c-6 -59.333 -2.33301 -105.666 11 -138.999s35.666 -50 66.999 -50z" />
    <glyph glyph-name="A" unicode="A" horiz-adv-x="600" 
d="M356 254l-95 281l-95 -281h190zM-12 0v33h64l229 667h36l227 -667h69v-33h-301v33h119l-64 188h-212l-64 -188h116v-33h-219z" />
    <glyph glyph-name="B" unicode="B" horiz-adv-x="609" 
d="M42 0v33h82v624h-82v33h212c192.667 0 289 -57 289 -171c0 -42.667 -14.5 -79 -43.5 -109s-66.833 -48.333 -113.5 -55c55.333 -8.66699 100.833 -26.5 136.5 -53.5s53.5 -64.833 53.5 -113.5c0 -125.333 -89 -188 -267 -188h-267zM262 657h-31.001v-290h63
c44.667 0 78.334 13 101.001 39s34 63.333 34 112c0 46.667 -13.167 81.5 -39.5 104.5s-68.833 34.5 -127.5 34.5zM299.999 337l-69 0.000976562v-304h67c58 0 99.333 12.667 124 38s37 64.666 37 117.999c0 98.667 -53 148 -159 148z" />
    <glyph glyph-name="C" unicode="C" horiz-adv-x="591" 
d="M473 28c-38 -26 -84 -39.001 -138 -39.001c-48 0 -91.333 11 -130 33s-69.834 50.667 -93.501 86s-41.667 73.5 -54 114.5s-18.5 82.167 -18.5 123.5c0 56 11 110.5 33 163.5s56.167 98.167 102.5 135.5s99.5 56 159.5 56c56.667 0 101.334 -12.333 134.001 -37l40 36h18
v-230h-33c0 131.333 -51 197 -153 197c-38 0 -69.833 -9.16699 -95.5 -27.5s-46.667 -51.833 -63 -100.5s-24.5 -113 -24.5 -193c0 -215.333 61 -323 183 -323c55.333 0 95.5 18.333 120.5 55s37.5 85.334 37.5 146.001h33v-234h-18z" />
    <glyph glyph-name="D" unicode="D" horiz-adv-x="676" 
d="M293 0l-250.999 -0.000976562v33h82v624h-82v33h251c52.667 0 101.167 -10.333 145.5 -31s80.666 -47.667 108.999 -81s50.333 -70.166 66 -110.499s23.5 -80.833 23.5 -121.5c0 -55.333 -13 -108.833 -39 -160.5s-65.833 -95.5 -119.5 -131.5s-115.5 -54 -185.5 -54z
M231.001 656.999l-0.00195312 -623.997h41c33.333 0 63.833 5 91.5 15s53.5 26.167 77.5 48.5s42.833 54.666 56.5 96.999s20.5 93.166 20.5 152.499s-6.83301 110.166 -20.5 152.499s-32.667 74.5 -57 96.5s-50.166 37.833 -77.499 47.5s-57.666 14.5 -90.999 14.5h-41z
" />
    <glyph glyph-name="E" unicode="E" horiz-adv-x="583" 
d="M42 0v33h82v624h-82v33h477v-220h-33v42c0 56 -11.833 94.167 -35.5 114.5s-63.5 30.5 -119.5 30.5h-100v-290h145v77h37v-195h-37v86h-145v-302h138c54 0 90 12 108 36s27 63.667 27 119v36h33v-224h-495z" />
    <glyph glyph-name="F" unicode="F" horiz-adv-x="543" 
d="M349 0h-307v33h82v624h-82v33h472v-220h-32v42c0 55.333 -12.167 93.333 -36.5 114s-64.5 31 -120.5 31h-94v-290h127v77h38v-199h-38v90h-127v-302h118v-33z" />
    <glyph glyph-name="G" unicode="G" horiz-adv-x="646" 
d="M533 -10l-48 37.0029c-41.333 -25.333 -90 -38 -146 -38c-48 0 -91.667 11 -131 33s-70.833 50.667 -94.5 86s-42 73.666 -55 114.999s-19.5 82.333 -19.5 123c0 55.333 11.667 109.666 35 162.999s59 98.666 107 135.999s102.667 56 164 56
c60 0 107.333 -12.667 142 -38l40 37h17v-230h-32c0 61.333 -13.5 109.5 -40.5 144.5s-67.5 52.5 -121.5 52.5c-128.667 0 -193 -107 -193 -321c0 -215.333 62.333 -323 187 -323c42.667 0 77 11.333 103 34v228h-95v33h275v-33h-75v-295h-19z" />
    <glyph glyph-name="H" unicode="H" horiz-adv-x="725" 
d="M42 0v33h82v624h-82v33h269v-33h-80v-289h263v289h-80v33h269v-33h-82v-624h82v-33h-269v33h80v303h-263v-303h80v-33h-269z" />
    <glyph glyph-name="I" unicode="I" horiz-adv-x="364" 
d="M322 0h-280v33h86v624h-86v33h280v-33h-86v-624h86v-33z" />
    <glyph glyph-name="J" unicode="J" horiz-adv-x="455" 
d="M363 237c0 -86 -16.668 -148.834 -50.001 -188.501s-82.666 -59.5 -147.999 -59.5c-50 0 -87.833 12.833 -113.5 38.5s-38.5 59.167 -38.5 100.5c0 25.333 6.33301 45.5 19 60.5s29.667 22.5 51 22.5c20.667 0 37 -6.33301 49 -19s18 -28 18 -46
c0 -45.333 -27 -69 -81 -71c2 -13.333 10.833 -25.166 26.5 -35.499s35.5 -15.5 59.5 -15.5c39.333 0 66 14.333 80 43s21 79 21 151v439h-109v33h298v-33h-82v-420z" />
    <glyph glyph-name="K" unicode="K" horiz-adv-x="655" 
d="M306 33v-33h-264v33h82v624h-82v33h277v-33h-88v-342l252 342h-90v33h224v-33h-86l-174 -238l246 -386h52v-33h-245v33h71l-194 302l-56 -76v-226h75z" />
    <glyph glyph-name="L" unicode="L" horiz-adv-x="541" 
d="M42 0v33h82v624h-82v33h298v-33h-109v-624h119c54 0 90.167 12.167 108.5 36.5s27.5 63.833 27.5 118.5v36h32v-224h-476z" />
    <glyph glyph-name="M" unicode="M" horiz-adv-x="860" 
d="M271 33v-33h-229v33h82v624h-82v33h199l190 -448l189 448h198v-33h-82v-624h82v-33h-289v33h99v579l-219 -521h-23l-220 522v-580h105z" />
    <glyph glyph-name="N" unicode="N" horiz-adv-x="706" 
d="M254 33v-33h-212v33h82v624h-82v33h175l331 -509v476h-87v33h211v-33h-81v-666h-38l-387 592v-550h88z" />
    <glyph glyph-name="O" unicode="O" horiz-adv-x="656" 
d="M617 345c0 -42 -5.83301 -83.5 -17.5 -124.5s-28.667 -79 -51 -114s-52.666 -63.333 -90.999 -85s-81.5 -32.5 -129.5 -32.5s-91.167 10.833 -129.5 32.5s-68.666 50 -90.999 85s-39.333 73 -51 114s-17.5 82.5 -17.5 124.5s5.83301 83.5 17.5 124.5s28.667 79 51 114
s52.666 63.333 90.999 85s81.5 32.5 129.5 32.5s91.167 -10.833 129.5 -32.5s68.666 -50 90.999 -85s39.333 -73 51 -114s17.5 -82.5 17.5 -124.5zM157 345c0 -118.667 14.5 -202.167 43.5 -250.5s71.5 -72.5 127.5 -72.5s98.5 24.167 127.5 72.5s43.5 131.833 43.5 250.5
s-14.5 202.167 -43.5 250.5s-71.5 72.5 -127.5 72.5s-98.5 -24.167 -127.5 -72.5s-43.5 -131.833 -43.5 -250.5z" />
    <glyph glyph-name="P" unicode="P" horiz-adv-x="579" 
d="M42 0v33h82v624h-82v33h220c96 0 168.167 -17.667 216.5 -53s72.5 -83.333 72.5 -144s-23.833 -110.167 -71.5 -148.5s-119.167 -57.5 -214.5 -57.5h-34v-254h118v-33h-307zM266 657l-35.001 -0.000976562v-337h37c62.667 0 106.334 15 131.001 45s37 72.333 37 127
c0 52.667 -12.5 93.334 -37.5 122.001s-69.167 43 -132.5 43z" />
    <glyph glyph-name="Q" unicode="Q" horiz-adv-x="656" 
d="M516 -141c-33.333 0 -58.8311 9.66797 -76.498 29.001s-32.167 51 -43.5 95c0 1.33301 -0.333008 3.5 -1 6.5s-1.33398 5.16699 -2.00098 6.5c-23.333 -4.66699 -45 -7 -65 -7c-48 0 -91.167 10.833 -129.5 32.5s-68.666 50 -90.999 85s-39.333 73 -51 114
s-17.5 82.5 -17.5 124.5s5.83301 83.5 17.5 124.5s28.667 79 51 114s52.666 63.333 90.999 85s81.5 32.5 129.5 32.5s91.167 -10.833 129.5 -32.5s68.666 -50 90.999 -85s39.333 -73 51 -114s17.5 -82.5 17.5 -124.5c0 -60.667 -11.667 -119.334 -35 -176.001
s-57.333 -101 -102 -133c4 -12.667 9.33301 -32.667 16 -60c5.33301 -23.333 11.5 -41 18.5 -53s16.833 -18 29.5 -18c28.667 0 43 39 43 117h30c0 -54.667 -7.16699 -95.5 -21.5 -122.5s-40.833 -40.5 -79.5 -40.5zM157.002 345.001c0 -130 19 -220.333 57 -271
c18.667 55.333 60 83 124 83c56.667 0 96 -20 118 -60c28.667 51.333 43 134 43 248c0 118.667 -14.5 202.167 -43.5 250.5s-71.5 72.5 -127.5 72.5s-98.5 -24.167 -127.5 -72.5s-43.5 -131.833 -43.5 -250.5zM328.002 22.001c20 0 38.668 3 56.001 9
c-8 29.333 -17.5 51.833 -28.5 67.5s-27.167 23.5 -48.5 23.5c-18.667 0 -34.334 -6.33301 -47.001 -19s-21 -29.667 -25 -51c24.667 -20 55.667 -30 93 -30z" />
    <glyph glyph-name="R" unicode="R" horiz-adv-x="651" 
d="M545 -11c-21.333 0 -39.3281 3.66895 -53.9951 11.002s-26.834 19 -36.501 35s-17.167 31.667 -22.5 47s-11.333 36 -18 62l-3 12c-16 60.667 -34 103 -54 127s-52 36 -96 36h-30v-286h112v-33h-301v33h82v624h-82v33h220c92 0 163.167 -15.833 213.5 -47.5
s75.5 -76.167 75.5 -133.5c0 -45.333 -19.333 -84.333 -58 -117s-87.334 -52.334 -146.001 -59.001c36.667 -14 66 -27 88 -39s39 -25.667 51 -41s20.333 -28.833 25 -40.5s9.66699 -28.834 15 -51.501c13.333 -54.667 22.666 -89 27.999 -103s13.666 -21 24.999 -21
c25.333 0 38 38.333 38 115h30c0 -54 -7.33301 -94.667 -22 -122s-41.334 -41 -80.001 -41zM266.005 657.002h-35v-306h33c114.667 0 172 52.333 172 157c0 99.333 -56.667 149 -170 149z" />
    <glyph glyph-name="S" unicode="S" horiz-adv-x="501" 
d="M263 -11c-66 0 -121.668 17.332 -167.001 51.999l-40 -51h-17v233h32c0 -54.667 16.833 -101.667 50.5 -141s79.5 -59 137.5 -59c48.667 0 83.667 11.667 105 35s32 53.666 32 90.999c0 10 -1 19.5 -3 28.5s-4 17 -6 24s-5.83301 13.667 -11.5 20l-13.5 15.5
c-3.33301 4 -9.33301 8.33301 -18 13s-15 8.16699 -19 10.5s-11.833 5.5 -23.5 9.5l-23.5 8c-4 1.33301 -12.667 3.83301 -26 7.5s-22 6.16699 -26 7.5c-26.667 8 -49 16.167 -67 24.5s-36.833 20.166 -56.5 35.499s-34.5 36 -44.5 62s-15 56.667 -15 92
c0 56 16.667 102.333 50 139s80 55 140 55c28 0 55.667 -4.66699 83 -14s49 -21.666 65 -36.999l36 50h18v-230h-33c0 54 -15.833 100.167 -47.5 138.5s-69.5 57.5 -113.5 57.5c-43.333 0 -76.333 -11.167 -99 -33.5s-34 -52.5 -34 -90.5
c0 -22.667 3.33301 -41.834 10 -57.501s18.834 -29 36.501 -40s32.334 -18.833 44.001 -23.5s31.5 -11.667 59.5 -21c2.66699 -1.33301 4.66699 -2.16602 6 -2.49902s3.16602 -0.833008 5.49902 -1.5s4.5 -1.33398 6.5 -2.00098c28.667 -9.33301 52 -18.166 70 -26.499
s37 -20.5 57 -36.5s34.833 -36.667 44.5 -62s14.5 -55.666 14.5 -90.999c0 -51.333 -16.333 -95.666 -49 -132.999s-82.667 -56 -150 -56z" />
    <glyph glyph-name="T" unicode="T" horiz-adv-x="565" 
d="M125 0v33h104v624h-38c-53.333 0 -90 -10.167 -110 -30.5s-30 -58.5 -30 -114.5v-42h-32v220h527v-220h-32v42c0 56.667 -10 95 -30 115s-56.667 30 -110 30h-38v-624h104v-33h-315z" />
    <glyph glyph-name="U" unicode="U" 
d="M546 232c0 -82.667 -15.5 -143.833 -46.5 -183.5s-83.833 -59.5 -158.5 -59.5c-83.333 0 -143.333 20.167 -180 60.5s-55 101.5 -55 183.5v424h-82v33h283v-33h-93v-432c0 -65.333 10.5 -115.333 31.5 -150s58.5 -52 112.5 -52c55.333 0 93.5 17.333 114.5 52
s31.5 86 31.5 154v428h-93v33h217v-33h-82v-425z" />
    <glyph glyph-name="V" unicode="V" horiz-adv-x="583" 
d="M272 -10l-224 667h-78v33h313v-33h-126l167 -501l171 501h-112v33h230v-33h-77l-228 -667h-36z" />
    <glyph glyph-name="W" unicode="W" horiz-adv-x="815" 
d="M501 657h-83l38 -120zM276 -10h-36l-201 667h-69v33h226v-33h-51l151 -503l102 272l-72 231h-68v33h351v-33h-75l-61 -164l109 -345l157 509h-68v33h174v-33h-68l-205 -667h-36l-120 378z" />
    <glyph glyph-name="X" unicode="X" horiz-adv-x="601" 
d="M6 0v33h66l177 307l-174 317h-69v33h274v-33h-90l129 -235l134 235h-74v33h189v-33h-72l-156 -272l193 -352h62v-33h-284v33h106l-147 268l-153 -268h94v-33h-205z" />
    <glyph glyph-name="Y" unicode="Y" horiz-adv-x="603" 
d="M169 0v33h87v281l-181 343h-70v33h286v-33h-105l155 -293l146 293h-87v33h198v-33h-68l-166 -334v-290h88v-33h-283z" />
    <glyph glyph-name="Z" unicode="Z" horiz-adv-x="527" 
d="M29 0v23l347 634h-160c-54.667 0 -92.5 -10 -113.5 -30s-31.5 -58.333 -31.5 -115v-42h-32v220h450v-23l-349 -634h191c54 0 90 12.167 108 36.5s27 63.833 27 118.5v36h32v-224h-469z" />
    <glyph glyph-name="bracketleft" unicode="[" horiz-adv-x="319" 
d="M286 -250h-230v1000h230v-33h-131v-934h131v-33z" />
    <glyph glyph-name="backslash" unicode="\" horiz-adv-x="447" 
d="M457 -90l-39 -18l-428 857l39 18z" />
    <glyph glyph-name="bracketright" unicode="]" horiz-adv-x="319" 
d="M263 -250h-230v33h131v934h-131v33h230v-1000z" />
    <glyph glyph-name="asciicircum" unicode="^" horiz-adv-x="386" 
d="M291 383l-101 243l-99 -243h-46l132 306h33l131 -306h-50z" />
    <glyph glyph-name="underscore" unicode="_" horiz-adv-x="456" 
d="M0 -96v36h456v-36h-456z" />
    <glyph glyph-name="grave" unicode="`" horiz-adv-x="379" 
d="M274 590l-181.998 123c-12.667 8 -18.334 15.833 -17.001 23.5s10.666 11.5 27.999 11.5h66c23.333 0 40.333 -9 51 -27l84 -131h-30z" />
    <glyph glyph-name="a" unicode="a" horiz-adv-x="554" 
d="M441 -11c-65.333 0 -100.002 39.001 -104.002 117.001c-10.667 -34.667 -29.667 -62.834 -57 -84.501s-61.666 -32.5 -102.999 -32.5c-40.667 0 -73.5 9.33301 -98.5 28s-37.5 47.667 -37.5 87c0 36.667 16.333 67.5 49 92.5s88.334 47.833 167.001 68.5l72 19v70
c0 80 -35 120 -105 120c-38.667 0 -70.334 -11.667 -95.001 -35c35.333 -10 53 -32 53 -66c0 -18.667 -5.33301 -34 -16 -46s-27 -18 -49 -18c-21.333 0 -37.333 6 -48 18s-16 27.333 -16 46c0 37.333 19.167 70 57.5 98s85.833 42 142.5 42c119.333 0 179 -49.667 179 -149
v-279c0 -34 11.333 -51 34 -51c33.333 0 50 39.333 50 118h30c0 -57.333 -8.16699 -98.833 -24.5 -124.5s-43.166 -38.5 -80.499 -38.5zM217.998 45.001c34.667 0 61.833 14.167 81.5 42.5s29.5 70.166 29.5 125.499v41l-61 -18c-46 -13.333 -77.5 -29.166 -94.5 -47.499
s-25.5 -41.166 -25.5 -68.499c0 -26.667 6.66699 -45.834 20 -57.501s30 -17.5 50 -17.5z" />
    <glyph glyph-name="b" unicode="b" horiz-adv-x="582" 
d="M311 21c76.667 0 115.667 77.333 117 232c0 72 -9.33301 126.833 -28 164.5s-49.667 56.5 -93 56.5c-35.333 0 -64.5 -19 -87.5 -57s-34.5 -86 -34.5 -144v-48c0 -62 10.5 -111.5 31.5 -148.5s52.5 -55.5 94.5 -55.5zM314 -11c-35.333 0 -66.333 9.49902 -93 28.499
s-46.667 45.5 -60 79.5l-61 -117h-18v737h-78v33c61.333 0 101.833 0.666992 121.5 2s34.834 5 45.501 11l14 -9v-62c0 -119.333 -5.33301 -230.666 -16 -333.999c8.66699 46.667 26.667 84.167 54 112.5s63 42.5 107 42.5c57.333 0 106 -25.833 146 -77.5
s60 -111.5 60 -179.5c-0.666992 -68 -22.334 -129.5 -65.001 -184.5s-95 -82.5 -157 -82.5z" />
    <glyph glyph-name="c" unicode="c" horiz-adv-x="490" 
d="M457 146c-24 -104.667 -85.001 -157 -183.001 -157c-67.333 0 -122.166 22.667 -164.499 68s-63.5 109 -63.5 191c0 84 22.5 149.167 67.5 195.5s101.5 69.5 169.5 69.5c48.667 0 88.667 -13.167 120 -39.5s47 -62.5 47 -108.5c0 -20.667 -5.5 -37.167 -16.5 -49.5
s-26.5 -18.5 -46.5 -18.5c-22 0 -38.667 5.83301 -50 17.5s-17 27.167 -17 46.5c0 38.667 23.333 61.667 70 69c-16 33.333 -50 50 -102 50c-48.667 0 -83.167 -19.667 -103.5 -59s-30.5 -97 -30.5 -173c0 -68.667 10.667 -123 32 -163s53.333 -60 96 -60
c37.333 0 67.5 10.333 90.5 31s40.5 53 52.5 97z" />
    <glyph glyph-name="d" unicode="d" horiz-adv-x="606" 
d="M415 -5l-0.000976562 108c-26.667 -76 -77.667 -114 -153 -114c-60 0 -111.167 24.167 -153.5 72.5s-63.166 110.5 -62.499 186.5c0.666992 78 24 141.667 70 191s96.333 74 151 74c67.333 0 114 -27.333 140 -82c-5.33301 80 -8 145 -8 195v91h-80v33
c66 0 108.667 0.666992 128 2s33 5 41 11l13 -9v-721h78v-33c-63.333 -0 -113.333 -4.66699 -150 -14zM274.999 29c35.333 0 64.833 15.167 88.5 45.5s35.5 78.833 35.5 145.5v49c0 138 -39 207 -117 207c-83.333 0 -126 -74.333 -128 -223
c-0.666992 -73.333 8.33301 -129 27 -167s50 -57 94 -57z" />
    <glyph glyph-name="e" unicode="e" horiz-adv-x="519" 
d="M282 -11c-66.667 0 -122.667 23.333 -168 70s-68 111.334 -68 194.001c0 79.333 21.833 142.5 65.5 189.5s97.167 70.5 160.5 70.5c66 0 116.833 -21.5 152.5 -64.5s53.5 -97.167 53.5 -162.5c0 -6.66699 -0.666992 -15.334 -2 -26.001h-322v-11
c0 -76 10.167 -132.333 30.5 -169s55.5 -55 105.5 -55c42 0 74.5 11.167 97.5 33.5s40.833 53.833 53.5 94.5l31 -7c-11.333 -48.667 -33.833 -87 -67.5 -115s-74.5 -42 -122.5 -42zM270 479c-37.333 0 -65.168 -14.8311 -83.501 -44.498s-28.833 -76.834 -31.5 -141.501
h218c0.666992 61.333 -6.66602 107.666 -21.999 138.999s-42.333 47 -81 47z" />
    <glyph glyph-name="f" unicode="f" horiz-adv-x="371" 
d="M312 0l-279 0.00292969v33h78v436h-78v32h79c0 93.333 19 160.666 57 201.999s85 62 141 62c36 0 66.5 -9.83301 91.5 -29.5s37.5 -47.834 37.5 -84.501c0 -44.667 -21.667 -67 -65 -67c-20.667 0 -36.5 5.66699 -47.5 17s-16.5 25.666 -16.5 42.999
c0 21.333 6 37.5 18 48.5s28.333 16.833 49 17.5c-10.667 14.667 -29.667 22 -57 22c-14.667 0 -27.5 -1.83301 -38.5 -5.5s-22.167 -10.5 -33.5 -20.5s-20 -26.333 -26 -49s-9 -51 -9 -85v-71h137v-32h-137v-436h99v-33z" />
    <glyph glyph-name="g" unicode="g" horiz-adv-x="526" 
d="M264 219c27.333 0 50 10.333 68 31s27 54.334 27 101.001c0 88 -31.667 132 -95 132s-95 -44 -95 -132c0 -46.667 9 -80.334 27 -101.001s40.667 -31 68 -31zM510 -76c0 -56.667 -21.168 -101.497 -63.501 -134.497s-101.833 -49.5 -178.5 -49.5
c-74 0 -133.667 12.333 -179 37s-68 62 -68 112c0 28 11.5 53.667 34.5 77s54.5 39.333 94.5 48c-61.333 9.33301 -92 41 -92 95c0 29.333 11.5 52.666 34.5 69.999s49.5 27 79.5 29c-32 13.333 -57.667 32.666 -77 57.999s-29 53.666 -29 84.999
c0 49.333 19.333 88.666 58 117.999s85.334 44 140.001 44c28 0 54 -4 78 -12h184v-32l-126 3c41.333 -29.333 62 -69.666 62 -120.999c0 -46 -19.5 -84.333 -58.5 -115s-85.5 -46 -139.5 -46c-45.333 0 -79.333 -3.5 -102 -10.5s-34 -19.833 -34 -38.5
c0 -19.333 11 -32.333 33 -39s56.333 -10 103 -10c164 0 246 -56 246 -168zM271.999 -223.997c55.333 0 97.167 10.834 125.5 32.501s42.5 50.167 42.5 85.5c0 37.333 -13.833 64.166 -41.5 80.499s-71.167 24.5 -130.5 24.5l-75 2c-26 -8 -45.167 -22 -57.5 -42
s-18.5 -42.333 -18.5 -67c0 -39.333 14.667 -68.5 44 -87.5s66.333 -28.5 111 -28.5z" />
    <glyph glyph-name="h" unicode="h" horiz-adv-x="648" 
d="M291 33v-32.999h-255v33h78v684h-78v33c95.333 0 151 4.33301 167 13l13 -9v-157c0 -39.333 -4 -113.333 -12 -222c8 41.333 26.167 74.666 54.5 99.999s64.833 38 109.5 38c116.667 0 175 -66.667 175 -200v-280h77v-33h-255v33h75v273c0 103.333 -37 155 -111 155
c-75.333 0 -113 -58 -113 -174v-254h75z" />
    <glyph glyph-name="i" unicode="i" horiz-adv-x="327" 
d="M227 698c0 -16 -5.66699 -31.333 -17 -46s-29.333 -22 -54 -22c-25.333 0 -43.5 7.33301 -54.5 22s-16.5 30 -16.5 46s5.5 31.333 16.5 46s29.167 22 54.5 22c24.667 0 42.667 -7.33301 54 -22s17 -30 17 -46zM295 0h-258v33h78v436h-78v32
c64 0 105.833 0.833008 125.5 2.5s33.5 5.5 41.5 11.5l14 -9v-473h77v-33z" />
    <glyph glyph-name="j" unicode="j" horiz-adv-x="297" 
d="M214 698c0 -16 -5.5 -31.333 -16.5 -46s-29.167 -22 -54.5 -22s-43.333 7.16699 -54 21.5s-16 29.833 -16 46.5s5.33301 32.167 16 46.5s28.667 21.5 54 21.5s43.5 -7.33301 54.5 -22s16.5 -30 16.5 -46zM22 -260c-38 0 -69.833 10.5 -95.5 31.5s-38.5 53.167 -38.5 96.5
c0 22 5.5 39.667 16.5 53s27.167 20 48.5 20s37.333 -6 48 -18s16 -27 16 -45c0 -40.667 -26.333 -62 -79 -64c12 -28 38.333 -42 79 -42c32 0 54.667 13.167 68 39.5s20 75.5 20 147.5v510h-81v32c65.333 0 107.833 1 127.5 3s33.834 5.66699 42.501 11l14 -9v-473
c0 -48.667 -3.83301 -91.167 -11.5 -127.5s-17.334 -64.833 -29.001 -85.5s-26.167 -37.167 -43.5 -49.5s-33.833 -20.5 -49.5 -24.5s-33.167 -6 -52.5 -6z" />
    <glyph glyph-name="k" unicode="k" horiz-adv-x="584" 
d="M280 33v-33h-244v33h78v684h-78v33c62.667 0 103.667 0.666992 123 2s34 5 44 11l13 -9v-543l204 258h-93v32h224v-32h-83l-126 -161l187 -275h51v-33h-225v33h55l-138 203l-56 -71v-132h64z" />
    <glyph glyph-name="l" unicode="l" horiz-adv-x="321" 
d="M36 0l-0.000976562 33h78v684h-78v33c61.333 0 101.833 0.833008 121.5 2.5s34.834 5.16699 45.501 10.5l13 -9v-721h78v-33h-258z" />
    <glyph glyph-name="m" unicode="m" horiz-adv-x="883" 
d="M37 0v33h78v436h-78v32c85.333 0 135.333 4.66699 150 14l14 -9l-2 -125c6 40.667 21.5 72.834 46.5 96.501s58.5 35.5 100.5 35.5c79.333 0 125 -38.333 137 -115c8.66699 37.333 25.167 65.833 49.5 85.5s54.833 29.5 91.5 29.5c52 0 90.667 -13.167 116 -39.5
s38 -73.833 38 -142.5v-298h77v-33h-240v33h60v291c0 51.333 -6.5 87.833 -19.5 109.5s-34.833 32.5 -65.5 32.5s-53.667 -11.833 -69 -35.5s-23 -62.834 -23 -117.501v-280h60v-33h-224v33h61v291c0 51.333 -6.5 87.833 -19.5 109.5s-34.833 32.5 -65.5 32.5
c-61.333 0 -92 -51 -92 -153v-280h60v-33h-241z" />
    <glyph glyph-name="n" unicode="n" horiz-adv-x="650" 
d="M293 33v-33.001h-256v33h78v436h-78v32c55.333 0 92.333 0.833008 111 2.5s31.667 5.5 39 11.5l14 -9v-143c6 44.667 23.667 80.834 53 108.501s68 41.5 116 41.5c116 0 174 -66.667 174 -200v-280h77v-33h-255v33h75v273c0 103.333 -36.667 155 -110 155
c-75.333 0 -113 -58 -113 -174v-254h75z" />
    <glyph glyph-name="o" unicode="o" horiz-adv-x="568" 
d="M522 250c0 -78.667 -23.833 -141.832 -71.5 -189.499s-103.5 -71.5 -167.5 -71.5c-66.667 0 -122.834 23.667 -168.501 71s-68.5 110.666 -68.5 189.999c0 80 22.833 143.833 68.5 191.5s101.834 71.5 168.501 71.5c64 0 119.833 -24.167 167.5 -72.5
s71.5 -111.833 71.5 -190.5zM154 250.002c0 -74.667 9.66699 -131.333 29 -170s52.666 -58 99.999 -58c87.333 0 131 76 131 228c0 152.667 -43.667 229 -131 229c-47.333 0 -80.666 -19.333 -99.999 -58s-29 -95.667 -29 -171z" />
    <glyph glyph-name="p" unicode="p" horiz-adv-x="616" 
d="M341 24c43.333 0 74.1641 19.167 92.4971 57.5s27.833 94.833 28.5 169.5c0.666992 74 -8.16602 129.833 -26.499 167.5s-49.166 56.5 -92.499 56.5c-37.333 0 -67.5 -19 -90.5 -57s-34.5 -89.667 -34.5 -155v-58c0 -67.333 10.333 -114.333 31 -141
s51.334 -40 92.001 -40zM328.998 -213v-36.998h-292v37h78v677h-78v37c85.333 0 135.333 4.66699 150 14l14 -9v-146c6 45.333 23.333 82.166 52 110.499s66 42.5 112 42.5c55.333 0 103.333 -23.833 144 -71.5s61 -110.5 61 -188.5
c0 -78.667 -21.667 -142.334 -65 -191.001s-95 -73 -155 -73c-59.333 0 -103.333 23 -132 69v-271h111z" />
    <glyph glyph-name="q" unicode="q" horiz-adv-x="572" 
d="M576 -250l-291.001 0.00195312v37h111v73c0 79.333 3.66699 157.666 11 234.999c-25.333 -70.667 -73.666 -106 -144.999 -106c-59.333 0 -110.333 24.167 -153 72.5s-63.667 111.166 -63 188.499c0.666992 78 24.167 141.333 70.5 190s98.5 73 156.5 73
c74.667 0 124.667 -33.333 150 -100l57 108h19v-734h77v-37zM274.999 30.002c35.333 0 64.332 15.001 86.999 45.001s34 78.333 34 145v50c0 70 -9 122.333 -27 157s-47.333 52 -88 52c-83.333 0 -125.666 -75.667 -126.999 -227c0 -72.667 9.33301 -127.834 28 -165.501
s49.667 -56.5 93 -56.5z" />
    <glyph glyph-name="r" unicode="r" horiz-adv-x="468" 
d="M336 33l0.000976562 -33.002h-299v33h78v436h-78v32c60.667 0 98.834 0.666992 114.501 2s27.5 5.33301 35.5 12l14 -9v-147c6.66699 44 21.667 80.667 45 110s55.333 44 96 44c36.667 0 64.5 -10.167 83.5 -30.5s28.5 -45.833 28.5 -76.5
c0 -25.333 -5.83301 -44.666 -17.5 -57.999s-27.5 -20 -47.5 -20c-20.667 0 -37.334 6 -50.001 18s-19 28.333 -19 49c0 18 6 32.833 18 44.5s27.333 18.834 46 21.501c-10.667 12 -27.334 18 -50.001 18c-39.333 0 -68.5 -24.167 -87.5 -72.5s-28.5 -108.833 -28.5 -181.5
v-192h118z" />
    <glyph glyph-name="s" unicode="s" horiz-adv-x="446" 
d="M46 -11l-0.00195312 182h34c0 -17.333 2.16699 -33.833 6.5 -49.5s11.666 -31.5 21.999 -47.5s26.5 -28.667 48.5 -38s48.333 -14 79 -14c32.667 0 57.334 7.66699 74.001 23s25 36.666 25 63.999c0 10.667 -1.33301 20.334 -4 29.001s-7.66699 16.167 -15 22.5
l-18.5 15.5c-5 4 -14.167 8.16699 -27.5 12.5s-22.833 7.33301 -28.5 9s-16.834 4.5 -33.501 8.5c-23.333 5.33301 -43 11.166 -59 17.499s-32.333 15.333 -49 27s-29.167 27.167 -37.5 46.5s-12.5 42 -12.5 68c0 44 13.667 79.667 41 107s65 41 113 41
c49.333 0 87.666 -12.333 114.999 -37l39 37h14v-178h-33c0 44 -10.833 78.833 -32.5 104.5s-54.167 38.5 -97.5 38.5c-30 0 -53.5 -7.33301 -70.5 -22s-25.5 -34.667 -25.5 -60c0 -12 2.16699 -22.667 6.5 -32s9.83301 -17 16.5 -23s15.5 -11.333 26.5 -16
s21.5 -8.5 31.5 -11.5s22.333 -6.5 37 -10.5l12 -3c22.667 -6 41.834 -12.167 57.501 -18.5s31.834 -15.5 48.501 -27.5s29.334 -27.833 38.001 -47.5s13 -43.167 13 -70.5c0 -47.333 -14.167 -83.666 -42.5 -108.999s-67.166 -38 -116.499 -38c-50 0 -95.667 13 -137 39
l-44 -39h-14z" />
    <glyph glyph-name="t" unicode="t" horiz-adv-x="382" 
d="M220 -11c-36 0 -66.667 9.83398 -92 29.501s-38 53.167 -38 100.5v350h-90v22c51.333 0 91.5 19.167 120.5 57.5s44.167 82.166 45.5 131.499h24v-179h157v-32h-154v-356c0 -58.667 20 -88 60 -88c25.333 0 43.5 12 54.5 36s16.5 62.333 16.5 115h30
c0 -62.667 -9.33301 -109.5 -28 -140.5s-54 -46.5 -106 -46.5z" />
    <glyph glyph-name="u" unicode="u" horiz-adv-x="612" 
d="M429 -5l-0.00292969 136c-13.333 -94.667 -66.666 -142 -159.999 -142c-55.333 0 -96.666 15.667 -123.999 47s-41 82 -41 152v281h-87v32c65.333 0 109 0.833008 131 2.5s37 5.5 45 11.5l13 -9v-311c0 -55.333 8.33301 -95 25 -119s42.334 -36 77.001 -36
c69.333 0 104 58 104 174v255h-122v32c81.333 0 134.833 0.833008 160.5 2.5s42.5 5.5 50.5 11.5l14 -9v-473h78v-33c-66.667 -0 -116.667 -4.66699 -150 -14z" />
    <glyph glyph-name="v" unicode="v" horiz-adv-x="480" 
d="M236 -10l-182 479h-61v32h252v-32h-91l123 -328l114 328h-76v32h173v-32h-54l-173 -479h-25z" />
    <glyph glyph-name="w" unicode="w" horiz-adv-x="729" 
d="M244 -10h-25l-165 479h-61v32h229v-32h-69l108 -315l85 264l-16 51h-50v32h222v-32h-77l100 -313l99 313h-64v32h176v-32h-72l-155 -479h-25l-119 368z" />
    <glyph glyph-name="x" unicode="x" horiz-adv-x="530" 
d="M-4 0v33h73l150 211l-154 225h-59v32h235v-32h-69l113 -163l113 163h-70v32h185v-32h-68l-137 -195l167 -241h54v-33h-242v33h78l-121 175l-123 -175h76v-33h-201z" />
    <glyph glyph-name="y" unicode="y" horiz-adv-x="533" 
d="M122 -260c-29.333 0 -53.834 9.66699 -73.501 29s-29.5 46 -29.5 80c0 22 6 39.833 18 53.5s28.333 20.5 49 20.5s35.834 -5.83301 45.501 -17.5s14.5 -26.5 14.5 -44.5c0 -18.667 -6 -33.667 -18 -45s-30 -17.333 -54 -18c9.33301 -15.333 25.333 -23 48 -23
c24.667 0 45.667 13.5 63 40.5s39 77.167 65 150.5l11 31l-194 472h-74v32h265v-32h-89l137 -338l125 338h-77v32h186v-32h-65l-176 -484c-34 -94.667 -62.5 -159.167 -85.5 -193.5s-53.5 -51.5 -91.5 -51.5z" />
    <glyph glyph-name="z" unicode="z" horiz-adv-x="471" 
d="M32 0l-0.00195312 22.999l293 446h-136c-41.333 0 -69.666 -10.167 -84.999 -30.5s-23 -51.166 -23 -92.499v-25h-33v180h387v-22l-293 -446h156c40.667 0 68.834 10.333 84.501 31s23.5 51.667 23.5 93v24h33v-181h-407z" />
    <glyph glyph-name="braceleft" unicode="{" horiz-adv-x="323" 
d="M308 -241l0.000976562 -19.0068c-46 0 -84 5.83301 -114 17.5s-51.5 27.334 -64.5 47.001s-21.833 42.334 -26.5 68.001s-5.33398 52.5 -2.00098 80.5s7.16602 56.167 11.499 84.5s7.66602 55.333 9.99902 81s1.66602 48.334 -2.00098 68.001
s-13.167 35.334 -28.5 47.001s-37.333 17.5 -66 17.5v24c36 0 61.5 9 76.5 27s21.833 41.333 20.5 70s-5.16602 60.334 -11.499 95.001s-10.5 69.5 -12.5 104.5s1 66.833 9 95.5s28.5 52 61.5 70s79.167 27 138.5 27v-24c-32.667 0 -56.834 -8.16699 -72.501 -24.5
s-24.5 -37.833 -26.5 -64.5s-1.33301 -56.167 2 -88.5s6 -65.166 8 -98.499s0.666992 -64.166 -4 -92.499s-17.667 -52.5 -39 -72.5s-51.666 -32 -90.999 -36c40 -4.66699 70.833 -17.667 92.5 -39s35 -47 40 -77s6.83301 -62.5 5.5 -97.5s-3.66602 -69.5 -6.99902 -103.5
s-4.16602 -65 -2.49902 -93s10 -50.667 25 -68s38.167 -26 69.5 -26z" />
    <glyph glyph-name="bar" unicode="|" horiz-adv-x="218" 
d="M133 -250h-48v1140h48v-1140z" />
    <glyph glyph-name="braceright" unicode="}" horiz-adv-x="323" 
d="M298 251c-28.667 0 -50.667 -5.82812 -66 -17.4951s-24.833 -27.334 -28.5 -47.001s-4.33398 -42.334 -2.00098 -68.001s5.66602 -52.5 9.99902 -80.5s8 -56.167 11 -84.5s2.16699 -55.333 -2.5 -81s-13.5 -48.334 -26.5 -68.001s-34.5 -35.334 -64.5 -47.001
s-68 -17.5 -114 -17.5v19c31.333 0 54.5 8.66699 69.5 26s23.167 40 24.5 68s0.333008 59 -3 93s-5.66602 68.5 -6.99902 103.5s0.5 67.5 5.5 97.5s18.667 55.667 41 77s53.5 34.333 93.5 39c-39.333 4 -69.5 16 -90.5 36s-33.833 44.167 -38.5 72.5
s-6.16699 59.166 -4.5 92.499s4.16699 66.166 7.5 98.499s4 61.833 2 88.5s-11 48.167 -27 64.5s-40.333 24.5 -73 24.5v24c46.667 0 85.334 -5.5 116.001 -16.5s52.5 -26 65.5 -45s21.833 -40.667 26.5 -65s5.33398 -50 2.00098 -77s-7.33301 -54.167 -12 -81.5
s-8.16699 -53.166 -10.5 -77.499s-1.83301 -46 1.5 -65s12.666 -34 27.999 -45s37.333 -16.5 66 -16.5v-24z" />
    <glyph glyph-name="asciitilde" unicode="~" horiz-adv-x="505" 
d="M470 379c0 -52 -7.99707 -91.667 -23.9971 -119s-46.333 -41 -91 -41c-25.333 0 -49.833 6 -73.5 18s-42.834 25.333 -57.501 40s-30.5 28 -47.5 40s-32.833 18 -47.5 18c-45.333 0 -68 -36 -68 -108h-27c0 50.667 8.83301 90 26.5 118s48.167 42 91.5 42
c25.333 0 49.666 -6 72.999 -18s42.166 -25.333 56.499 -40s30.333 -28 48 -40s34.167 -18 49.5 -18c43.333 0 65 36 65 108h26z" />
    <glyph glyph-name="exclamdown" unicode="&#xa1;" horiz-adv-x="271" 
d="M65 633c0 15.333 5.66699 30.5 17 45.5s29 22.5 53 22.5c25.333 0 43.333 -7.33301 54 -22s16 -30 16 -46s-5.33301 -31.667 -16 -47s-28.667 -23 -54 -23c-24 0 -41.667 7.66699 -53 23s-17 31 -17 47zM119 496h29.998c0 -68.667 4.33301 -134.5 13 -197.5
s17.334 -114.5 26.001 -154.5s13 -66.667 13 -80c0 -18 -5 -35 -15 -51s-26.667 -24 -50 -24s-40.166 8.16699 -50.499 24.5s-15.5 33.166 -15.5 50.499c0 14 4 41 12 81s16.167 91.333 24.5 154s12.5 128.334 12.5 197.001z" />
    <glyph glyph-name="cent" unicode="&#xa2;" horiz-adv-x="508" 
d="M457 146c-24 -104.667 -84.333 -157.001 -181 -157.001v-109h-28v110c-60.667 6 -109.5 31.333 -146.5 76s-55.5 105.334 -55.5 182.001s18.667 137.667 56 183s86 72 146 80v139h28v-137h7c48.667 0 88.667 -13.167 120 -39.5s47 -62.5 47 -108.5
c0 -20.667 -5.5 -37.167 -16.5 -49.5s-26.5 -18.5 -46.5 -18.5c-22 0 -38.667 5.83301 -50 17.5s-17 27.167 -17 46.5c0 38.667 23.333 61.667 70 69c-16 33.333 -50 50 -102 50h-12v-455h6c37.333 0 67.5 10.333 90.5 31s40.5 53 52.5 97zM154 247.999
c0 -125.333 31.333 -198 94 -218v445c-62.667 -19.333 -94 -95 -94 -227z" />
    <glyph glyph-name="sterling" unicode="&#xa3;" horiz-adv-x="546" 
d="M497 163c0 -24 -0.498047 -43.5 -1.49805 -58.5s-3.83301 -30.5 -8.5 -46.5s-11 -28.5 -19 -37.5s-19.167 -16.333 -33.5 -22s-31.833 -8.5 -52.5 -8.5c-32.667 0 -71.667 7.83301 -117 23.5s-79 23.5 -101 23.5c-36 0 -73.333 -15.667 -112 -47l-20 23
c56.667 40.667 99.334 76.334 128.001 107.001s43 63.334 43 98.001c0 22.667 -3.66699 41 -11 55h-121v32h103c-0.666992 0.666992 -6 7.83398 -16 21.501s-16.167 22.5 -18.5 26.5s-7.16602 12.833 -14.499 26.5s-12.333 25.334 -15 35.001s-5.33398 22.5 -8.00098 38.5
s-4 32.333 -4 49c0 56.667 18.167 104 54.5 142s82.5 57 138.5 57c48.667 0 88.667 -13.333 120 -40s47 -62.667 47 -108c0 -20.667 -5.66699 -37.5 -17 -50.5s-27 -19.5 -47 -19.5c-22.667 0 -39.667 6 -51 18s-17 27.667 -17 47c0 39.333 23 62.666 69 69.999
c-8.66699 16 -22.334 28.333 -41.001 37s-39.334 13 -62.001 13c-38 0 -67.833 -10.167 -89.5 -30.5s-32.5 -46.5 -32.5 -78.5c0 -22.667 3.5 -42.834 10.5 -60.501s15.5 -32.834 25.5 -45.501l30.5 -38c10.333 -12.667 19.833 -28.334 28.5 -47.001s14 -39.667 16 -63h124
v-32h-122c-3.33301 -72 -47 -141.333 -131 -208c32 21.333 63.333 32 94 32c20 0 47 -6.66699 81 -20s60.667 -20 80 -20c21.333 0 36.166 7.5 44.499 22.5s12.5 42.833 12.5 83.5h33z" />
    <glyph glyph-name="yen" unicode="&#xa5;" horiz-adv-x="603" 
d="M452 33v-33h-283v33h87v183h-152v33h152v74h-151v33h129l-159 301h-70v33h286v-33h-105l155 -293l146 293h-87v33h198v-33h-68l-150 -301h120v-33h-136v-74h136v-33h-136v-183h88z" />
    <glyph glyph-name="section" unicode="&#xa7;" horiz-adv-x="554" 
d="M127 313c0 -23.333 6.50098 -44 19.501 -62s30.167 -33.667 51.5 -47s43.5 -26.166 66.5 -38.499s46.833 -28 71.5 -47s44.667 -39.5 60 -61.5c20 23.333 30 47.333 30 72c0 28.667 -10.333 53.667 -31 75s-44.667 38.166 -72 50.499s-57.833 29.333 -91.5 51
s-59.834 45.167 -78.501 70.5c-17.333 -21.333 -26 -42.333 -26 -63zM260.001 -260c-52.667 0 -96.3359 13.1689 -131.003 39.502s-52 61.5 -52 105.5c0 21.333 6.16699 39 18.5 53s29.166 21 50.499 21c22 0 38.667 -6.16699 50 -18.5s17 -28.5 17 -48.5
c0 -38.667 -22.333 -62 -67 -70c8.66699 -14.667 23.334 -26.5 44.001 -35.5s43.667 -13.5 69 -13.5c34.667 0 62 9.16699 82 27.5s30 43.166 30 74.499c0 30 -5.66699 56.333 -17 79s-26 41.167 -44 55.5s-37.833 27.666 -59.5 39.999l-65.5 37
c-22 12.333 -42 25.833 -60 40.5s-32.667 33.834 -44 57.501s-17 51.167 -17 82.5c0 54 23.333 99.333 70 136c-22.667 34.667 -34 75.667 -34 123c0 48.667 16.833 90 50.5 124s77.834 51 132.501 51s97.167 -12.833 127.5 -38.5s45.5 -61.5 45.5 -107.5
c0 -22 -5.66699 -39.5 -17 -52.5s-27.333 -19.5 -48 -19.5c-22.667 0 -40 6.16699 -52 18.5s-18 28.166 -18 47.499c0 39.333 22.333 63 67 71c-14.667 32 -47.667 48 -99 48c-37.333 0 -65.833 -10.667 -85.5 -32s-29.5 -47 -29.5 -77
c0 -27.333 5.83301 -51.666 17.5 -72.999s26.834 -39.333 45.501 -54s39.167 -28.334 61.5 -41.001l67.5 -39c22.667 -13.333 43.334 -27.833 62.001 -43.5s33.834 -35.167 45.501 -58.5s17.5 -49.666 17.5 -78.999c0 -60 -25 -108 -75 -144c20 -33.333 30 -71 30 -113
c0 -52.667 -16.833 -94.834 -50.5 -126.501s-78.834 -47.5 -135.501 -47.5z" />
    <glyph glyph-name="dieresis" unicode="&#xa8;" horiz-adv-x="437" 
d="M122 631c-22.667 0 -39 7.33301 -49 22s-15 29.667 -15 45c0 16 5 31.333 15 46s26.333 22 49 22c22 0 38.167 -7.33301 48.5 -22s15.5 -30 15.5 -46c0 -15.333 -5.16699 -30.333 -15.5 -45s-26.5 -22 -48.5 -22zM314 631c-22 0 -38 7.33301 -48 22s-15 29.667 -15 45
c0 16 5 31.333 15 46s26 22 48 22s38.167 -7.33301 48.5 -22s15.5 -30 15.5 -46c0 -15.333 -5.16699 -30.333 -15.5 -45s-26.5 -22 -48.5 -22z" />
    <glyph glyph-name="copyright" unicode="&#xa9;" horiz-adv-x="801" 
d="M400 -11c-99.333 0 -181.833 35.1689 -247.5 105.502s-98.5 156.166 -98.5 257.499c0 100 33 183.167 99 249.5s148.333 99.5 247 99.5c99.333 0 182 -33.167 248 -99.5s99 -149.5 99 -249.5c0 -100.667 -33.333 -186.334 -100 -257.001s-149 -106 -247 -106zM400 25.002
c86 0 158.333 31.168 217 93.501s88 140.166 88 233.499c0 92 -29 167.167 -87 225.5s-130.667 87.5 -218 87.5s-160 -29.167 -218 -87.5s-87 -133.5 -87 -225.5c0 -94 28.833 -172 86.5 -234s130.5 -93 218.5 -93zM490 151.003c-25.333 -16 -55.333 -24 -90 -24
c-57.333 0 -103.666 23.5 -138.999 70.5s-53 98.167 -53 153.5c0 54.667 18.167 105.5 54.5 152.5s82.166 70.5 137.499 70.5c36 0 64.667 -7.66699 86 -23l24 23h16v-145h-26c0 80 -32 120 -96 120c-78 0 -117 -66 -117 -198c0 -132.667 39 -199 117 -199
c66.667 0 100 40.667 100 122h26v-146h-16z" />
    <glyph glyph-name="ordfeminine" unicode="&#xaa;" horiz-adv-x="346" 
d="M268 490c-39.333 0 -60.3359 19.667 -63.0029 59c-14 -39.333 -44.667 -59 -92 -59c-48 0 -72 20 -72 60c0 40.667 40.667 70.667 122 90l38 10v22c0 42.667 -18.333 64 -55 64c-15.333 0 -29.666 -4 -42.999 -12c13.333 -5.33301 20 -16 20 -32
c0 -23.333 -12.333 -35 -37 -35c-11.333 0 -20.666 3.16699 -27.999 9.5s-11 14.833 -11 25.5c0 19.333 11.333 36.333 34 51s49.334 22 80.001 22c32.667 0 58.5 -7 77.5 -21s28.5 -33.667 28.5 -59v-135c0 -18 6.33301 -27 19 -27c15.333 0 23 20.667 23 62h19
c0 -63.333 -20 -95 -60 -95zM139.997 528c18.667 0 33.499 7 44.499 21s16.5 35 16.5 63v15l-34 -9c-40 -10.667 -60 -29 -60 -55c0 -12 3.33301 -20.833 10 -26.5s14.334 -8.5 23.001 -8.5z" />
    <glyph glyph-name="guillemotleft" unicode="&#xab;" horiz-adv-x="488" 
d="M268 52v-27l-243 226v24l243 204v-32l-127 -184zM441 91v-27l-214 188v22l214 166v-32l-107 -145z" />
    <glyph glyph-name="logicalnot" unicode="&#xac;" horiz-adv-x="519" 
d="M474 149h-39v143h-390v35h429v-178z" />
    <glyph glyph-name="registered" unicode="&#xae;" horiz-adv-x="592" 
d="M296 199c-70 0 -128.333 24.667 -175 74s-70 110 -70 182c0 70 23.5 128.5 70.5 175.5s105.167 70.5 174.5 70.5s127.5 -23.5 174.5 -70.5s70.5 -105.5 70.5 -175.5c0 -71.333 -23.5 -131.833 -70.5 -181.5s-105.167 -74.5 -174.5 -74.5zM296 227
c60.667 0 111.5 21.8311 152.5 65.498s61.5 97.834 61.5 162.501s-20.333 117.167 -61 157.5s-91.667 60.5 -153 60.5s-112.333 -20.167 -153 -60.5s-61 -92.833 -61 -157.5c0 -65.333 20.333 -119.666 61 -162.999s91.667 -65 153 -65zM392 322.998
c-10 0 -18.502 1.33398 -25.502 4.00098s-12.5 7.83398 -16.5 15.501s-6.83301 14 -8.5 19s-4.16699 13.5 -7.5 25.5c-6.66699 24 -13.667 40.333 -21 49s-19 13 -35 13h-15v-105h44v-16h-123v16h32v237h-32v15h93c36 0 64.667 -6.33301 86 -19s32 -30.334 32 -53.001
c0 -16.667 -8.16699 -31.334 -24.5 -44.001s-36.166 -20.334 -59.499 -23.001c30.667 -12 49.834 -21.667 57.501 -29s13.167 -19.666 16.5 -36.999c6 -29.333 11.333 -45 16 -47c1.33301 -0.666992 3 -1 5 -1c10 0 15 15 15 45h14c0 -22 -3 -38.333 -9 -49
s-17.333 -16 -34 -16zM277.998 577.999h-15v-112h13c45.333 0 68 19.333 68 58c0 36 -22 54 -66 54z" />
    <glyph glyph-name="macron" unicode="&#xaf;" horiz-adv-x="312" 
d="M34 672v47h244v-47h-244z" />
    <glyph glyph-name="degree" unicode="&#xb0;" horiz-adv-x="317" 
d="M158 495c-31.333 0 -56.333 9.83301 -75 29.5s-28 44.834 -28 75.501c0 28 9.5 51.667 28.5 71s43.833 29 74.5 29s55.667 -9.66699 75 -29s29 -43 29 -71c0 -30.667 -9.66699 -55.834 -29 -75.501s-44.333 -29.5 -75 -29.5zM158 537c17.333 0 31 5.66797 41 17.001
s15 25.333 15 42c0 17.333 -5.16699 31.666 -15.5 42.999s-23.833 17 -40.5 17c-17.333 0 -30.833 -5.5 -40.5 -16.5s-14.5 -25.5 -14.5 -43.5c0 -16.667 5 -30.667 15 -42s23.333 -17 40 -17z" />
    <glyph glyph-name="plusminus" unicode="&#xb1;" horiz-adv-x="462" 
d="M417 339h-167v-163h-38v163h-167v35h167v164h38v-164h167v-35zM45 88v35h372v-35h-372z" />
    <glyph glyph-name="uni00B2" unicode="&#xb2;" horiz-adv-x="359" 
d="M313 520h-275v21c115.333 118.667 183.333 194.667 204 228c-15.333 -21.333 -38 -32 -68 -32c-38 0 -71 9.66699 -99 29s-42 45.333 -42 78c0 32 14.833 57.5 44.5 76.5s65.5 28.5 107.5 28.5c38.667 0 70.5 -9.5 95.5 -28.5s37.5 -44.5 37.5 -76.5
c0 -24 -16 -55.667 -48 -95c-11.333 -14 -34.5 -40.167 -69.5 -78.5l-81.5 -89.5h97c28.667 0 48.5 2.66699 59.5 8s17.5 16.333 19.5 33l4 38h27zM103 843c-0.666992 -25.333 5.99902 -44.5 19.999 -57.5s31.667 -19.5 53 -19.5c20.667 0 37.834 6.5 51.501 19.5
s20.5 32.167 20.5 57.5s-7 44.5 -21 57.5s-31.333 19.5 -52 19.5s-37.667 -6.5 -51 -19.5s-20.333 -32.167 -21 -57.5z" />
    <glyph glyph-name="uni00B3" unicode="&#xb3;" horiz-adv-x="337" 
d="M164 514c-46 0 -80.498 10.335 -103.498 31.002s-34.5 44 -34.5 70c0 15.333 4 27.5 12 36.5s19.333 13.5 34 13.5c14 0 24.5 -3.83301 31.5 -11.5s10.5 -16.834 10.5 -27.501c0 -26 -16.333 -39 -49 -39c13.333 -28 43 -42 89 -42c54.667 0 82 33 82 99
c-0.666992 35.333 -8.66699 61.166 -24 77.499s-34.333 24.5 -57 24.5c-14 0 -27 -4.33301 -39 -13l-13 15l120 134h-71c-34.667 0 -56.834 -3.16699 -66.501 -9.5s-14.5 -20.5 -14.5 -42.5v-19h-28v133h244v-31l-119 -136c53.333 -7.33301 90.5 -23.5 111.5 -48.5
s31.5 -53.167 31.5 -84.5c0 -33.333 -12.333 -63.333 -37 -90s-61.334 -40 -110.001 -40z" />
    <glyph glyph-name="acute" unicode="&#xb4;" horiz-adv-x="500" 
d="M66 590l102 130.999c13.333 18 33 27 59 27h66c12 0 19.833 -1.66699 23.5 -5s3.66699 -7.66602 0 -12.999s-10.5 -11 -20.5 -17l-200 -123h-30z" />
    <glyph glyph-name="uni00B5" unicode="&#xb5;" horiz-adv-x="612" 
d="M178 -151c0 -16 -4.83301 -30.167 -14.5 -42.5s-24.834 -18.5 -45.501 -18.5c-21.333 0 -36.833 6.16699 -46.5 18.5s-14.5 26.5 -14.5 42.5c0 10 2.5 21.833 7.5 35.5s10.333 29.334 16 47.001s11 51.334 16 101.001s7.5 111.167 7.5 184.5v252h-87v32
c65.333 0 109 0.833008 131 2.5s37 5.5 45 11.5l13 -9v-311c0 -55.333 8.33301 -95 25 -119s42.334 -36 77.001 -36c69.333 0 104 58 104 174v255h-122v32c129.333 0 199.666 4.66699 210.999 14l14 -9v-473h78v-33c-63.333 0 -113.333 -4.66699 -150 -14l-14 9v136
c-13.333 -94.667 -66.666 -142 -159.999 -142c-59.333 0 -102 17.667 -128 53c4.66699 -56.667 12 -100.834 22 -132.501s15 -51.834 15 -60.501z" />
    <glyph glyph-name="paragraph" unicode="&#xb6;" horiz-adv-x="580" 
d="M537 -250h-346.999v33h95v486c-84.667 0 -148.334 21.333 -191.001 64s-64 91.334 -64 146.001c0 24 4.66699 47.833 14 71.5s23.5 46.167 42.5 67.5s45.333 38.666 79 51.999s72.167 20 115.5 20h256v-33h-85v-874h85v-33zM409.001 657h-82v-874h82v874z" />
    <glyph glyph-name="periodcentered" unicode="&#xb7;" horiz-adv-x="254" 
d="M199 292c0 -15.333 -5.66699 -30.666 -17 -45.999s-29.333 -23 -54 -23c-25.333 0 -43.5 7.66699 -54.5 23s-16.5 30.666 -16.5 45.999c0 16.667 5.5 32.667 16.5 48s29.167 23 54.5 23c24.667 0 42.667 -7.66699 54 -23s17 -31.333 17 -48z" />
    <glyph glyph-name="cedilla" unicode="&#xb8;" horiz-adv-x="486" 
d="M347 -132c0 -24.667 -9.49902 -43.167 -28.499 -55.5s-44.167 -18.5 -75.5 -18.5c-54.667 0 -91.334 15.333 -110.001 46l17 15c14 -17.333 35.667 -26 65 -26c36.667 0 55 14.667 55 44c0 32.667 -28 49 -84 49l-4 11l47 73h36l-37 -56
c30.667 0 58.167 -6.83301 82.5 -20.5s36.5 -34.167 36.5 -61.5z" />
    <glyph glyph-name="uni00B9" unicode="&#xb9;" horiz-adv-x="268" 
d="M252 520l-227 0.000976562v30h81v341h-81v29c74 0 120.333 12.667 139 38l19 -8c-5.33301 -10.667 -8 -33.334 -8 -68.001v-332h77v-30z" />
    <glyph glyph-name="ordmasculine" unicode="&#xba;" horiz-adv-x="351" 
d="M310 628c0 -41.333 -13.667 -74.667 -41 -100s-58.666 -38 -93.999 -38c-36.667 0 -68.167 12.5 -94.5 37.5s-39.5 58.5 -39.5 100.5c0 41.333 13.167 74.5 39.5 99.5s57.833 37.5 94.5 37.5c35.333 0 66.666 -12.667 93.999 -38s41 -58.333 41 -99zM109 627.999
c0 -40 4.5 -68.501 13.5 -85.501s26.5 -25.5 52.5 -25.5c24.667 0 42 8.83301 52 26.5s15 45.834 15 84.501c0 37.333 -5 64.833 -15 82.5s-27.333 26.5 -52 26.5c-26 0 -43.5 -8.5 -52.5 -25.5s-13.5 -44.833 -13.5 -83.5z" />
    <glyph glyph-name="guillemotright" unicode="&#xbb;" horiz-adv-x="488" 
d="M463 251l-243 -226v27l127 211l-127 184v32l243 -204v-24zM260 252l-214 -188v27l107 172l-107 145v32l214 -166v-22z" />
    <glyph glyph-name="questiondown" unicode="&#xbf;" horiz-adv-x="391" 
d="M262 633c0 -16 -5.33301 -31.667 -16 -47s-28.667 -23 -54 -23c-24.667 0 -42.5 7.66699 -53.5 23s-16.5 31 -16.5 47c0 15.333 5.5 30.5 16.5 45.5s28.833 22.5 53.5 22.5c25.333 0 43.333 -7.33301 54 -22s16 -30 16 -46zM206 -11
c-55.333 0 -99.165 12.833 -131.498 38.5s-48.5 63.834 -48.5 114.501c0 27.333 6.83301 52.333 20.5 75s30.167 42.167 49.5 58.5l57.5 47c19 15 35.333 31.5 49 49.5s20.5 37 20.5 57c0 34 -17.667 51 -53 51c-16 0 -29.167 -4.5 -39.5 -13.5s-15.5 -21.833 -15.5 -38.5
c0 -18.667 7.33301 -37.334 22 -56.001l-19 -15c-22.667 18 -34 41.667 -34 71c-0.666992 26 8.16602 46.833 26.499 62.5s42.166 23.5 71.499 23.5c35.333 0 63 -9.66699 83 -29s30 -45.666 30 -78.999c0 -29.333 -6.5 -55.833 -19.5 -79.5s-28.667 -43 -47 -58l-55 -44
c-18.333 -14.333 -34 -30.666 -47 -48.999s-19.5 -38.5 -19.5 -60.5c0 -62.667 36.667 -94 110 -94c48.667 0 81.667 16.333 99 49c-24 2 -42.333 9.16699 -55 21.5s-19 28.166 -19 47.499c0 18.667 6 34 18 46s28.667 18 50 18c20 0 35.5 -6.33301 46.5 -19
s16.5 -29.667 16.5 -51c0 -44.667 -15.333 -79.834 -46 -105.501s-71 -38.5 -121 -38.5z" />
    <glyph glyph-name="Agrave" unicode="&#xc0;" horiz-adv-x="600" 
d="M338 741l-183.001 94.002c-8 4 -13.333 8.66699 -16 14s-1.66699 10.166 3 14.499s12.667 6.5 24 6.5h76c12.667 0 22.334 -1.83301 29.001 -5.5s14 -10.834 22 -21.501l75 -102h-30zM355.999 254.002l-95 281l-95 -281h190zM-12.001 0.00195312v33h64l229 667h36
l227 -667h69v-33h-301v33h119l-64 188h-212l-64 -188h116v-33h-219z" />
    <glyph glyph-name="Aacute" unicode="&#xc1;" horiz-adv-x="600" 
d="M254 740l75 102.999c13.333 18 33 27 59 27h75c12 0 19.833 -1.66699 23.5 -5s3.66699 -7.66602 0 -12.999s-10.5 -11 -20.5 -17l-182 -95h-30zM356 253.999l-95 281l-95 -281h190zM-12 -0.000976562v33h64l229 667h36l227 -667h69v-33h-301v33h119l-64 188h-212
l-64 -188h116v-33h-219z" />
    <glyph glyph-name="Acircumflex" unicode="&#xc2;" horiz-adv-x="600" 
d="M181 737h-32l138 172h27l133 -172h-27l-120 75zM356 254l-95 281l-95 -281h190zM-12 0v33h64l229 667h36l227 -667h69v-33h-301v33h119l-64 188h-212l-64 -188h116v-33h-219z" />
    <glyph glyph-name="Atilde" unicode="&#xc3;" horiz-adv-x="600" 
d="M462 885c0 -84.667 -31 -127 -93 -127c-22 0 -42.833 6.33301 -62.5 19s-37.667 25.167 -54 37.5s-31.833 18.5 -46.5 18.5c-31.333 0 -47 -23 -47 -69h-25c0 84.667 30 127 90 127c25.333 0 48 -6.16699 68 -18.5s38 -24.5 54 -36.5s31.667 -18 47 -18
c29.333 0 44 22.333 44 67h25zM356 254l-95 281l-95 -281h190zM-12 0v33h64l229 667h36l227 -667h69v-33h-301v33h119l-64 188h-212l-64 -188h116v-33h-219z" />
    <glyph glyph-name="Adieresis" unicode="&#xc4;" horiz-adv-x="600" 
d="M205 756c-22.667 0 -39 7.33301 -49 22s-15 29.667 -15 45c0 16 5 31.333 15 46s26.333 22 49 22c22 0 38.167 -7.33301 48.5 -22s15.5 -30 15.5 -46c0 -15.333 -5.16699 -30.333 -15.5 -45s-26.5 -22 -48.5 -22zM397 756c-22 0 -38 7.33301 -48 22s-15 29.667 -15 45
c0 16 5 31.333 15 46s26 22 48 22s38.167 -7.33301 48.5 -22s15.5 -30 15.5 -46c0 -15.333 -5.16699 -30.333 -15.5 -45s-26.5 -22 -48.5 -22zM356 254l-95 281l-95 -281h190zM-12 0v33h64l229 667h36l227 -667h69v-33h-301v33h119l-64 188h-212l-64 -188h116v-33h-219z" />
    <glyph glyph-name="Aring" unicode="&#xc5;" horiz-adv-x="600" 
d="M385 824c0 -19.333 -6.83301 -38.166 -20.5 -56.499s-35.5 -27.5 -65.5 -27.5c-30.667 0 -52.667 9.16699 -66 27.5s-20 37.166 -20 56.499c0 20 6.66699 39.167 20 57.5s35.333 27.5 66 27.5c30 0 51.833 -9.16699 65.5 -27.5s20.5 -37.5 20.5 -57.5zM258 824
c0 -30 14 -45 42 -45c15.333 0 26.333 5 33 15s10 20 10 30s-3.33301 19.833 -10 29.5s-17.667 14.5 -33 14.5c-28 0 -42 -14.667 -42 -44zM356 254l-95 281l-95 -281h190zM-12 0v33h64l229 667h36l227 -667h69v-33h-301v33h119l-64 188h-212l-64 -188h116v-33h-219z" />
    <glyph glyph-name="AE" unicode="&#xc6;" horiz-adv-x="832" 
d="M394 254v340l-203 -340h203zM-45 0v33h66l370 624h-112v33h489v-220h-32v42c0 55.333 -12 93.333 -36 114s-64 31 -120 31h-78v-272h123v76h38v-195h-38v86h-123v-319h116c54 0 90.167 12.167 108.5 36.5s27.5 63.833 27.5 118.5v36h32v-224h-510v33h118v188h-222
l-113 -188h116v-33h-220z" />
    <glyph glyph-name="Ccedilla" unicode="&#xc7;" horiz-adv-x="591" 
d="M327 -206c-54.667 0 -91.334 15.332 -110.001 45.999l17 15c14 -17.333 35.667 -26 65 -26c36.667 0 55 14.667 55 44c0 32.667 -28 49 -84 49l-4 11l37 58c-56 6 -104.833 28.5 -146.5 67.5s-71.667 83.5 -90 133.5s-27.5 101.333 -27.5 154c0 56 11 110.5 33 163.5
s56.167 98.167 102.5 135.5s99.5 56 159.5 56c56.667 0 101.334 -12.333 134.001 -37l40 36h18v-230h-33c0 131.333 -51 197 -153 197c-38 0 -69.833 -9.16699 -95.5 -27.5s-46.667 -51.833 -63 -100.5s-24.5 -113 -24.5 -193c0 -215.333 61 -323 183 -323
c55.333 0 95.5 18.333 120.5 55s37.5 85.334 37.5 146.001h33v-234h-18l-40 38c-38 -26 -83 -39 -135 -39l-26 -39c30.667 0 58.167 -6.83301 82.5 -20.5s36.5 -34.167 36.5 -61.5c0 -24.667 -9.5 -43.167 -28.5 -55.5s-44.167 -18.5 -75.5 -18.5z" />
    <glyph glyph-name="Egrave" unicode="&#xc8;" horiz-adv-x="583" 
d="M321 741l-183.001 94.002c-8 4 -13.333 8.66699 -16 14s-1.66699 10.166 3 14.499s12.667 6.5 24 6.5h76c12.667 0 22.334 -1.83301 29.001 -5.5s14 -10.834 22 -21.501l75 -102h-30zM41.999 0.00195312v33h82v624h-82v33h477v-220h-33v42
c0 56 -11.833 94.167 -35.5 114.5s-63.5 30.5 -119.5 30.5h-100v-290h145v77h37v-195h-37v86h-145v-302h138c54 0 90 12 108 36s27 63.667 27 119v36h33v-224h-495z" />
    <glyph glyph-name="Eacute" unicode="&#xc9;" horiz-adv-x="583" 
d="M238 740l75 102.999c13.333 18 33 27 59 27h75c12 0 19.833 -1.66699 23.5 -5s3.66699 -7.66602 0 -12.999s-10.5 -11 -20.5 -17l-182 -95h-30zM42 -0.000976562v33h82v624h-82v33h477v-220h-33v42c0 56 -11.833 94.167 -35.5 114.5s-63.5 30.5 -119.5 30.5h-100v-290
h145v77h37v-195h-37v86h-145v-302h138c54 0 90 12 108 36s27 63.667 27 119v36h33v-224h-495z" />
    <glyph glyph-name="Ecircumflex" unicode="&#xca;" horiz-adv-x="583" 
d="M175 737h-32l138 172h27l133 -172h-27l-120 75zM42 0v33h82v624h-82v33h477v-220h-33v42c0 56 -11.833 94.167 -35.5 114.5s-63.5 30.5 -119.5 30.5h-100v-290h145v77h37v-195h-37v86h-145v-302h138c54 0 90 12 108 36s27 63.667 27 119v36h33v-224h-495z" />
    <glyph glyph-name="Edieresis" unicode="&#xcb;" horiz-adv-x="583" 
d="M200 756c-22.667 0 -39 7.33301 -49 22s-15 29.667 -15 45c0 16 5 31.333 15 46s26.333 22 49 22c22 0 38.167 -7.33301 48.5 -22s15.5 -30 15.5 -46c0 -15.333 -5.16699 -30.333 -15.5 -45s-26.5 -22 -48.5 -22zM392 756c-22 0 -38 7.33301 -48 22s-15 29.667 -15 45
c0 16 5 31.333 15 46s26 22 48 22s38.167 -7.33301 48.5 -22s15.5 -30 15.5 -46c0 -15.333 -5.16699 -30.333 -15.5 -45s-26.5 -22 -48.5 -22zM42 0v33h82v624h-82v33h477v-220h-33v42c0 56 -11.833 94.167 -35.5 114.5s-63.5 30.5 -119.5 30.5h-100v-290h145v77h37v-195
h-37v86h-145v-302h138c54 0 90 12 108 36s27 63.667 27 119v36h33v-224h-495z" />
    <glyph glyph-name="Igrave" unicode="&#xcc;" horiz-adv-x="364" 
d="M183 741l-183.001 94.002c-8 4 -13.333 8.66699 -16 14s-1.66699 10.166 3 14.499s12.667 6.5 24 6.5h76c12.667 0 22.334 -1.83301 29.001 -5.5s14 -10.834 22 -21.501l75 -102h-30zM321.999 0.00195312h-280v33h86v624h-86v33h280v-33h-86v-624h86v-33z" />
    <glyph glyph-name="Iacute" unicode="&#xcd;" horiz-adv-x="364" 
d="M142 740l75 102.999c13.333 18 33 27 59 27h75c12 0 19.833 -1.66699 23.5 -5s3.66699 -7.66602 0 -12.999s-10.5 -11 -20.5 -17l-182 -95h-30zM322 -0.000976562h-280v33h86v624h-86v33h280v-33h-86v-624h86v-33z" />
    <glyph glyph-name="Icircumflex" unicode="&#xce;" horiz-adv-x="364" 
d="M68 737h-32l138 172h27l133 -172h-27l-120 75zM322 0h-280v33h86v624h-86v33h280v-33h-86v-624h86v-33z" />
    <glyph glyph-name="Idieresis" unicode="&#xcf;" horiz-adv-x="364" 
d="M86 756c-22.667 0 -39 7.33301 -49 22s-15 29.667 -15 45c0 16 5 31.333 15 46s26.333 22 49 22c22 0 38.167 -7.33301 48.5 -22s15.5 -30 15.5 -46c0 -15.333 -5.16699 -30.333 -15.5 -45s-26.5 -22 -48.5 -22zM278 756c-22 0 -38 7.33301 -48 22s-15 29.667 -15 45
c0 16 5 31.333 15 46s26 22 48 22s38.167 -7.33301 48.5 -22s15.5 -30 15.5 -46c0 -15.333 -5.16699 -30.333 -15.5 -45s-26.5 -22 -48.5 -22zM322 0h-280v33h86v624h-86v33h280v-33h-86v-624h86v-33z" />
    <glyph glyph-name="Ntilde" unicode="&#xd1;" horiz-adv-x="706" 
d="M532 886c0 -84.667 -31.002 -127.002 -93.002 -127.002c-17.333 0 -34.166 3.83301 -50.499 11.5s-29.666 16.334 -39.999 26.001s-22 18.334 -35 26.001s-25.5 11.5 -37.5 11.5c-31.333 0 -47 -23 -47 -69h-25c0 84.667 30 127 90 127c20 0 38.667 -3.83301 56 -11.5
s30.833 -16 40.5 -25s21 -17.333 34 -25s25.833 -11.5 38.5 -11.5c29.333 0 44 22.333 44 67h25zM253.998 32.998v-33h-212v33h82v624h-82v33h175l331 -509v476h-87v33h211v-33h-81v-666h-38l-387 592v-550h88z" />
    <glyph glyph-name="Ograve" unicode="&#xd2;" horiz-adv-x="656" 
d="M326 741l-183.001 94.002c-8 4 -13.333 8.66699 -16 14s-1.66699 10.166 3 14.499s12.667 6.5 24 6.5h76c12.667 0 22.334 -1.83301 29.001 -5.5s14 -10.834 22 -21.501l75 -102h-30zM616.999 345.002c0 -42 -5.83301 -83.5 -17.5 -124.5s-28.667 -79 -51 -114
s-52.666 -63.333 -90.999 -85s-81.5 -32.5 -129.5 -32.5s-91.167 10.833 -129.5 32.5s-68.666 50 -90.999 85s-39.333 73 -51 114s-17.5 82.5 -17.5 124.5s5.83301 83.5 17.5 124.5s28.667 79 51 114s52.666 63.333 90.999 85s81.5 32.5 129.5 32.5
s91.167 -10.833 129.5 -32.5s68.666 -50 90.999 -85s39.333 -73 51 -114s17.5 -82.5 17.5 -124.5zM156.999 345.002c0 -118.667 14.5 -202.167 43.5 -250.5s71.5 -72.5 127.5 -72.5s98.5 24.167 127.5 72.5s43.5 131.833 43.5 250.5s-14.5 202.167 -43.5 250.5
s-71.5 72.5 -127.5 72.5s-98.5 -24.167 -127.5 -72.5s-43.5 -131.833 -43.5 -250.5z" />
    <glyph glyph-name="Oacute" unicode="&#xd3;" horiz-adv-x="656" 
d="M285 740l75 102.999c13.333 18 33 27 59 27h75c12 0 19.833 -1.66699 23.5 -5s3.66699 -7.66602 0 -12.999s-10.5 -11 -20.5 -17l-182 -95h-30zM617 344.999c0 -42 -5.83301 -83.5 -17.5 -124.5s-28.667 -79 -51 -114s-52.666 -63.333 -90.999 -85
s-81.5 -32.5 -129.5 -32.5s-91.167 10.833 -129.5 32.5s-68.666 50 -90.999 85s-39.333 73 -51 114s-17.5 82.5 -17.5 124.5s5.83301 83.5 17.5 124.5s28.667 79 51 114s52.666 63.333 90.999 85s81.5 32.5 129.5 32.5s91.167 -10.833 129.5 -32.5s68.666 -50 90.999 -85
s39.333 -73 51 -114s17.5 -82.5 17.5 -124.5zM157 344.999c0 -118.667 14.5 -202.167 43.5 -250.5s71.5 -72.5 127.5 -72.5s98.5 24.167 127.5 72.5s43.5 131.833 43.5 250.5s-14.5 202.167 -43.5 250.5s-71.5 72.5 -127.5 72.5s-98.5 -24.167 -127.5 -72.5
s-43.5 -131.833 -43.5 -250.5z" />
    <glyph glyph-name="Ocircumflex" unicode="&#xd4;" horiz-adv-x="656" 
d="M210 735h-32l138 172h27l133 -172h-27l-120 75zM617 345c0 -42 -5.83301 -83.5 -17.5 -124.5s-28.667 -79 -51 -114s-52.666 -63.333 -90.999 -85s-81.5 -32.5 -129.5 -32.5s-91.167 10.833 -129.5 32.5s-68.666 50 -90.999 85s-39.333 73 -51 114
s-17.5 82.5 -17.5 124.5s5.83301 83.5 17.5 124.5s28.667 79 51 114s52.666 63.333 90.999 85s81.5 32.5 129.5 32.5s91.167 -10.833 129.5 -32.5s68.666 -50 90.999 -85s39.333 -73 51 -114s17.5 -82.5 17.5 -124.5zM157 345c0 -118.667 14.5 -202.167 43.5 -250.5
s71.5 -72.5 127.5 -72.5s98.5 24.167 127.5 72.5s43.5 131.833 43.5 250.5s-14.5 202.167 -43.5 250.5s-71.5 72.5 -127.5 72.5s-98.5 -24.167 -127.5 -72.5s-43.5 -131.833 -43.5 -250.5z" />
    <glyph glyph-name="Otilde" unicode="&#xd5;" horiz-adv-x="656" 
d="M485 885c0 -84.667 -31 -127 -93 -127c-22 0 -42.833 6.33301 -62.5 19s-37.667 25.167 -54 37.5s-31.833 18.5 -46.5 18.5c-31.333 0 -47 -23 -47 -69h-25c0 84.667 30 127 90 127c25.333 0 48 -6.16699 68 -18.5s38 -24.5 54 -36.5s31.667 -18 47 -18
c29.333 0 44 22.333 44 67h25zM617 345c0 -42 -5.83301 -83.5 -17.5 -124.5s-28.667 -79 -51 -114s-52.666 -63.333 -90.999 -85s-81.5 -32.5 -129.5 -32.5s-91.167 10.833 -129.5 32.5s-68.666 50 -90.999 85s-39.333 73 -51 114s-17.5 82.5 -17.5 124.5
s5.83301 83.5 17.5 124.5s28.667 79 51 114s52.666 63.333 90.999 85s81.5 32.5 129.5 32.5s91.167 -10.833 129.5 -32.5s68.666 -50 90.999 -85s39.333 -73 51 -114s17.5 -82.5 17.5 -124.5zM157 345c0 -118.667 14.5 -202.167 43.5 -250.5s71.5 -72.5 127.5 -72.5
s98.5 24.167 127.5 72.5s43.5 131.833 43.5 250.5s-14.5 202.167 -43.5 250.5s-71.5 72.5 -127.5 72.5s-98.5 -24.167 -127.5 -72.5s-43.5 -131.833 -43.5 -250.5z" />
    <glyph glyph-name="Odieresis" unicode="&#xd6;" horiz-adv-x="656" 
d="M228 756c-22.667 0 -39 7.33301 -49 22s-15 29.667 -15 45c0 16 5 31.333 15 46s26.333 22 49 22c22 0 38.167 -7.33301 48.5 -22s15.5 -30 15.5 -46c0 -15.333 -5.16699 -30.333 -15.5 -45s-26.5 -22 -48.5 -22zM420 756c-22 0 -38 7.33301 -48 22s-15 29.667 -15 45
c0 16 5 31.333 15 46s26 22 48 22s38.167 -7.33301 48.5 -22s15.5 -30 15.5 -46c0 -15.333 -5.16699 -30.333 -15.5 -45s-26.5 -22 -48.5 -22zM617 345c0 -42 -5.83301 -83.5 -17.5 -124.5s-28.667 -79 -51 -114s-52.666 -63.333 -90.999 -85s-81.5 -32.5 -129.5 -32.5
s-91.167 10.833 -129.5 32.5s-68.666 50 -90.999 85s-39.333 73 -51 114s-17.5 82.5 -17.5 124.5s5.83301 83.5 17.5 124.5s28.667 79 51 114s52.666 63.333 90.999 85s81.5 32.5 129.5 32.5s91.167 -10.833 129.5 -32.5s68.666 -50 90.999 -85s39.333 -73 51 -114
s17.5 -82.5 17.5 -124.5zM157 345c0 -118.667 14.5 -202.167 43.5 -250.5s71.5 -72.5 127.5 -72.5s98.5 24.167 127.5 72.5s43.5 131.833 43.5 250.5s-14.5 202.167 -43.5 250.5s-71.5 72.5 -127.5 72.5s-98.5 -24.167 -127.5 -72.5s-43.5 -131.833 -43.5 -250.5z" />
    <glyph glyph-name="multiply" unicode="&#xd7;" horiz-adv-x="425" 
d="M345 137l-132 140l-127 -140l-31 25l130 144l-134 142l31 27l131 -138l130 143l31 -25l-133 -147l133 -141z" />
    <glyph glyph-name="Oslash" unicode="&#xd8;" horiz-adv-x="656" 
d="M155 345c0 -89.333 9 -160 27 -212l272 467c-27.333 45.333 -69.333 68 -126 68s-99.667 -24.167 -129 -72.5s-44 -131.833 -44 -250.5zM328 22c36.667 0 67.168 9.16797 91.501 27.501s43.833 52 58.5 101s22 113.833 22 194.5c0 87.333 -8.33301 156.666 -25 207.999
l-271 -466c27.333 -43.333 68.666 -65 123.999 -65zM328.001 -10.999c-58.667 0 -109.999 16.001 -153.999 48.001l-48 -83h-48l64 111c-33.333 34 -58.833 76.167 -76.5 126.5s-26.5 101.5 -26.5 153.5c0 42 5.83301 83.5 17.5 124.5s28.667 79 51 114
s52.666 63.333 90.999 85s81.5 32.5 129.5 32.5c58.667 0 110.667 -16.667 156 -50l50 87h48l-67 -114c33.333 -34.667 58.666 -76.834 75.999 -126.501s26 -100.5 26 -152.5c0 -42 -5.83301 -83.5 -17.5 -124.5s-28.667 -79 -51 -114s-52.666 -63.333 -90.999 -85
s-81.5 -32.5 -129.5 -32.5z" />
    <glyph glyph-name="Ugrave" unicode="&#xd9;" 
d="M362 741l-183.001 94.002c-8 4 -13.333 8.66699 -16 14s-1.66699 10.166 3 14.499s12.667 6.5 24 6.5h76c12.667 0 22.334 -1.83301 29.001 -5.5s14 -10.834 22 -21.501l75 -102h-30zM545.999 232.002c0 -82.667 -15.5 -143.833 -46.5 -183.5s-83.833 -59.5 -158.5 -59.5
c-83.333 0 -143.333 20.167 -180 60.5s-55 101.5 -55 183.5v424h-82v33h283v-33h-93v-432c0 -65.333 10.5 -115.333 31.5 -150s58.5 -52 112.5 -52c55.333 0 93.5 17.333 114.5 52s31.5 86 31.5 154v428h-93v33h217v-33h-82v-425z" />
    <glyph glyph-name="Uacute" unicode="&#xda;" 
d="M323 740l75 102.999c13.333 18 33 27 59 27h75c12 0 19.833 -1.66699 23.5 -5s3.66699 -7.66602 0 -12.999s-10.5 -11 -20.5 -17l-182 -95h-30zM546 231.999c0 -82.667 -15.5 -143.833 -46.5 -183.5s-83.833 -59.5 -158.5 -59.5c-83.333 0 -143.333 20.167 -180 60.5
s-55 101.5 -55 183.5v424h-82v33h283v-33h-93v-432c0 -65.333 10.5 -115.333 31.5 -150s58.5 -52 112.5 -52c55.333 0 93.5 17.333 114.5 52s31.5 86 31.5 154v428h-93v33h217v-33h-82v-425z" />
    <glyph glyph-name="Ucircumflex" unicode="&#xdb;" 
d="M231 737h-32l138 172h27l133 -172h-27l-120 75zM546 232c0 -82.667 -15.5 -143.833 -46.5 -183.5s-83.833 -59.5 -158.5 -59.5c-83.333 0 -143.333 20.167 -180 60.5s-55 101.5 -55 183.5v424h-82v33h283v-33h-93v-432c0 -65.333 10.5 -115.333 31.5 -150
s58.5 -52 112.5 -52c55.333 0 93.5 17.333 114.5 52s31.5 86 31.5 154v428h-93v33h217v-33h-82v-425z" />
    <glyph glyph-name="Udieresis" unicode="&#xdc;" 
d="M255 756c-22.667 0 -39 7.33301 -49 22s-15 29.667 -15 45c0 16 5 31.333 15 46s26.333 22 49 22c22 0 38.167 -7.33301 48.5 -22s15.5 -30 15.5 -46c0 -15.333 -5.16699 -30.333 -15.5 -45s-26.5 -22 -48.5 -22zM447 756c-22 0 -38 7.33301 -48 22s-15 29.667 -15 45
c0 16 5 31.333 15 46s26 22 48 22s38.167 -7.33301 48.5 -22s15.5 -30 15.5 -46c0 -15.333 -5.16699 -30.333 -15.5 -45s-26.5 -22 -48.5 -22zM546 232c0 -82.667 -15.5 -143.833 -46.5 -183.5s-83.833 -59.5 -158.5 -59.5c-83.333 0 -143.333 20.167 -180 60.5
s-55 101.5 -55 183.5v424h-82v33h283v-33h-93v-432c0 -65.333 10.5 -115.333 31.5 -150s58.5 -52 112.5 -52c55.333 0 93.5 17.333 114.5 52s31.5 86 31.5 154v428h-93v33h217v-33h-82v-425z" />
    <glyph glyph-name="Yacute" unicode="&#xdd;" horiz-adv-x="603" 
d="M291 740l75 102.999c13.333 18 33 27 59 27h75c12 0 19.833 -1.66699 23.5 -5s3.66699 -7.66602 0 -12.999s-10.5 -11 -20.5 -17l-182 -95h-30zM169 -0.000976562v33h87v281l-181 343h-70v33h286v-33h-105l155 -293l146 293h-87v33h198v-33h-68l-166 -334v-290h88v-33
h-283z" />
    <glyph glyph-name="germandbls" unicode="&#xdf;" horiz-adv-x="580" 
d="M356 -11c-38 0 -63.667 3.66797 -77 11.001v34c10 -7.33301 28.667 -11 56 -11c70.667 0 106 44.333 106 133c0 26 -4.83301 48.5 -14.5 67.5s-21.167 34.5 -34.5 46.5s-26.833 23.333 -40.5 34s-25.334 23.834 -35.001 39.501s-14.5 33.5 -14.5 53.5
c0 17.333 4.5 34.166 13.5 50.499s19 30.5 30 42.5s21 29.833 30 53.5s13.5 50.834 13.5 81.501c0 71.333 -25.667 107 -77 107c-10 0 -19 -1.16699 -27 -3.5s-14.667 -6.5 -20 -12.5s-10 -11.833 -14 -17.5s-7.33301 -14.334 -10 -26.001s-4.66699 -21.334 -6 -29.001
s-2.33301 -19.5 -3 -35.5s-1 -28.333 -1 -37v-41v-12v-518h-198v33h95v434h-95v33h95v20c0 73.333 15.333 132.5 46 177.5s78.334 67.5 143.001 67.5c52.667 0 96.334 -14 131.001 -42s52 -60.667 52 -98c0 -23.333 -5.33301 -45.166 -16 -65.499
s-23.667 -37.166 -39 -50.499s-30.5 -25.833 -45.5 -37.5s-27.833 -23.834 -38.5 -36.501s-16 -25.334 -16 -38.001c0 -14.667 7.16699 -28.167 21.5 -40.5s31.833 -23.833 52.5 -34.5s41.167 -22.5 61.5 -35.5s37.666 -30.5 51.999 -52.5s21.5 -47 21.5 -75
c0 -49.333 -18 -90 -54 -122s-84 -48 -144 -48z" />
    <glyph glyph-name="agrave" unicode="&#xe0;" horiz-adv-x="554" 
d="M280 590l-181.998 123c-12.667 8 -18.334 15.833 -17.001 23.5s10.666 11.5 27.999 11.5h66c23.333 0 40.333 -9 51 -27l84 -131h-30zM441.002 -11c-65.333 0 -100.002 39.001 -104.002 117.001c-10.667 -34.667 -29.667 -62.834 -57 -84.501
s-61.666 -32.5 -102.999 -32.5c-40.667 0 -73.5 9.33301 -98.5 28s-37.5 47.667 -37.5 87c0 36.667 16.333 67.5 49 92.5s88.334 47.833 167.001 68.5l72 19v70c0 80 -35 120 -105 120c-38.667 0 -70.334 -11.667 -95.001 -35c35.333 -10 53 -32 53 -66
c0 -18.667 -5.33301 -34 -16 -46s-27 -18 -49 -18c-21.333 0 -37.333 6 -48 18s-16 27.333 -16 46c0 37.333 19.167 70 57.5 98s85.833 42 142.5 42c119.333 0 179 -49.667 179 -149v-279c0 -34 11.333 -51 34 -51c33.333 0 50 39.333 50 118h30
c0 -57.333 -8.16699 -98.833 -24.5 -124.5s-43.166 -38.5 -80.499 -38.5zM218 45.001c34.667 0 61.833 14.167 81.5 42.5s29.5 70.166 29.5 125.499v41l-61 -18c-46 -13.333 -77.5 -29.166 -94.5 -47.499s-25.5 -41.166 -25.5 -68.499c0 -26.667 6.66699 -45.834 20 -57.501
s30 -17.5 50 -17.5z" />
    <glyph glyph-name="aacute" unicode="&#xe1;" horiz-adv-x="554" 
d="M224 590l102 130.999c13.333 18 33 27 59 27h66c12 0 19.833 -1.66699 23.5 -5s3.66699 -7.66602 0 -12.999s-10.5 -11 -20.5 -17l-200 -123h-30zM441 -11.001c-65.333 0 -100.002 39.001 -104.002 117.001c-10.667 -34.667 -29.667 -62.834 -57 -84.501
s-61.666 -32.5 -102.999 -32.5c-40.667 0 -73.5 9.33301 -98.5 28s-37.5 47.667 -37.5 87c0 36.667 16.333 67.5 49 92.5s88.334 47.833 167.001 68.5l72 19v70c0 80 -35 120 -105 120c-38.667 0 -70.334 -11.667 -95.001 -35c35.333 -10 53 -32 53 -66
c0 -18.667 -5.33301 -34 -16 -46s-27 -18 -49 -18c-21.333 0 -37.333 6 -48 18s-16 27.333 -16 46c0 37.333 19.167 70 57.5 98s85.833 42 142.5 42c119.333 0 179 -49.667 179 -149v-279c0 -34 11.333 -51 34 -51c33.333 0 50 39.333 50 118h30
c0 -57.333 -8.16699 -98.833 -24.5 -124.5s-43.166 -38.5 -80.499 -38.5zM217.998 45c34.667 0 61.833 14.167 81.5 42.5s29.5 70.166 29.5 125.499v41l-61 -18c-46 -13.333 -77.5 -29.166 -94.5 -47.499s-25.5 -41.166 -25.5 -68.499c0 -26.667 6.66699 -45.834 20 -57.501
s30 -17.5 50 -17.5z" />
    <glyph glyph-name="acircumflex" unicode="&#xe2;" horiz-adv-x="554" 
d="M147 581h-32l138 172h27l133 -172h-27l-120 75zM441 -11c-65.333 0 -100.002 39.001 -104.002 117.001c-10.667 -34.667 -29.667 -62.834 -57 -84.501s-61.666 -32.5 -102.999 -32.5c-40.667 0 -73.5 9.33301 -98.5 28s-37.5 47.667 -37.5 87
c0 36.667 16.333 67.5 49 92.5s88.334 47.833 167.001 68.5l72 19v70c0 80 -35 120 -105 120c-38.667 0 -70.334 -11.667 -95.001 -35c35.333 -10 53 -32 53 -66c0 -18.667 -5.33301 -34 -16 -46s-27 -18 -49 -18c-21.333 0 -37.333 6 -48 18s-16 27.333 -16 46
c0 37.333 19.167 70 57.5 98s85.833 42 142.5 42c119.333 0 179 -49.667 179 -149v-279c0 -34 11.333 -51 34 -51c33.333 0 50 39.333 50 118h30c0 -57.333 -8.16699 -98.833 -24.5 -124.5s-43.166 -38.5 -80.499 -38.5zM217.998 45.001c34.667 0 61.833 14.167 81.5 42.5
s29.5 70.166 29.5 125.499v41l-61 -18c-46 -13.333 -77.5 -29.166 -94.5 -47.499s-25.5 -41.166 -25.5 -68.499c0 -26.667 6.66699 -45.834 20 -57.501s30 -17.5 50 -17.5z" />
    <glyph glyph-name="atilde" unicode="&#xe3;" horiz-adv-x="554" 
d="M428 760c0 -84.667 -31.002 -127.002 -93.002 -127.002c-17.333 0 -34.166 3.83301 -50.499 11.5s-29.666 16.334 -39.999 26.001s-22 18.334 -35 26.001s-25.5 11.5 -37.5 11.5c-31.333 0 -47 -23 -47 -69h-25c0 84.667 30 127 90 127c20 0 38.667 -3.83301 56 -11.5
s30.833 -16 40.5 -25s21 -17.333 34 -25s25.833 -11.5 38.5 -11.5c29.333 0 44 22.333 44 67h25zM440.998 -11.002c-65.333 0 -100.002 39.001 -104.002 117.001c-10.667 -34.667 -29.667 -62.834 -57 -84.501s-61.666 -32.5 -102.999 -32.5
c-40.667 0 -73.5 9.33301 -98.5 28s-37.5 47.667 -37.5 87c0 36.667 16.333 67.5 49 92.5s88.334 47.833 167.001 68.5l72 19v70c0 80 -35 120 -105 120c-38.667 0 -70.334 -11.667 -95.001 -35c35.333 -10 53 -32 53 -66c0 -18.667 -5.33301 -34 -16 -46s-27 -18 -49 -18
c-21.333 0 -37.333 6 -48 18s-16 27.333 -16 46c0 37.333 19.167 70 57.5 98s85.833 42 142.5 42c119.333 0 179 -49.667 179 -149v-279c0 -34 11.333 -51 34 -51c33.333 0 50 39.333 50 118h30c0 -57.333 -8.16699 -98.833 -24.5 -124.5s-43.166 -38.5 -80.499 -38.5z
M217.996 44.999c34.667 0 61.833 14.167 81.5 42.5s29.5 70.166 29.5 125.499v41l-61 -18c-46 -13.333 -77.5 -29.166 -94.5 -47.499s-25.5 -41.166 -25.5 -68.499c0 -26.667 6.66699 -45.834 20 -57.501s30 -17.5 50 -17.5z" />
    <glyph glyph-name="adieresis" unicode="&#xe4;" horiz-adv-x="554" 
d="M173 631c-22.667 0 -39 7.33301 -49 22s-15 29.667 -15 45c0 16 5 31.333 15 46s26.333 22 49 22c22 0 38.167 -7.33301 48.5 -22s15.5 -30 15.5 -46c0 -15.333 -5.16699 -30.333 -15.5 -45s-26.5 -22 -48.5 -22zM365 631c-22 0 -38 7.33301 -48 22s-15 29.667 -15 45
c0 16 5 31.333 15 46s26 22 48 22s38.167 -7.33301 48.5 -22s15.5 -30 15.5 -46c0 -15.333 -5.16699 -30.333 -15.5 -45s-26.5 -22 -48.5 -22zM441 -11c-65.333 0 -100.002 39.001 -104.002 117.001c-10.667 -34.667 -29.667 -62.834 -57 -84.501
s-61.666 -32.5 -102.999 -32.5c-40.667 0 -73.5 9.33301 -98.5 28s-37.5 47.667 -37.5 87c0 36.667 16.333 67.5 49 92.5s88.334 47.833 167.001 68.5l72 19v70c0 80 -35 120 -105 120c-38.667 0 -70.334 -11.667 -95.001 -35c35.333 -10 53 -32 53 -66
c0 -18.667 -5.33301 -34 -16 -46s-27 -18 -49 -18c-21.333 0 -37.333 6 -48 18s-16 27.333 -16 46c0 37.333 19.167 70 57.5 98s85.833 42 142.5 42c119.333 0 179 -49.667 179 -149v-279c0 -34 11.333 -51 34 -51c33.333 0 50 39.333 50 118h30
c0 -57.333 -8.16699 -98.833 -24.5 -124.5s-43.166 -38.5 -80.499 -38.5zM217.998 45.001c34.667 0 61.833 14.167 81.5 42.5s29.5 70.166 29.5 125.499v41l-61 -18c-46 -13.333 -77.5 -29.166 -94.5 -47.499s-25.5 -41.166 -25.5 -68.499
c0 -26.667 6.66699 -45.834 20 -57.501s30 -17.5 50 -17.5z" />
    <glyph glyph-name="aring" unicode="&#xe5;" horiz-adv-x="554" 
d="M347 681c0 -19.333 -6.83301 -38.166 -20.5 -56.499s-35.5 -27.5 -65.5 -27.5c-30.667 0 -52.667 9.16699 -66 27.5s-20 37.166 -20 56.499c0 20 6.66699 39.167 20 57.5s35.333 27.5 66 27.5c30 0 51.833 -9.16699 65.5 -27.5s20.5 -37.5 20.5 -57.5zM220 681
c0 -30 14 -45 42 -45c15.333 0 26.333 5 33 15s10 20 10 30s-3.33301 19.833 -10 29.5s-17.667 14.5 -33 14.5c-28 0 -42 -14.667 -42 -44zM441 -11c-65.333 0 -100.002 39.001 -104.002 117.001c-10.667 -34.667 -29.667 -62.834 -57 -84.501s-61.666 -32.5 -102.999 -32.5
c-40.667 0 -73.5 9.33301 -98.5 28s-37.5 47.667 -37.5 87c0 36.667 16.333 67.5 49 92.5s88.334 47.833 167.001 68.5l72 19v70c0 80 -35 120 -105 120c-38.667 0 -70.334 -11.667 -95.001 -35c35.333 -10 53 -32 53 -66c0 -18.667 -5.33301 -34 -16 -46s-27 -18 -49 -18
c-21.333 0 -37.333 6 -48 18s-16 27.333 -16 46c0 37.333 19.167 70 57.5 98s85.833 42 142.5 42c119.333 0 179 -49.667 179 -149v-279c0 -34 11.333 -51 34 -51c33.333 0 50 39.333 50 118h30c0 -57.333 -8.16699 -98.833 -24.5 -124.5s-43.166 -38.5 -80.499 -38.5z
M217.998 45.001c34.667 0 61.833 14.167 81.5 42.5s29.5 70.166 29.5 125.499v41l-61 -18c-46 -13.333 -77.5 -29.166 -94.5 -47.499s-25.5 -41.166 -25.5 -68.499c0 -26.667 6.66699 -45.834 20 -57.501s30 -17.5 50 -17.5z" />
    <glyph glyph-name="ae" unicode="&#xe6;" horiz-adv-x="811" 
d="M763 146c-11.333 -48.667 -33.168 -87.001 -65.501 -115.001s-72.166 -42 -119.499 -42c-42 0 -80.167 9.5 -114.5 28.5s-61.5 46.833 -81.5 83.5c-31.333 -74.667 -94.333 -112 -189 -112c-47.333 0 -84.5 10.833 -111.5 32.5s-40.5 54.834 -40.5 99.501
c0 48 19.833 86.833 59.5 116.5s99.5 44.5 179.5 44.5h67v55c0 91.333 -38.333 137 -115 137c-44 0 -77.667 -11.667 -101 -35c34 -10 51 -32 51 -66c0 -19.333 -5.33301 -34.833 -16 -46.5s-27 -17.5 -49 -17.5c-21.333 0 -37.333 5.83301 -48 17.5s-16 27.167 -16 46.5
c0 37.333 19.5 70 58.5 98s87.833 42 146.5 42c77.333 0 129 -26 155 -78c38.667 52 90.334 78 155.001 78c65.333 0 115.333 -22.667 150 -68s52 -101.333 52 -168c0 -6 -0.666992 -14.333 -2 -25h-314c0 -78 9.66699 -135.333 29 -172s53.666 -55 102.999 -55
c42 0 73.833 11 95.5 33s38.5 53.667 50.5 95zM565.998 478.999c-37.333 0 -64.668 -15.3311 -82.001 -45.998s-27.333 -80.334 -30 -149.001h211c0.666992 63.333 -6.16602 111.666 -20.499 144.999s-40.5 50 -78.5 50zM237.996 45.001c26.667 0 51.333 8.66797 74 26.001
s39 43.666 49 78.999c-9.33301 28 -14 61.333 -14 100l-60 -1c-92.667 -2 -139 -39 -139 -111c0 -62 30 -93 90 -93z" />
    <glyph glyph-name="ccedilla" unicode="&#xe7;" horiz-adv-x="490" 
d="M274 -206c-54.667 0 -91.334 15.332 -110.001 45.999l17 15c14 -17.333 35.667 -26 65 -26c36.667 0 55 14.667 55 44c0 32.667 -28 49 -84 49l-4 11l37 57c-61.333 6 -110.666 31.333 -147.999 76s-56 105.334 -56 182.001c0 84 22.5 149.167 67.5 195.5
s101.5 69.5 169.5 69.5c48.667 0 88.667 -13.167 120 -39.5s47 -62.5 47 -108.5c0 -20.667 -5.5 -37.167 -16.5 -49.5s-26.5 -18.5 -46.5 -18.5c-22 0 -38.667 5.83301 -50 17.5s-17 27.167 -17 46.5c0 38.667 23.333 61.667 70 69c-16 33.333 -50 50 -102 50
c-48.667 0 -83.167 -19.667 -103.5 -59s-30.5 -97 -30.5 -173c0 -68.667 10.667 -123 32 -163s53.333 -60 96 -60c37.333 0 67.5 10.333 90.5 31s40.5 53 52.5 97l32 -7c-10.667 -48 -30.5 -85.667 -59.5 -113s-66.5 -42 -112.5 -44l-26 -39
c30.667 0 58.167 -6.83301 82.5 -20.5s36.5 -34.167 36.5 -61.5c0 -24.667 -9.5 -43.167 -28.5 -55.5s-44.167 -18.5 -75.5 -18.5z" />
    <glyph glyph-name="egrave" unicode="&#xe8;" horiz-adv-x="519" 
d="M269 590l-181.998 123c-12.667 8 -18.334 15.833 -17.001 23.5s10.666 11.5 27.999 11.5h66c23.333 0 40.333 -9 51 -27l84 -131h-30zM282.002 -11c-66.667 0 -122.667 23.333 -168 70s-68 111.334 -68 194.001c0 79.333 21.833 142.5 65.5 189.5s97.167 70.5 160.5 70.5
c66 0 116.833 -21.5 152.5 -64.5s53.5 -97.167 53.5 -162.5c0 -6.66699 -0.666992 -15.334 -2 -26.001h-322v-11c0 -76 10.167 -132.333 30.5 -169s55.5 -55 105.5 -55c42 0 74.5 11.167 97.5 33.5s40.833 53.833 53.5 94.5l31 -7c-11.333 -48.667 -33.833 -87 -67.5 -115
s-74.5 -42 -122.5 -42zM270.002 479c-37.333 0 -65.168 -14.8311 -83.501 -44.498s-28.833 -76.834 -31.5 -141.501h218c0.666992 61.333 -6.66602 107.666 -21.999 138.999s-42.333 47 -81 47z" />
    <glyph glyph-name="eacute" unicode="&#xe9;" horiz-adv-x="519" 
d="M229 590l102 130.999c13.333 18 33 27 59 27h66c12 0 19.833 -1.66699 23.5 -5s3.66699 -7.66602 0 -12.999s-10.5 -11 -20.5 -17l-200 -123h-30zM282 -11.001c-66.667 0 -122.667 23.333 -168 70s-68 111.334 -68 194.001c0 79.333 21.833 142.5 65.5 189.5
s97.167 70.5 160.5 70.5c66 0 116.833 -21.5 152.5 -64.5s53.5 -97.167 53.5 -162.5c0 -6.66699 -0.666992 -15.334 -2 -26.001h-322v-11c0 -76 10.167 -132.333 30.5 -169s55.5 -55 105.5 -55c42 0 74.5 11.167 97.5 33.5s40.833 53.833 53.5 94.5l31 -7
c-11.333 -48.667 -33.833 -87 -67.5 -115s-74.5 -42 -122.5 -42zM270 478.999c-37.333 0 -65.168 -14.8311 -83.501 -44.498s-28.833 -76.834 -31.5 -141.501h218c0.666992 61.333 -6.66602 107.666 -21.999 138.999s-42.333 47 -81 47z" />
    <glyph glyph-name="ecircumflex" unicode="&#xea;" horiz-adv-x="519" 
d="M153 581h-32l138 172h27l133 -172h-27l-120 75zM282 -11c-66.667 0 -122.667 23.333 -168 70s-68 111.334 -68 194.001c0 79.333 21.833 142.5 65.5 189.5s97.167 70.5 160.5 70.5c66 0 116.833 -21.5 152.5 -64.5s53.5 -97.167 53.5 -162.5
c0 -6.66699 -0.666992 -15.334 -2 -26.001h-322v-11c0 -76 10.167 -132.333 30.5 -169s55.5 -55 105.5 -55c42 0 74.5 11.167 97.5 33.5s40.833 53.833 53.5 94.5l31 -7c-11.333 -48.667 -33.833 -87 -67.5 -115s-74.5 -42 -122.5 -42zM270 479
c-37.333 0 -65.168 -14.8311 -83.501 -44.498s-28.833 -76.834 -31.5 -141.501h218c0.666992 61.333 -6.66602 107.666 -21.999 138.999s-42.333 47 -81 47z" />
    <glyph glyph-name="edieresis" unicode="&#xeb;" horiz-adv-x="519" 
d="M173 603c-22.667 0 -39 7.33301 -49 22s-15 29.667 -15 45c0 16 5 31.333 15 46s26.333 22 49 22c22 0 38.167 -7.33301 48.5 -22s15.5 -30 15.5 -46c0 -15.333 -5.16699 -30.333 -15.5 -45s-26.5 -22 -48.5 -22zM365 603c-22 0 -38 7.33301 -48 22s-15 29.667 -15 45
c0 16 5 31.333 15 46s26 22 48 22s38.167 -7.33301 48.5 -22s15.5 -30 15.5 -46c0 -15.333 -5.16699 -30.333 -15.5 -45s-26.5 -22 -48.5 -22zM282 -11c-66.667 0 -122.667 23.333 -168 70s-68 111.334 -68 194.001c0 79.333 21.833 142.5 65.5 189.5
s97.167 70.5 160.5 70.5c66 0 116.833 -21.5 152.5 -64.5s53.5 -97.167 53.5 -162.5c0 -6.66699 -0.666992 -15.334 -2 -26.001h-322v-11c0 -76 10.167 -132.333 30.5 -169s55.5 -55 105.5 -55c42 0 74.5 11.167 97.5 33.5s40.833 53.833 53.5 94.5l31 -7
c-11.333 -48.667 -33.833 -87 -67.5 -115s-74.5 -42 -122.5 -42zM270 479c-37.333 0 -65.168 -14.8311 -83.501 -44.498s-28.833 -76.834 -31.5 -141.501h218c0.666992 61.333 -6.66602 107.666 -21.999 138.999s-42.333 47 -81 47z" />
    <glyph glyph-name="igrave" unicode="&#xec;" horiz-adv-x="327" 
d="M196 590l-181.998 123c-12.667 8 -18.334 15.833 -17.001 23.5s10.666 11.5 27.999 11.5h66c23.333 0 40.333 -9 51 -27l84 -131h-30zM295.002 0h-258v33h78v436h-78v32c64 0 105.833 0.833008 125.5 2.5s33.5 5.5 41.5 11.5l14 -9v-473h77v-33z" />
    <glyph glyph-name="iacute" unicode="&#xed;" horiz-adv-x="327" 
d="M95 590l102 130.999c13.333 18 33 27 59 27h66c12 0 19.833 -1.66699 23.5 -5s3.66699 -7.66602 0 -12.999s-10.5 -11 -20.5 -17l-200 -123h-30zM295 -0.000976562h-258v33h78v436h-78v32c64 0 105.833 0.833008 125.5 2.5s33.5 5.5 41.5 11.5l14 -9v-473h77v-33z" />
    <glyph glyph-name="icircumflex" unicode="&#xee;" horiz-adv-x="327" 
d="M45 581h-32l138 172h27l133 -172h-27l-120 75zM295 0h-258v33h78v436h-78v32c64 0 105.833 0.833008 125.5 2.5s33.5 5.5 41.5 11.5l14 -9v-473h77v-33z" />
    <glyph glyph-name="idieresis" unicode="&#xef;" horiz-adv-x="327" 
d="M55 631c-22.667 0 -39 7.33301 -49 22s-15 29.667 -15 45c0 16 5 31.333 15 46s26.333 22 49 22c22 0 38.167 -7.33301 48.5 -22s15.5 -30 15.5 -46c0 -15.333 -5.16699 -30.333 -15.5 -45s-26.5 -22 -48.5 -22zM247 631c-22 0 -38 7.33301 -48 22s-15 29.667 -15 45
c0 16 5 31.333 15 46s26 22 48 22s38.167 -7.33301 48.5 -22s15.5 -30 15.5 -46c0 -15.333 -5.16699 -30.333 -15.5 -45s-26.5 -22 -48.5 -22zM295 0h-258v33h78v436h-78v32c64 0 105.833 0.833008 125.5 2.5s33.5 5.5 41.5 11.5l14 -9v-473h77v-33z" />
    <glyph glyph-name="ntilde" unicode="&#xf1;" horiz-adv-x="650" 
d="M497 760c0 -84.667 -31.002 -127.002 -93.002 -127.002c-17.333 0 -34.166 3.83301 -50.499 11.5s-29.666 16.334 -39.999 26.001s-22 18.334 -35 26.001s-25.5 11.5 -37.5 11.5c-31.333 0 -47 -23 -47 -69h-25c0 84.667 30 127 90 127c20 0 38.667 -3.83301 56 -11.5
s30.833 -16 40.5 -25s21 -17.333 34 -25s25.833 -11.5 38.5 -11.5c29.333 0 44 22.333 44 67h25zM292.998 32.998v-33.001h-256v33h78v436h-78v32c55.333 0 92.333 0.833008 111 2.5s31.667 5.5 39 11.5l14 -9v-143c6 44.667 23.667 80.834 53 108.501s68 41.5 116 41.5
c116 0 174 -66.667 174 -200v-280h77v-33h-255v33h75v273c0 103.333 -36.667 155 -110 155c-75.333 0 -113 -58 -113 -174v-254h75z" />
    <glyph glyph-name="ograve" unicode="&#xf2;" horiz-adv-x="568" 
d="M269 590l-181.998 123c-12.667 8 -18.334 15.833 -17.001 23.5s10.666 11.5 27.999 11.5h66c23.333 0 40.333 -9 51 -27l84 -131h-30zM522.002 250c0 -78.667 -23.833 -141.832 -71.5 -189.499s-103.5 -71.5 -167.5 -71.5c-66.667 0 -122.834 23.667 -168.501 71
s-68.5 110.666 -68.5 189.999c0 80 22.833 143.833 68.5 191.5s101.834 71.5 168.501 71.5c64 0 119.833 -24.167 167.5 -72.5s71.5 -111.833 71.5 -190.5zM154.002 250.002c0 -74.667 9.66699 -131.333 29 -170s52.666 -58 99.999 -58c87.333 0 131 76 131 228
c0 152.667 -43.667 229 -131 229c-47.333 0 -80.666 -19.333 -99.999 -58s-29 -95.667 -29 -171z" />
    <glyph glyph-name="oacute" unicode="&#xf3;" horiz-adv-x="568" 
d="M252 590l102 130.999c13.333 18 33 27 59 27h66c12 0 19.833 -1.66699 23.5 -5s3.66699 -7.66602 0 -12.999s-10.5 -11 -20.5 -17l-200 -123h-30zM522 249.999c0 -78.667 -23.833 -141.832 -71.5 -189.499s-103.5 -71.5 -167.5 -71.5
c-66.667 0 -122.834 23.667 -168.501 71s-68.5 110.666 -68.5 189.999c0 80 22.833 143.833 68.5 191.5s101.834 71.5 168.501 71.5c64 0 119.833 -24.167 167.5 -72.5s71.5 -111.833 71.5 -190.5zM154 250.001c0 -74.667 9.66699 -131.333 29 -170s52.666 -58 99.999 -58
c87.333 0 131 76 131 228c0 152.667 -43.667 229 -131 229c-47.333 0 -80.666 -19.333 -99.999 -58s-29 -95.667 -29 -171z" />
    <glyph glyph-name="ocircumflex" unicode="&#xf4;" horiz-adv-x="568" 
d="M167 581h-32l138 172h27l133 -172h-27l-120 75zM522 250c0 -78.667 -23.833 -141.832 -71.5 -189.499s-103.5 -71.5 -167.5 -71.5c-66.667 0 -122.834 23.667 -168.501 71s-68.5 110.666 -68.5 189.999c0 80 22.833 143.833 68.5 191.5s101.834 71.5 168.501 71.5
c64 0 119.833 -24.167 167.5 -72.5s71.5 -111.833 71.5 -190.5zM154 250.002c0 -74.667 9.66699 -131.333 29 -170s52.666 -58 99.999 -58c87.333 0 131 76 131 228c0 152.667 -43.667 229 -131 229c-47.333 0 -80.666 -19.333 -99.999 -58s-29 -95.667 -29 -171z" />
    <glyph glyph-name="otilde" unicode="&#xf5;" horiz-adv-x="568" 
d="M446 760c0 -84.667 -31.002 -127.002 -93.002 -127.002c-17.333 0 -34.166 3.83301 -50.499 11.5s-29.666 16.334 -39.999 26.001s-22 18.334 -35 26.001s-25.5 11.5 -37.5 11.5c-31.333 0 -47 -23 -47 -69h-25c0 84.667 30 127 90 127c20 0 38.667 -3.83301 56 -11.5
s30.833 -16 40.5 -25s21 -17.333 34 -25s25.833 -11.5 38.5 -11.5c29.333 0 44 22.333 44 67h25zM521.998 249.998c0 -78.667 -23.833 -141.832 -71.5 -189.499s-103.5 -71.5 -167.5 -71.5c-66.667 0 -122.834 23.667 -168.501 71s-68.5 110.666 -68.5 189.999
c0 80 22.833 143.833 68.5 191.5s101.834 71.5 168.501 71.5c64 0 119.833 -24.167 167.5 -72.5s71.5 -111.833 71.5 -190.5zM153.998 250c0 -74.667 9.66699 -131.333 29 -170s52.666 -58 99.999 -58c87.333 0 131 76 131 228c0 152.667 -43.667 229 -131 229
c-47.333 0 -80.666 -19.333 -99.999 -58s-29 -95.667 -29 -171z" />
    <glyph glyph-name="odieresis" unicode="&#xf6;" horiz-adv-x="568" 
d="M181 631c-22.667 0 -39 7.33301 -49 22s-15 29.667 -15 45c0 16 5 31.333 15 46s26.333 22 49 22c22 0 38.167 -7.33301 48.5 -22s15.5 -30 15.5 -46c0 -15.333 -5.16699 -30.333 -15.5 -45s-26.5 -22 -48.5 -22zM373 631c-22 0 -38 7.33301 -48 22s-15 29.667 -15 45
c0 16 5 31.333 15 46s26 22 48 22s38.167 -7.33301 48.5 -22s15.5 -30 15.5 -46c0 -15.333 -5.16699 -30.333 -15.5 -45s-26.5 -22 -48.5 -22zM522 250c0 -78.667 -23.833 -141.832 -71.5 -189.499s-103.5 -71.5 -167.5 -71.5c-66.667 0 -122.834 23.667 -168.501 71
s-68.5 110.666 -68.5 189.999c0 80 22.833 143.833 68.5 191.5s101.834 71.5 168.501 71.5c64 0 119.833 -24.167 167.5 -72.5s71.5 -111.833 71.5 -190.5zM154 250.002c0 -74.667 9.66699 -131.333 29 -170s52.666 -58 99.999 -58c87.333 0 131 76 131 228
c0 152.667 -43.667 229 -131 229c-47.333 0 -80.666 -19.333 -99.999 -58s-29 -95.667 -29 -171z" />
    <glyph glyph-name="divide" unicode="&#xf7;" horiz-adv-x="516" 
d="M315 490c0 -13.333 -4.33301 -25.833 -13 -37.5s-23 -17.5 -43 -17.5s-34.333 5.83301 -43 17.5s-13 24.167 -13 37.5c0 14 4.16699 27 12.5 39s22.833 18 43.5 18c20 0 34.333 -6 43 -18s13 -25 13 -39zM45 292v35h426v-35h-426zM315 128
c0 -13.333 -4.33301 -26 -13 -38s-23 -18 -43 -18c-20.667 0 -35.167 5.83301 -43.5 17.5s-12.5 24.5 -12.5 38.5s4.16699 26.833 12.5 38.5s22.833 17.5 43.5 17.5c20 0 34.333 -6 43 -18s13 -24.667 13 -38z" />
    <glyph glyph-name="oslash" unicode="&#xf8;" horiz-adv-x="568" 
d="M153 250c0 -64 6.33301 -112.667 19 -146l201 330c-22 30 -52 45 -90 45c-47.333 0 -80.833 -19.333 -100.5 -58s-29.5 -95.667 -29.5 -171zM283 22c88 0 132 76 132 228c0 59.333 -7 108 -21 146l-202 -332c20.667 -28 51 -42 91 -42zM283 -11
c-42.667 0 -82.001 10.334 -118.001 31.001l-40 -66h-44l53 87c-58.667 50 -88 119.667 -88 209c0 80 22.833 143.833 68.5 191.5s101.834 71.5 168.501 71.5c42.667 0 82 -11 118 -33l38 63h44l-51 -85c60 -50.667 90 -120 90 -208
c0 -78.667 -23.833 -141.834 -71.5 -189.501s-103.5 -71.5 -167.5 -71.5z" />
    <glyph glyph-name="ugrave" unicode="&#xf9;" horiz-adv-x="612" 
d="M318 590l-181.998 123c-12.667 8 -18.334 15.833 -17.001 23.5s10.666 11.5 27.999 11.5h66c23.333 0 40.333 -9 51 -27l84 -131h-30zM429.002 -5l-0.00292969 136c-13.333 -94.667 -66.666 -142 -159.999 -142c-55.333 0 -96.666 15.667 -123.999 47s-41 82 -41 152v281
h-87v32c65.333 0 109 0.833008 131 2.5s37 5.5 45 11.5l13 -9v-311c0 -55.333 8.33301 -95 25 -119s42.334 -36 77.001 -36c69.333 0 104 58 104 174v255h-122v32c81.333 0 134.833 0.833008 160.5 2.5s42.5 5.5 50.5 11.5l14 -9v-473h78v-33
c-66.667 -0 -116.667 -4.66699 -150 -14z" />
    <glyph glyph-name="uacute" unicode="&#xfa;" horiz-adv-x="612" 
d="M282 590l102 130.999c13.333 18 33 27 59 27h66c12 0 19.833 -1.66699 23.5 -5s3.66699 -7.66602 0 -12.999s-10.5 -11 -20.5 -17l-200 -123h-30zM429 -5.00098l-0.00292969 136c-13.333 -94.667 -66.666 -142 -159.999 -142c-55.333 0 -96.666 15.667 -123.999 47
s-41 82 -41 152v281h-87v32c65.333 0 109 0.833008 131 2.5s37 5.5 45 11.5l13 -9v-311c0 -55.333 8.33301 -95 25 -119s42.334 -36 77.001 -36c69.333 0 104 58 104 174v255h-122v32c81.333 0 134.833 0.833008 160.5 2.5s42.5 5.5 50.5 11.5l14 -9v-473h78v-33
c-66.667 0 -116.667 -4.66699 -150 -14z" />
    <glyph glyph-name="ucircumflex" unicode="&#xfb;" horiz-adv-x="612" 
d="M186 581h-32l138 172h27l133 -172h-27l-120 75zM429 -5l-0.00292969 136c-13.333 -94.667 -66.666 -142 -159.999 -142c-55.333 0 -96.666 15.667 -123.999 47s-41 82 -41 152v281h-87v32c65.333 0 109 0.833008 131 2.5s37 5.5 45 11.5l13 -9v-311
c0 -55.333 8.33301 -95 25 -119s42.334 -36 77.001 -36c69.333 0 104 58 104 174v255h-122v32c81.333 0 134.833 0.833008 160.5 2.5s42.5 5.5 50.5 11.5l14 -9v-473h78v-33c-66.667 -0 -116.667 -4.66699 -150 -14z" />
    <glyph glyph-name="udieresis" unicode="&#xfc;" horiz-adv-x="612" 
d="M212 631c-22.667 0 -39 7.33301 -49 22s-15 29.667 -15 45c0 16 5 31.333 15 46s26.333 22 49 22c22 0 38.167 -7.33301 48.5 -22s15.5 -30 15.5 -46c0 -15.333 -5.16699 -30.333 -15.5 -45s-26.5 -22 -48.5 -22zM404 631c-22 0 -38 7.33301 -48 22s-15 29.667 -15 45
c0 16 5 31.333 15 46s26 22 48 22s38.167 -7.33301 48.5 -22s15.5 -30 15.5 -46c0 -15.333 -5.16699 -30.333 -15.5 -45s-26.5 -22 -48.5 -22zM429 -5l-0.00292969 136c-13.333 -94.667 -66.666 -142 -159.999 -142c-55.333 0 -96.666 15.667 -123.999 47s-41 82 -41 152
v281h-87v32c65.333 0 109 0.833008 131 2.5s37 5.5 45 11.5l13 -9v-311c0 -55.333 8.33301 -95 25 -119s42.334 -36 77.001 -36c69.333 0 104 58 104 174v255h-122v32c81.333 0 134.833 0.833008 160.5 2.5s42.5 5.5 50.5 11.5l14 -9v-473h78v-33
c-66.667 -0 -116.667 -4.66699 -150 -14z" />
    <glyph glyph-name="yacute" unicode="&#xfd;" horiz-adv-x="533" 
d="M248 600l102 130.999c13.333 18 33 27 59 27h66c12 0 19.833 -1.66699 23.5 -5s3.66699 -7.66602 0 -12.999s-10.5 -11 -20.5 -17l-200 -123h-30zM122 -260.001c-29.333 0 -53.834 9.66699 -73.501 29s-29.5 46 -29.5 80c0 22 6 39.833 18 53.5s28.333 20.5 49 20.5
s35.834 -5.83301 45.501 -17.5s14.5 -26.5 14.5 -44.5c0 -18.667 -6 -33.667 -18 -45s-30 -17.333 -54 -18c9.33301 -15.333 25.333 -23 48 -23c24.667 0 45.667 13.5 63 40.5s39 77.167 65 150.5l11 31l-194 472h-74v32h265v-32h-89l137 -338l125 338h-77v32h186v-32h-65
l-176 -484c-34 -94.667 -62.5 -159.167 -85.5 -193.5s-53.5 -51.5 -91.5 -51.5z" />
    <glyph glyph-name="ydieresis" unicode="&#xff;" horiz-adv-x="533" 
d="M200 631c-22.667 0 -39 7.33301 -49 22s-15 29.667 -15 45c0 16 5 31.333 15 46s26.333 22 49 22c22 0 38.167 -7.33301 48.5 -22s15.5 -30 15.5 -46c0 -15.333 -5.16699 -30.333 -15.5 -45s-26.5 -22 -48.5 -22zM392 631c-22 0 -38 7.33301 -48 22s-15 29.667 -15 45
c0 16 5 31.333 15 46s26 22 48 22s38.167 -7.33301 48.5 -22s15.5 -30 15.5 -46c0 -15.333 -5.16699 -30.333 -15.5 -45s-26.5 -22 -48.5 -22zM122 -260c-29.333 0 -53.834 9.66699 -73.501 29s-29.5 46 -29.5 80c0 22 6 39.833 18 53.5s28.333 20.5 49 20.5
s35.834 -5.83301 45.501 -17.5s14.5 -26.5 14.5 -44.5c0 -18.667 -6 -33.667 -18 -45s-30 -17.333 -54 -18c9.33301 -15.333 25.333 -23 48 -23c24.667 0 45.667 13.5 63 40.5s39 77.167 65 150.5l11 31l-194 472h-74v32h265v-32h-89l137 -338l125 338h-77v32h186v-32h-65
l-176 -484c-34 -94.667 -62.5 -159.167 -85.5 -193.5s-53.5 -51.5 -91.5 -51.5z" />
    <glyph glyph-name="Amacron" unicode="&#x100;" horiz-adv-x="600" 
d="M172 796v47h244v-47h-244zM356 254l-95 281l-95 -281h190zM-12 0v33h64l229 667h36l227 -667h69v-33h-301v33h119l-64 188h-212l-64 -188h116v-33h-219z" />
    <glyph glyph-name="amacron" unicode="&#x101;" horiz-adv-x="554" 
d="M141 672v47h244v-47h-244zM441 -11c-65.333 0 -100.002 39.001 -104.002 117.001c-10.667 -34.667 -29.667 -62.834 -57 -84.501s-61.666 -32.5 -102.999 -32.5c-40.667 0 -73.5 9.33301 -98.5 28s-37.5 47.667 -37.5 87c0 36.667 16.333 67.5 49 92.5
s88.334 47.833 167.001 68.5l72 19v70c0 80 -35 120 -105 120c-38.667 0 -70.334 -11.667 -95.001 -35c35.333 -10 53 -32 53 -66c0 -18.667 -5.33301 -34 -16 -46s-27 -18 -49 -18c-21.333 0 -37.333 6 -48 18s-16 27.333 -16 46c0 37.333 19.167 70 57.5 98
s85.833 42 142.5 42c119.333 0 179 -49.667 179 -149v-279c0 -34 11.333 -51 34 -51c33.333 0 50 39.333 50 118h30c0 -57.333 -8.16699 -98.833 -24.5 -124.5s-43.166 -38.5 -80.499 -38.5zM217.998 45.001c34.667 0 61.833 14.167 81.5 42.5s29.5 70.166 29.5 125.499v41
l-61 -18c-46 -13.333 -77.5 -29.166 -94.5 -47.499s-25.5 -41.166 -25.5 -68.499c0 -26.667 6.66699 -45.834 20 -57.501s30 -17.5 50 -17.5z" />
    <glyph glyph-name="Aogonek" unicode="&#x104;" horiz-adv-x="600" 
d="M594 -137c-32 0 -57.833 5.83301 -77.5 17.5s-29.5 29.5 -29.5 53.5c0 33.333 20.333 55.333 61 66h-236v33h119l-64 188h-212l-64 -188h116v-33h-219v33h64l229 667h36l227 -667h69v-33c-16.667 0 -30.5 -4.83301 -41.5 -14.5s-16.5 -22.5 -16.5 -38.5
c0 -36 21.667 -54 65 -54c25.333 0 43 6.33301 53 19l13 -11c-18 -25.333 -48.667 -38 -92 -38zM356 254l-95 281l-95 -281h190z" />
    <glyph glyph-name="aogonek" unicode="&#x105;" horiz-adv-x="555" 
d="M453 -146c-70 0 -105.002 21.999 -105.002 65.999c0 38 21.667 61.667 65 71c-46.667 10.667 -72 49 -76 115c-10.667 -34.667 -29.667 -62.834 -57 -84.501s-61.666 -32.5 -102.999 -32.5c-40.667 0 -73.5 9.33301 -98.5 28s-37.5 47.667 -37.5 87
c0 36.667 16 67.334 48 92.001s88 47.667 168 69l72 19v70c0 80 -35 120 -105 120c-40 0 -72.333 -11.667 -97 -35c36.667 -10 55 -32 55 -66c0 -18.667 -5.33301 -34 -16 -46s-27 -18 -49 -18c-21.333 0 -37.333 6 -48 18s-16 27.333 -16 46c0 37.333 19.167 70 57.5 98
s85.833 42 142.5 42c119.333 0 179 -49.667 179 -149v-279c0 -34 11.333 -51 34 -51c33.333 0 50 39.333 50 118h30c0 -50 -6.16699 -87.5 -18.5 -112.5s-32.166 -40.833 -59.499 -47.5c-34.667 -7.33301 -52 -25.333 -52 -54c0 -17.333 6.16699 -30.666 18.5 -39.999
s27.833 -14 46.5 -14c23.333 0 41 7.33301 53 22l13 -11c-14.667 -27.333 -46 -41 -94 -41zM217.998 44.999c34.667 0 61.833 14.165 81.5 42.498s29.5 70.166 29.5 125.499v41l-61 -18c-46 -13.333 -77.5 -29.166 -94.5 -47.499s-25.5 -41.166 -25.5 -68.499
c0 -25.333 6.83301 -44.166 20.5 -56.499s30.167 -18.5 49.5 -18.5z" />
    <glyph glyph-name="Cacute" unicode="&#x106;" horiz-adv-x="591" 
d="M268 740l75 102.999c13.333 18 33 27 59 27h75c12 0 19.833 -1.66699 23.5 -5s3.66699 -7.66602 0 -12.999s-10.5 -11 -20.5 -17l-182 -95h-30zM473 27.999c-38 -26 -84 -39.001 -138 -39.001c-48 0 -91.333 11 -130 33s-69.834 50.667 -93.501 86
s-41.667 73.5 -54 114.5s-18.5 82.167 -18.5 123.5c0 56 11 110.5 33 163.5s56.167 98.167 102.5 135.5s99.5 56 159.5 56c56.667 0 101.334 -12.333 134.001 -37l40 36h18v-230h-33c0 131.333 -51 197 -153 197c-38 0 -69.833 -9.16699 -95.5 -27.5
s-46.667 -51.833 -63 -100.5s-24.5 -113 -24.5 -193c0 -215.333 61 -323 183 -323c55.333 0 95.5 18.333 120.5 55s37.5 85.334 37.5 146.001h33v-234h-18z" />
    <glyph glyph-name="cacute" unicode="&#x107;" horiz-adv-x="489" 
d="M231 590l102 130.999c13.333 18 33 27 59 27h66c12 0 19.833 -1.66699 23.5 -5s3.66699 -7.66602 0 -12.999s-10.5 -11 -20.5 -17l-200 -123h-30zM457 145.999c-24 -104.667 -85.001 -157 -183.001 -157c-67.333 0 -122.166 22.667 -164.499 68s-63.5 109 -63.5 191
c0 84 22.5 149.167 67.5 195.5s101.5 69.5 169.5 69.5c48.667 0 88.667 -13.167 120 -39.5s47 -62.5 47 -108.5c0 -20.667 -5.5 -37.167 -16.5 -49.5s-26.5 -18.5 -46.5 -18.5c-22 0 -38.667 5.83301 -50 17.5s-17 27.167 -17 46.5c0 38.667 23.333 61.667 70 69
c-16 33.333 -50 50 -102 50c-48.667 0 -83.167 -19.667 -103.5 -59s-30.5 -97 -30.5 -173c0 -68.667 10.667 -123 32 -163s53.333 -60 96 -60c37.333 0 67.5 10.333 90.5 31s40.5 53 52.5 97z" />
    <glyph glyph-name="Ccaron" unicode="&#x10c;" horiz-adv-x="591" 
d="M348 754h-27l-143 172h32l125 -76l114 76h27zM473 28c-38 -26 -84 -39.001 -138 -39.001c-48 0 -91.333 11 -130 33s-69.834 50.667 -93.501 86s-41.667 73.5 -54 114.5s-18.5 82.167 -18.5 123.5c0 56 11 110.5 33 163.5s56.167 98.167 102.5 135.5s99.5 56 159.5 56
c56.667 0 101.334 -12.333 134.001 -37l40 36h18v-230h-33c0 131.333 -51 197 -153 197c-38 0 -69.833 -9.16699 -95.5 -27.5s-46.667 -51.833 -63 -100.5s-24.5 -113 -24.5 -193c0 -215.333 61 -323 183 -323c55.333 0 95.5 18.333 120.5 55s37.5 85.334 37.5 146.001h33
v-234h-18z" />
    <glyph glyph-name="ccaron" unicode="&#x10d;" horiz-adv-x="489" 
d="M284 581h-27l-143 172h32l125 -76l114 76h27zM457 146c-24 -104.667 -85.001 -157 -183.001 -157c-67.333 0 -122.166 22.667 -164.499 68s-63.5 109 -63.5 191c0 84 22.5 149.167 67.5 195.5s101.5 69.5 169.5 69.5c48.667 0 88.667 -13.167 120 -39.5
s47 -62.5 47 -108.5c0 -20.667 -5.5 -37.167 -16.5 -49.5s-26.5 -18.5 -46.5 -18.5c-22 0 -38.667 5.83301 -50 17.5s-17 27.167 -17 46.5c0 38.667 23.333 61.667 70 69c-16 33.333 -50 50 -102 50c-48.667 0 -83.167 -19.667 -103.5 -59s-30.5 -97 -30.5 -173
c0 -68.667 10.667 -123 32 -163s53.333 -60 96 -60c37.333 0 67.5 10.333 90.5 31s40.5 53 52.5 97z" />
    <glyph glyph-name="Dcaron" unicode="&#x10e;" horiz-adv-x="676" 
d="M304 754h-27l-143 172h32l125 -76l114 76h27zM293 0l-250.999 -0.000976562v33h82v624h-82v33h251c52.667 0 101.167 -10.333 145.5 -31s80.666 -47.667 108.999 -81s50.333 -70.166 66 -110.499s23.5 -80.833 23.5 -121.5c0 -55.333 -13 -108.833 -39 -160.5
s-65.833 -95.5 -119.5 -131.5s-115.5 -54 -185.5 -54zM231.001 656.999l-0.00195312 -623.997h41c33.333 0 63.833 5 91.5 15s53.5 26.167 77.5 48.5s42.833 54.666 56.5 96.999s20.5 93.166 20.5 152.499s-6.83301 110.166 -20.5 152.499s-32.667 74.5 -57 96.5
s-50.166 37.833 -77.499 47.5s-57.666 14.5 -90.999 14.5h-41z" />
    <glyph glyph-name="dcaron" unicode="&#x10f;" horiz-adv-x="692" 
d="M602 498l-21 25.002c38.667 27.333 60 62.666 64 105.999c-2 0 -5.33301 -0.166992 -10 -0.5s-7.66699 -0.5 -9 -0.5c-24 0 -41.333 7.16699 -52 21.5s-16 29.166 -16 44.499c0 16 5.33301 31.333 16 46s28 22 52 22c23.333 0 40.333 -8 51 -24s16 -35.667 16 -59
c0 -82 -30.333 -142.333 -91 -181zM415 -4.99805l-0.000976562 108c-26.667 -76 -77.667 -114 -153 -114c-60 0 -111.167 24.167 -153.5 72.5s-63.166 110.5 -62.499 186.5c0.666992 78 24 141.667 70 191s96.333 74 151 74c67.333 0 114 -27.333 140 -82
c-5.33301 80 -8 145 -8 195v91h-80v33c66 0 108.667 0.666992 128 2s33 5 41 11l13 -9v-721h78v-33c-63.333 0 -113.333 -4.66699 -150 -14zM274.999 29.002c35.333 0 64.833 15.167 88.5 45.5s35.5 78.833 35.5 145.5v49c0 138 -39 207 -117 207
c-83.333 0 -126 -74.333 -128 -223c-0.666992 -73.333 8.33301 -129 27 -167s50 -57 94 -57z" />
    <glyph glyph-name="Emacron" unicode="&#x112;" horiz-adv-x="583" 
d="M180 796v47h244v-47h-244zM42 0v33h82v624h-82v33h477v-220h-33v42c0 56 -11.833 94.167 -35.5 114.5s-63.5 30.5 -119.5 30.5h-100v-290h145v77h37v-195h-37v86h-145v-302h138c54 0 90 12 108 36s27 63.667 27 119v36h33v-224h-495z" />
    <glyph glyph-name="emacron" unicode="&#x113;" horiz-adv-x="519" 
d="M151 672v47h244v-47h-244zM282 -11c-66.667 0 -122.667 23.333 -168 70s-68 111.334 -68 194.001c0 79.333 21.833 142.5 65.5 189.5s97.167 70.5 160.5 70.5c66 0 116.833 -21.5 152.5 -64.5s53.5 -97.167 53.5 -162.5c0 -6.66699 -0.666992 -15.334 -2 -26.001h-322
v-11c0 -76 10.167 -132.333 30.5 -169s55.5 -55 105.5 -55c42 0 74.5 11.167 97.5 33.5s40.833 53.833 53.5 94.5l31 -7c-11.333 -48.667 -33.833 -87 -67.5 -115s-74.5 -42 -122.5 -42zM270 479c-37.333 0 -65.168 -14.8311 -83.501 -44.498
s-28.833 -76.834 -31.5 -141.501h218c0.666992 61.333 -6.66602 107.666 -21.999 138.999s-42.333 47 -81 47z" />
    <glyph glyph-name="Edotaccent" unicode="&#x116;" horiz-adv-x="583" 
d="M364 823c0 -16 -5.66699 -31.333 -17 -46s-29.333 -22 -54 -22c-25.333 0 -43.5 7.33301 -54.5 22s-16.5 30 -16.5 46s5.5 31.333 16.5 46s29.167 22 54.5 22c24.667 0 42.667 -7.33301 54 -22s17 -30 17 -46zM42 0v33h82v624h-82v33h477v-220h-33v42
c0 56 -11.833 94.167 -35.5 114.5s-63.5 30.5 -119.5 30.5h-100v-290h145v77h37v-195h-37v86h-145v-302h138c54 0 90 12 108 36s27 63.667 27 119v36h33v-224h-495z" />
    <glyph glyph-name="edotaccent" unicode="&#x117;" horiz-adv-x="519" 
d="M343 671c0 -16 -5.5 -31.167 -16.5 -45.5s-28.833 -21.5 -53.5 -21.5c-25.333 0 -43.333 7.16699 -54 21.5s-16 29.5 -16 45.5c0 16.667 5.33301 32.167 16 46.5s28.667 21.5 54 21.5c24.667 0 42.5 -7.33301 53.5 -22s16.5 -30 16.5 -46zM282 -11
c-66.667 0 -122.667 23.333 -168 70s-68 111.334 -68 194.001c0 79.333 21.833 142.5 65.5 189.5s97.167 70.5 160.5 70.5c66 0 116.833 -21.5 152.5 -64.5s53.5 -97.167 53.5 -162.5c0 -6.66699 -0.666992 -15.334 -2 -26.001h-322v-11c0 -76 10.167 -132.333 30.5 -169
s55.5 -55 105.5 -55c42 0 74.5 11.167 97.5 33.5s40.833 53.833 53.5 94.5l31 -7c-11.333 -48.667 -33.833 -87 -67.5 -115s-74.5 -42 -122.5 -42zM270 479c-37.333 0 -65.168 -14.8311 -83.501 -44.498s-28.833 -76.834 -31.5 -141.501h218
c0.666992 61.333 -6.66602 107.666 -21.999 138.999s-42.333 47 -81 47z" />
    <glyph glyph-name="Eogonek" unicode="&#x118;" horiz-adv-x="583" 
d="M601 -99c-18 -25.333 -48.668 -38.001 -92.001 -38.001c-31.333 0 -57 5.83301 -77 17.5s-30 29.5 -30 53.5c0 32.667 20.667 54.667 62 66h-422v33h82v624h-82v33h477v-220h-33v42c0 56 -11.833 94.167 -35.5 114.5s-63.5 30.5 -119.5 30.5h-100v-290h145v77h37v-195
h-37v86h-145v-302h138c54 0 90 12 108 36s27 63.667 27 119v36h33v-224c-20 0 -36.167 -4.66699 -48.5 -14s-18.5 -22.333 -18.5 -39c0 -17.333 5.83301 -30.666 17.5 -39.999s27.5 -14 47.5 -14c26.667 0 44.334 6.33301 53.001 19z" />
    <glyph glyph-name="eogonek" unicode="&#x119;" horiz-adv-x="519" 
d="M395 -137c-68.667 0 -102.999 23.332 -102.999 69.999c0 24 16.333 46 49 66c-16 -6.66699 -35.667 -10 -59 -10c-66.667 0 -122.667 23.333 -168 70s-68 111.334 -68 194.001c0 79.333 21.833 142.5 65.5 189.5s97.167 70.5 160.5 70.5c66 0 116.833 -21.5 152.5 -64.5
s53.5 -97.167 53.5 -162.5c0 -6.66699 -0.666992 -15.334 -2 -26.001h-322v-11c0.666992 -76.667 11.167 -133.167 31.5 -169.5s55.166 -54.5 104.499 -54.5c42 0 74.5 11.167 97.5 33.5s40.833 53.833 53.5 94.5l31 -7c-6 -24.667 -15.5 -47.167 -28.5 -67.5
s-25.5 -36 -37.5 -47s-22.667 -23.833 -32 -38.5s-14 -30 -14 -46c0 -17.333 5.5 -30.666 16.5 -39.999s26.167 -14 45.5 -14c27.333 0 46 6.33301 56 19l13 -11c-18 -25.333 -50 -38 -96 -38zM270.001 478.999c-37.333 0 -65.168 -14.8311 -83.501 -44.498
s-28.833 -76.834 -31.5 -141.501h218c0.666992 61.333 -6.66602 107.666 -21.999 138.999s-42.333 47 -81 47z" />
    <glyph glyph-name="Ecaron" unicode="&#x11a;" horiz-adv-x="583" 
d="M314 754h-27l-143 172h32l125 -76l114 76h27zM42 0v33h82v624h-82v33h477v-220h-33v42c0 56 -11.833 94.167 -35.5 114.5s-63.5 30.5 -119.5 30.5h-100v-290h145v77h37v-195h-37v86h-145v-302h138c54 0 90 12 108 36s27 63.667 27 119v36h33v-224h-495z" />
    <glyph glyph-name="ecaron" unicode="&#x11b;" horiz-adv-x="519" 
d="M284 581h-27l-143 172h32l125 -76l114 76h27zM282 -11c-66.667 0 -122.667 23.333 -168 70s-68 111.334 -68 194.001c0 79.333 21.833 142.5 65.5 189.5s97.167 70.5 160.5 70.5c66 0 116.833 -21.5 152.5 -64.5s53.5 -97.167 53.5 -162.5
c0 -6.66699 -0.666992 -15.334 -2 -26.001h-322v-11c0 -76 10.167 -132.333 30.5 -169s55.5 -55 105.5 -55c42 0 74.5 11.167 97.5 33.5s40.833 53.833 53.5 94.5l31 -7c-11.333 -48.667 -33.833 -87 -67.5 -115s-74.5 -42 -122.5 -42zM270 479
c-37.333 0 -65.168 -14.8311 -83.501 -44.498s-28.833 -76.834 -31.5 -141.501h218c0.666992 61.333 -6.66602 107.666 -21.999 138.999s-42.333 47 -81 47z" />
    <glyph glyph-name="uni0122" unicode="&#x122;" horiz-adv-x="646" 
d="M533 -10l-48 37.0029c-41.333 -25.333 -90 -38 -146 -38c-48 0 -91.667 11 -131 33s-70.833 50.667 -94.5 86s-42 73.666 -55 114.999s-19.5 82.333 -19.5 123c0 55.333 11.667 109.666 35 162.999s59 98.666 107 135.999s102.667 56 164 56
c60 0 107.333 -12.667 142 -38l40 37h17v-230h-32c0 61.333 -13.5 109.5 -40.5 144.5s-67.5 52.5 -121.5 52.5c-128.667 0 -193 -107 -193 -321c0 -215.333 62.333 -323 187 -323c42.667 0 77 11.333 103 34v228h-95v33h275v-33h-75v-295h-19zM327 -314.997l-22.001 24
c38 27.333 59 62 63 104c-1.33301 0 -4.33301 -0.166992 -9 -0.5s-7.66699 -0.5 -9 -0.5c-24 0 -41.167 7.16699 -51.5 21.5s-15.5 28.833 -15.5 43.5c0 15.333 5.16699 30.333 15.5 45s27.5 22 51.5 22c22.667 0 39.334 -8 50.001 -24s16 -35.333 16 -58
c0 -79.333 -29.667 -138.333 -89 -177z" />
    <glyph glyph-name="uni0123" unicode="&#x123;" horiz-adv-x="526" 
d="M285 854l22 -25c-38 -26 -59.333 -61 -64 -105c2 0 5.33301 0.166992 10 0.5s7.66699 0.5 9 0.5c24 0 41.167 -7 51.5 -21s15.5 -28.667 15.5 -44c0 -16 -5.16699 -31.333 -15.5 -46s-27.5 -22 -51.5 -22c-23.333 0 -40.333 8 -51 24s-16 35.333 -16 58
c0 80.667 30 140.667 90 180zM264 219c27.333 0 50 10.333 68 31s27 54.334 27 101.001c0 88 -31.667 132 -95 132s-95 -44 -95 -132c0 -46.667 9 -80.334 27 -101.001s40.667 -31 68 -31zM510 -76c0 -56.667 -21.168 -101.497 -63.501 -134.497
s-101.833 -49.5 -178.5 -49.5c-74 0 -133.667 12.333 -179 37s-68 62 -68 112c0 28 11.5 53.667 34.5 77s54.5 39.333 94.5 48c-61.333 9.33301 -92 41 -92 95c0 29.333 11.5 52.666 34.5 69.999s49.5 27 79.5 29c-32 13.333 -57.667 32.666 -77 57.999
s-29 53.666 -29 84.999c0 49.333 19.333 88.666 58 117.999s85.334 44 140.001 44c28 0 54 -4 78 -12h184v-32l-126 3c41.333 -29.333 62 -69.666 62 -120.999c0 -46 -19.5 -84.333 -58.5 -115s-85.5 -46 -139.5 -46c-45.333 0 -79.333 -3.5 -102 -10.5
s-34 -19.833 -34 -38.5c0 -19.333 11 -32.333 33 -39s56.333 -10 103 -10c164 0 246 -56 246 -168zM271.999 -223.997c55.333 0 97.167 10.834 125.5 32.501s42.5 50.167 42.5 85.5c0 37.333 -13.833 64.166 -41.5 80.499s-71.167 24.5 -130.5 24.5l-75 2
c-26 -8 -45.167 -22 -57.5 -42s-18.5 -42.333 -18.5 -67c0 -39.333 14.667 -68.5 44 -87.5s66.333 -28.5 111 -28.5z" />
    <glyph glyph-name="Imacron" unicode="&#x12a;" horiz-adv-x="364" 
d="M58 796v47h244v-47h-244zM322 0h-280v33h86v624h-86v33h280v-33h-86v-624h86v-33z" />
    <glyph glyph-name="imacron" unicode="&#x12b;" horiz-adv-x="327" 
d="M30 672v47h244v-47h-244zM295 0h-258v33h78v436h-78v32c64 0 105.833 0.833008 125.5 2.5s33.5 5.5 41.5 11.5l14 -9v-473h77v-33z" />
    <glyph glyph-name="Iogonek" unicode="&#x12e;" horiz-adv-x="364" 
d="M303 -137c-31.333 0 -57.001 5.83203 -77.001 17.499s-30 29.5 -30 53.5c0 32.667 20.333 54.667 61 66h-215v33h86v624h-86v33h280v-33h-86v-624h86v-33c-16 0 -29.667 -4.83301 -41 -14.5s-17 -22.5 -17 -38.5c0 -17.333 5.83301 -30.666 17.5 -39.999
s27.5 -14 47.5 -14c22.667 0 40.334 6.33301 53.001 19l13 -11c-18 -25.333 -48.667 -38 -92 -38z" />
    <glyph glyph-name="iogonek" unicode="&#x12f;" horiz-adv-x="327" 
d="M231 698c0 -16 -5.66699 -31.333 -17 -46s-29.333 -22 -54 -22c-25.333 0 -43.5 7.16699 -54.5 21.5s-16.5 29.833 -16.5 46.5s5.5 32.167 16.5 46.5s29.167 21.5 54.5 21.5c24.667 0 42.667 -7.33301 54 -22s17 -30 17 -46zM273 -137c-69.333 0 -104 23.667 -104 71
c0 32 22 54 66 66h-198v33h78v436h-78v32c64 0 105.833 0.833008 125.5 2.5s33.5 5.5 41.5 11.5l14 -9v-473h77v-33c-16 0 -29.667 -4.83301 -41 -14.5s-17 -22.5 -17 -38.5c0 -36 21.333 -54 64 -54c18.667 0 36.667 6.33301 54 19l13 -11c-18 -25.333 -49.667 -38 -95 -38
z" />
    <glyph glyph-name="dotlessi" unicode="&#x131;" horiz-adv-x="318" 
d="M295 0h-258v33h78v436h-78v32c64 0 105.833 0.833008 125.5 2.5s33.5 5.5 41.5 11.5l14 -9v-473h77v-33z" />
    <glyph glyph-name="IJ" unicode="&#x132;" horiz-adv-x="796" 
d="M322 0h-280v33h86v624h-86v33h280v-33h-86v-624h86v-33zM704 237c0 -86 -16.668 -148.834 -50.001 -188.501s-82.666 -59.5 -147.999 -59.5c-50.667 0 -88.667 12.833 -114 38.5s-38 59.167 -38 100.5c0 25.333 6.33301 45.5 19 60.5s29.667 22.5 51 22.5
c20.667 0 37 -6.33301 49 -19s18 -28 18 -46c0 -45.333 -27 -69 -81 -71c2 -13.333 10.833 -25.166 26.5 -35.499s35.5 -15.5 59.5 -15.5c39.333 0 66 14.333 80 43s21 79 21 151v439h-109v33h298v-33h-82v-420z" />
    <glyph glyph-name="ij" unicode="&#x133;" horiz-adv-x="590" 
d="M507 698c0 -16 -5.5 -31.333 -16.5 -46s-29.167 -22 -54.5 -22s-43.333 7.16699 -54 21.5s-16 29.833 -16 46.5s5.33301 32.167 16 46.5s28.667 21.5 54 21.5s43.5 -7.33301 54.5 -22s16.5 -30 16.5 -46zM227 698c0 -16 -5.66699 -31.333 -17 -46s-29.333 -22 -54 -22
c-25.333 0 -43.5 7.33301 -54.5 22s-16.5 30 -16.5 46s5.5 31.333 16.5 46s29.167 22 54.5 22c24.667 0 42.667 -7.33301 54 -22s17 -30 17 -46zM295 0h-258v33h78v436h-78v32c64 0 105.833 0.833008 125.5 2.5s33.5 5.5 41.5 11.5l14 -9v-473h77v-33zM315 -260
c-38 0 -69.833 10.5 -95.5 31.5s-38.5 53.167 -38.5 96.5c0 22 5.5 39.667 16.5 53s27.167 20 48.5 20s37.333 -6 48 -18s16 -27 16 -45c0 -40.667 -26.333 -62 -79 -64c12 -28 38.333 -42 79 -42c32 0 54.667 13.167 68 39.5s20 75.5 20 147.5v510h-81v32
c65.333 0 107.833 1 127.5 3s33.834 5.66699 42.501 11l14 -9v-473c0 -48.667 -3.83301 -91.167 -11.5 -127.5s-17.334 -64.833 -29.001 -85.5s-26.167 -37.167 -43.5 -49.5s-33.833 -20.5 -49.5 -24.5s-33.167 -6 -52.5 -6z" />
    <glyph glyph-name="uni0136" unicode="&#x136;" horiz-adv-x="655" 
d="M306 33v-33h-264v33h82v624h-82v33h277v-33h-88v-342l252 342h-90v33h224v-33h-86l-174 -238l246 -386h52v-33h-245v33h71l-194 302l-56 -76v-226h75zM327 -315l-22.001 24c38 27.333 59 62 63 104c-1.33301 0 -4.33301 -0.166992 -9 -0.5s-7.66699 -0.5 -9 -0.5
c-24 0 -41.167 7.16699 -51.5 21.5s-15.5 28.833 -15.5 43.5c0 15.333 5.16699 30.333 15.5 45s27.5 22 51.5 22c22.667 0 39.334 -8 50.001 -24s16 -35.333 16 -58c0 -79.333 -29.667 -138.333 -89 -177z" />
    <glyph glyph-name="uni0137" unicode="&#x137;" horiz-adv-x="584" 
d="M280 33v-33h-244v33h78v684h-78v33c62.667 0 103.667 0.666992 123 2s34 5 44 11l13 -9v-543l204 258h-93v32h224v-32h-83l-126 -161l187 -275h51v-33h-225v33h55l-138 203l-56 -71v-132h64zM290 -315l-22.001 24c38 27.333 59 62 63 104c-2 0 -5 -0.166992 -9 -0.5
s-7 -0.5 -9 -0.5c-24 0 -41.167 7.16699 -51.5 21.5s-15.5 28.833 -15.5 43.5c0 15.333 5.16699 30.333 15.5 45s27.5 22 51.5 22c22.667 0 39.334 -8 50.001 -24s16 -35.333 16 -58c0 -79.333 -29.667 -138.333 -89 -177z" />
    <glyph glyph-name="Lacute" unicode="&#x139;" horiz-adv-x="541" 
d="M160 740l75 102.999c13.333 18 33 27 59 27h75c12 0 19.833 -1.66699 23.5 -5s3.66699 -7.66602 0 -12.999s-10.5 -11 -20.5 -17l-182 -95h-30zM42 -0.000976562v33h82v624h-82v33h298v-33h-109v-624h119c54 0 90.167 12.167 108.5 36.5s27.5 63.833 27.5 118.5v36h32
v-224h-476z" />
    <glyph glyph-name="lacute" unicode="&#x13a;" horiz-adv-x="321" 
d="M129 797l75 102.999c13.333 18 33 27 59 27h75c12 0 19.833 -1.66699 23.5 -5s3.66699 -7.66602 0 -12.999s-10.5 -11 -20.5 -17l-182 -95h-30zM36 -0.000976562l-0.000976562 33h78v684h-78v33c61.333 0 101.833 0.833008 121.5 2.5s34.834 5.16699 45.501 10.5l13 -9
v-721h78v-33h-258z" />
    <glyph glyph-name="uni013B" unicode="&#x13b;" horiz-adv-x="541" 
d="M42 0v33h82v624h-82v33h298v-33h-109v-624h119c54 0 90.167 12.167 108.5 36.5s27.5 63.833 27.5 118.5v36h32v-224h-476zM289 -315l-22.001 24c38 27.333 59 62 63 104c-1.33301 0 -4.33301 -0.166992 -9 -0.5s-7.66699 -0.5 -9 -0.5c-24 0 -41.167 7.16699 -51.5 21.5
s-15.5 28.833 -15.5 43.5c0 15.333 5.16699 30.333 15.5 45s27.5 22 51.5 22c22.667 0 39.334 -8 50.001 -24s16 -35.333 16 -58c0 -79.333 -29.667 -138.333 -89 -177z" />
    <glyph glyph-name="uni013C" unicode="&#x13c;" horiz-adv-x="321" 
d="M36 0l-0.000976562 33h78v684h-78v33c61.333 0 101.833 0.833008 121.5 2.5s34.834 5.16699 45.501 10.5l13 -9v-721h78v-33h-258zM152.999 -315l-22.001 24c38 27.333 59 62 63 104c-1.33301 0 -4.33301 -0.166992 -9 -0.5s-7.66699 -0.5 -9 -0.5
c-24 0 -41.167 7.16699 -51.5 21.5s-15.5 28.833 -15.5 43.5c0 15.333 5.16699 30.333 15.5 45s27.5 22 51.5 22c22.667 0 39.334 -8 50.001 -24s16 -35.333 16 -58c0 -79.333 -29.667 -138.333 -89 -177z" />
    <glyph glyph-name="Lcaron" unicode="&#x13d;" horiz-adv-x="571" 
d="M440 437l-21 25.002c38.667 27.333 60 62.666 64 105.999c-2 0 -5.33301 -0.166992 -10 -0.5s-7.66699 -0.5 -9 -0.5c-24 0 -41.333 7.16699 -52 21.5s-16 29.166 -16 44.499c0 16 5.33301 31.333 16 46s28 22 52 22c23.333 0 40.333 -8 51 -24s16 -35.667 16 -59
c0 -82 -30.333 -142.333 -91 -181zM42 0.00195312v33h82v624h-82v33h298v-33h-109v-624h119c54 0 90.167 12.167 108.5 36.5s27.5 63.833 27.5 118.5v36h32v-224h-476z" />
    <glyph glyph-name="lcaron" unicode="&#x13e;" horiz-adv-x="420" 
d="M36 0l-0.000976562 33h78v684h-78v33c61.333 0 101.833 0.833008 121.5 2.5s34.834 5.16699 45.501 10.5l13 -9v-721h78v-33h-258zM320.999 495l-21 25.002c38.667 27.333 60 62.666 64 105.999c-1.33301 0 -4.33301 -0.166992 -9 -0.5s-8 -0.5 -10 -0.5
c-24 0 -41.333 7.16699 -52 21.5s-16 29.166 -16 44.499c0 16 5.33301 31.333 16 46s28 22 52 22c23.333 0 40.333 -8 51 -24s16 -35.667 16 -59c0 -82 -30.333 -142.333 -91 -181z" />
    <glyph glyph-name="Lslash" unicode="&#x141;" horiz-adv-x="542" 
d="M519 0h-476v33h82v205l-86 -97v57l86 97v362h-82v33h298v-33h-109v-245l113 127v-57l-113 -127v-322h119c54 0 90 12 108 36s27 63.667 27 119v36h33v-224z" />
    <glyph glyph-name="lslash" unicode="&#x142;" horiz-adv-x="326" 
d="M296 0h-257v33h77v245l-106 -122v57l106 122v382h-77v33c61.333 0 101.833 0.833008 121.5 2.5s34.5 5.16699 44.5 10.5l14 -9v-307l97 112v-57l-97 -111v-358h77v-33z" />
    <glyph glyph-name="Nacute" unicode="&#x143;" horiz-adv-x="706" 
d="M307 740l75 102.999c13.333 18 33 27 59 27h75c12 0 19.833 -1.66699 23.5 -5s3.66699 -7.66602 0 -12.999s-10.5 -11 -20.5 -17l-182 -95h-30zM254 32.999v-33h-212v33h82v624h-82v33h175l331 -509v476h-87v33h211v-33h-81v-666h-38l-387 592v-550h88z" />
    <glyph glyph-name="nacute" unicode="&#x144;" horiz-adv-x="650" 
d="M269 590l102 130.999c13.333 18 33 27 59 27h66c12 0 19.833 -1.66699 23.5 -5s3.66699 -7.66602 0 -12.999s-10.5 -11 -20.5 -17l-200 -123h-30zM293 32.999v-33.001h-256v33h78v436h-78v32c55.333 0 92.333 0.833008 111 2.5s31.667 5.5 39 11.5l14 -9v-143
c6 44.667 23.667 80.834 53 108.501s68 41.5 116 41.5c116 0 174 -66.667 174 -200v-280h77v-33h-255v33h75v273c0 103.333 -36.667 155 -110 155c-75.333 0 -113 -58 -113 -174v-254h75z" />
    <glyph glyph-name="uni0145" unicode="&#x145;" horiz-adv-x="706" 
d="M254 33v-33h-212v33h82v624h-82v33h175l331 -509v476h-87v33h211v-33h-81v-666h-38l-387 592v-550h88zM352 -315l-22.001 24c38 27.333 59 62 63 104c-2 0 -5 -0.166992 -9 -0.5s-7 -0.5 -9 -0.5c-24 0 -41.167 7.16699 -51.5 21.5s-15.5 28.833 -15.5 43.5
c0 15.333 5.16699 30.333 15.5 45s27.5 22 51.5 22c22.667 0 39.334 -8 50.001 -24s16 -35.333 16 -58c0 -79.333 -29.667 -138.333 -89 -177z" />
    <glyph glyph-name="uni0146" unicode="&#x146;" horiz-adv-x="650" 
d="M293 33v-33.001h-256v33h78v436h-78v32c55.333 0 92.333 0.833008 111 2.5s31.667 5.5 39 11.5l14 -9v-143c6 44.667 23.667 80.834 53 108.501s68 41.5 116 41.5c116 0 174 -66.667 174 -200v-280h77v-33h-255v33h75v273c0 103.333 -36.667 155 -110 155
c-75.333 0 -113 -58 -113 -174v-254h75zM304 -315.001l-22.001 24c38 27.333 59 62 63 104c-2 0 -5 -0.166992 -9 -0.5s-7 -0.5 -9 -0.5c-24 0 -41.167 7.16699 -51.5 21.5s-15.5 28.833 -15.5 43.5c0 15.333 5.16699 30.333 15.5 45s27.5 22 51.5 22
c22.667 0 39.334 -8 50.001 -24s16 -35.333 16 -58c0 -79.333 -29.667 -138.333 -89 -177z" />
    <glyph glyph-name="Ncaron" unicode="&#x147;" horiz-adv-x="706" 
d="M372 754h-27l-143 172h32l125 -76l114 76h27zM254 33v-33h-212v33h82v624h-82v33h175l331 -509v476h-87v33h211v-33h-81v-666h-38l-387 592v-550h88z" />
    <glyph glyph-name="ncaron" unicode="&#x148;" horiz-adv-x="650" 
d="M339 581h-27l-143 172h32l125 -76l114 76h27zM293 33v-33.001h-256v33h78v436h-78v32c55.333 0 92.333 0.833008 111 2.5s31.667 5.5 39 11.5l14 -9v-143c6 44.667 23.667 80.834 53 108.501s68 41.5 116 41.5c116 0 174 -66.667 174 -200v-280h77v-33h-255v33h75v273
c0 103.333 -36.667 155 -110 155c-75.333 0 -113 -58 -113 -174v-254h75z" />
    <glyph glyph-name="Omacron" unicode="&#x14c;" horiz-adv-x="656" 
d="M201 796v47h244v-47h-244zM617 345c0 -42 -5.83301 -83.5 -17.5 -124.5s-28.667 -79 -51 -114s-52.666 -63.333 -90.999 -85s-81.5 -32.5 -129.5 -32.5s-91.167 10.833 -129.5 32.5s-68.666 50 -90.999 85s-39.333 73 -51 114s-17.5 82.5 -17.5 124.5
s5.83301 83.5 17.5 124.5s28.667 79 51 114s52.666 63.333 90.999 85s81.5 32.5 129.5 32.5s91.167 -10.833 129.5 -32.5s68.666 -50 90.999 -85s39.333 -73 51 -114s17.5 -82.5 17.5 -124.5zM157 345c0 -118.667 14.5 -202.167 43.5 -250.5s71.5 -72.5 127.5 -72.5
s98.5 24.167 127.5 72.5s43.5 131.833 43.5 250.5s-14.5 202.167 -43.5 250.5s-71.5 72.5 -127.5 72.5s-98.5 -24.167 -127.5 -72.5s-43.5 -131.833 -43.5 -250.5z" />
    <glyph glyph-name="omacron" unicode="&#x14d;" horiz-adv-x="568" 
d="M155 672v47h244v-47h-244zM522 250c0 -78.667 -23.833 -141.832 -71.5 -189.499s-103.5 -71.5 -167.5 -71.5c-66.667 0 -122.834 23.667 -168.501 71s-68.5 110.666 -68.5 189.999c0 80 22.833 143.833 68.5 191.5s101.834 71.5 168.501 71.5
c64 0 119.833 -24.167 167.5 -72.5s71.5 -111.833 71.5 -190.5zM154 250.002c0 -74.667 9.66699 -131.333 29 -170s52.666 -58 99.999 -58c87.333 0 131 76 131 228c0 152.667 -43.667 229 -131 229c-47.333 0 -80.666 -19.333 -99.999 -58s-29 -95.667 -29 -171z" />
    <glyph glyph-name="Ohungarumlaut" unicode="&#x150;" horiz-adv-x="656" 
d="M261 740l37.001 104c3.33301 17.333 19.666 26 48.999 26h34c34 0 38 -11.333 12 -34l-102 -96h-30zM369.001 740l93.999 103.998c14.667 17.333 34.334 26 59.001 26h60c12 0 20 -1.66699 24 -5s3.83301 -7.66602 -0.5 -12.999s-11.5 -10.666 -21.5 -15.999l-183 -96
h-32zM617 344.998c0 -42 -5.83301 -83.5 -17.5 -124.5s-28.667 -79 -51 -114s-52.666 -63.333 -90.999 -85s-81.5 -32.5 -129.5 -32.5s-91.167 10.833 -129.5 32.5s-68.666 50 -90.999 85s-39.333 73 -51 114s-17.5 82.5 -17.5 124.5s5.83301 83.5 17.5 124.5
s28.667 79 51 114s52.666 63.333 90.999 85s81.5 32.5 129.5 32.5s91.167 -10.833 129.5 -32.5s68.666 -50 90.999 -85s39.333 -73 51 -114s17.5 -82.5 17.5 -124.5zM157 344.998c0 -118.667 14.5 -202.167 43.5 -250.5s71.5 -72.5 127.5 -72.5s98.5 24.167 127.5 72.5
s43.5 131.833 43.5 250.5s-14.5 202.167 -43.5 250.5s-71.5 72.5 -127.5 72.5s-98.5 -24.167 -127.5 -72.5s-43.5 -131.833 -43.5 -250.5z" />
    <glyph glyph-name="ohungarumlaut" unicode="&#x151;" horiz-adv-x="559" 
d="M190 590l45.002 132c3.33301 17.333 19.666 26 48.999 26h44c18 0 27.667 -2.83301 29 -8.5s-4.33398 -14.167 -17.001 -25.5l-120 -124h-30zM299.002 590l105 132c13.333 17.333 33 26 59 26h66c12 0 19.833 -1.66699 23.5 -5s3.5 -7.5 -0.5 -12.5s-11 -10.5 -21 -16.5
l-201 -124h-31zM522.002 250c0 -78.667 -23.833 -141.832 -71.5 -189.499s-103.5 -71.5 -167.5 -71.5c-66.667 0 -122.834 23.667 -168.501 71s-68.5 110.666 -68.5 189.999c0 80 22.833 143.833 68.5 191.5s101.834 71.5 168.501 71.5c64 0 119.833 -24.167 167.5 -72.5
s71.5 -111.833 71.5 -190.5zM154.002 250.002c0 -74.667 9.66699 -131.333 29 -170s52.666 -58 99.999 -58c87.333 0 131 76 131 228c0 152.667 -43.667 229 -131 229c-47.333 0 -80.666 -19.333 -99.999 -58s-29 -95.667 -29 -171z" />
    <glyph glyph-name="OE" unicode="&#x152;" horiz-adv-x="915" 
d="M157 345c0 -118.667 14.5 -202.167 43.5 -250.5s71.5 -72.5 127.5 -72.5s98.5 24.167 127.5 72.5s43.5 131.833 43.5 250.5s-14.5 202.167 -43.5 250.5s-71.5 72.5 -127.5 72.5s-98.5 -24.167 -127.5 -72.5s-43.5 -131.833 -43.5 -250.5zM869 0h-462
c-25.333 -7.33301 -51.666 -11 -78.999 -11c-48 0 -91.167 10.833 -129.5 32.5s-68.666 50 -90.999 85s-39.333 73 -51 114s-17.5 82.5 -17.5 124.5s5.83301 83.5 17.5 124.5s28.667 79 51 114s52.666 63.333 90.999 85s81.5 32.5 129.5 32.5
c27.333 0 53.666 -3.66699 78.999 -11h444v-220h-32v42c0 55.333 -12 93.333 -36 114s-64 31 -120 31h-188c43.333 -28.667 77 -69.5 101 -122.5s37.333 -108.833 40 -167.5h92v77h38v-195h-38v86h-91c-1.33301 -60 -14 -117.833 -38 -173.5s-58.667 -98.5 -104 -128.5h226
c54 0 90.167 12.167 108.5 36.5s27.5 63.833 27.5 118.5v36h32v-224z" />
    <glyph glyph-name="oe" unicode="&#x153;" horiz-adv-x="890" 
d="M652 -11c-86.667 0 -148.331 37.668 -184.998 113.001c-38 -75.333 -98.667 -113 -182 -113c-67.333 0 -124 23.667 -170 71s-69 110.666 -69 189.999c0 80 23 143.833 69 191.5s102.667 71.5 170 71.5c83.333 0 144 -37.333 182 -112
c35.333 74.667 93.666 112 174.999 112c66 0 117 -21.5 153 -64.5s54 -97.167 54 -162.5c0 -9.33301 -0.666992 -17.666 -2 -24.999h-323v-11c0.666992 -76.667 11.167 -133.334 31.5 -170.001s55.166 -55 104.499 -55c42 0 74.5 11.167 97.5 33.5s40.833 53.833 53.5 94.5
l31 -7c-11.333 -48.667 -33.833 -87 -67.5 -115s-74.5 -42 -122.5 -42zM640.003 479.001c-37.333 0 -65.168 -14.8311 -83.501 -44.498s-28.833 -76.834 -31.5 -141.501h218c0.666992 61.333 -6.66602 107.666 -21.999 138.999s-42.333 47 -81 47zM154.001 250.003
c0 -74.667 9.83301 -131.167 29.5 -169.5s53.5 -57.5 101.5 -57.5c87.333 0 131 75.667 131 227c0 152.667 -43.667 229 -131 229c-48 0 -81.833 -19.333 -101.5 -58s-29.5 -95.667 -29.5 -171z" />
    <glyph glyph-name="Racute" unicode="&#x154;" horiz-adv-x="651" 
d="M257 740l75 102.999c13.333 18 33 27 59 27h75c12 0 19.833 -1.66699 23.5 -5s3.66699 -7.66602 0 -12.999s-10.5 -11 -20.5 -17l-182 -95h-30zM545 -11.001c-21.333 0 -39.3281 3.66895 -53.9951 11.002s-26.834 19 -36.501 35s-17.167 31.667 -22.5 47
s-11.333 36 -18 62l-3 12c-16 60.667 -34 103 -54 127s-52 36 -96 36h-30v-286h112v-33h-301v33h82v624h-82v33h220c92 0 163.167 -15.833 213.5 -47.5s75.5 -76.167 75.5 -133.5c0 -45.333 -19.333 -84.333 -58 -117s-87.334 -52.334 -146.001 -59.001
c36.667 -14 66 -27 88 -39s39 -25.667 51 -41s20.333 -28.833 25 -40.5s9.66699 -28.834 15 -51.501c13.333 -54.667 22.666 -89 27.999 -103s13.666 -21 24.999 -21c25.333 0 38 38.333 38 115h30c0 -54 -7.33301 -94.667 -22 -122s-41.334 -41 -80.001 -41z
M266.005 657.001h-35v-306h33c114.667 0 172 52.333 172 157c0 99.333 -56.667 149 -170 149z" />
    <glyph glyph-name="racute" unicode="&#x155;" horiz-adv-x="468" 
d="M187 590l102 130.999c13.333 18 33 27 59 27h66c12 0 19.833 -1.66699 23.5 -5s3.66699 -7.66602 0 -12.999s-10.5 -11 -20.5 -17l-200 -123h-30zM336 32.999l0.000976562 -33.002h-299v33h78v436h-78v32c60.667 0 98.834 0.666992 114.501 2s27.5 5.33301 35.5 12l14 -9
v-147c6.66699 44 21.667 80.667 45 110s55.333 44 96 44c36.667 0 64.5 -10.167 83.5 -30.5s28.5 -45.833 28.5 -76.5c0 -25.333 -5.83301 -44.666 -17.5 -57.999s-27.5 -20 -47.5 -20c-20.667 0 -37.334 6 -50.001 18s-19 28.333 -19 49c0 18 6 32.833 18 44.5
s27.333 18.834 46 21.501c-10.667 12 -27.334 18 -50.001 18c-39.333 0 -68.5 -24.167 -87.5 -72.5s-28.5 -108.833 -28.5 -181.5v-192h118z" />
    <glyph glyph-name="uni0156" unicode="&#x156;" horiz-adv-x="651" 
d="M545 -11c-21.333 0 -39.3281 3.66895 -53.9951 11.002s-26.834 19 -36.501 35s-17.167 31.667 -22.5 47s-11.333 36 -18 62l-3 12c-16 60.667 -34 103 -54 127s-52 36 -96 36h-30v-286h112v-33h-301v33h82v624h-82v33h220c92 0 163.167 -15.833 213.5 -47.5
s75.5 -76.167 75.5 -133.5c0 -45.333 -19.333 -84.333 -58 -117s-87.334 -52.334 -146.001 -59.001c36.667 -14 66 -27 88 -39s39 -25.667 51 -41s20.333 -28.833 25 -40.5s9.66699 -28.834 15 -51.501c13.333 -54.667 22.666 -89 27.999 -103s13.666 -21 24.999 -21
c25.333 0 38 38.333 38 115h30c0 -54 -7.33301 -94.667 -22 -122s-41.334 -41 -80.001 -41zM266.005 657.002h-35v-306h33c114.667 0 172 52.333 172 157c0 99.333 -56.667 149 -170 149zM323.005 -314.998l-22.001 24c38 27.333 59 62 63 104
c-1.33301 0 -4.33301 -0.166992 -9 -0.5s-7.66699 -0.5 -9 -0.5c-24 0 -41.167 7.16699 -51.5 21.5s-15.5 28.833 -15.5 43.5c0 15.333 5.16699 30.333 15.5 45s27.5 22 51.5 22c22.667 0 39.334 -8 50.001 -24s16 -35.333 16 -58c0 -79.333 -29.667 -138.333 -89 -177z" />
    <glyph glyph-name="uni0157" unicode="&#x157;" horiz-adv-x="468" 
d="M336 33l0.000976562 -33.002h-299v33h78v436h-78v32c60.667 0 98.834 0.666992 114.501 2s27.5 5.33301 35.5 12l14 -9v-147c6.66699 44 21.667 80.667 45 110s55.333 44 96 44c36.667 0 64.5 -10.167 83.5 -30.5s28.5 -45.833 28.5 -76.5
c0 -25.333 -5.83301 -44.666 -17.5 -57.999s-27.5 -20 -47.5 -20c-20.667 0 -37.334 6 -50.001 18s-19 28.333 -19 49c0 18 6 32.833 18 44.5s27.333 18.834 46 21.501c-10.667 12 -27.334 18 -50.001 18c-39.333 0 -68.5 -24.167 -87.5 -72.5s-28.5 -108.833 -28.5 -181.5
v-192h118zM153.001 -315.002l-22.001 24c38 27.333 59 62 63 104c-1.33301 0 -4.33301 -0.166992 -9 -0.5s-7.66699 -0.5 -9 -0.5c-24 0 -41.167 7.16699 -51.5 21.5s-15.5 28.833 -15.5 43.5c0 15.333 5.16699 30.333 15.5 45s27.5 22 51.5 22
c22.667 0 39.334 -8 50.001 -24s16 -35.333 16 -58c0 -79.333 -29.667 -138.333 -89 -177z" />
    <glyph glyph-name="Rcaron" unicode="&#x158;" horiz-adv-x="651" 
d="M319 754h-27l-143 172h32l125 -76l114 76h27zM545 -11c-21.333 0 -39.3281 3.66895 -53.9951 11.002s-26.834 19 -36.501 35s-17.167 31.667 -22.5 47s-11.333 36 -18 62l-3 12c-16 60.667 -34 103 -54 127s-52 36 -96 36h-30v-286h112v-33h-301v33h82v624h-82v33h220
c92 0 163.167 -15.833 213.5 -47.5s75.5 -76.167 75.5 -133.5c0 -45.333 -19.333 -84.333 -58 -117s-87.334 -52.334 -146.001 -59.001c36.667 -14 66 -27 88 -39s39 -25.667 51 -41s20.333 -28.833 25 -40.5s9.66699 -28.834 15 -51.501
c13.333 -54.667 22.666 -89 27.999 -103s13.666 -21 24.999 -21c25.333 0 38 38.333 38 115h30c0 -54 -7.33301 -94.667 -22 -122s-41.334 -41 -80.001 -41zM266.005 657.002h-35v-306h33c114.667 0 172 52.333 172 157c0 99.333 -56.667 149 -170 149z" />
    <glyph glyph-name="rcaron" unicode="&#x159;" horiz-adv-x="468" 
d="M252 581h-27l-143 172h32l125 -76l114 76h27zM336 33l0.000976562 -33.002h-299v33h78v436h-78v32c60.667 0 98.834 0.666992 114.501 2s27.5 5.33301 35.5 12l14 -9v-147c6.66699 44 21.667 80.667 45 110s55.333 44 96 44c36.667 0 64.5 -10.167 83.5 -30.5
s28.5 -45.833 28.5 -76.5c0 -25.333 -5.83301 -44.666 -17.5 -57.999s-27.5 -20 -47.5 -20c-20.667 0 -37.334 6 -50.001 18s-19 28.333 -19 49c0 18 6 32.833 18 44.5s27.333 18.834 46 21.501c-10.667 12 -27.334 18 -50.001 18c-39.333 0 -68.5 -24.167 -87.5 -72.5
s-28.5 -108.833 -28.5 -181.5v-192h118z" />
    <glyph glyph-name="Sacute" unicode="&#x15a;" horiz-adv-x="501" 
d="M187 740l75 102.999c13.333 18 33 27 59 27h75c12 0 19.833 -1.66699 23.5 -5s3.66699 -7.66602 0 -12.999s-10.5 -11 -20.5 -17l-182 -95h-30zM263 -11.001c-66 0 -121.668 17.332 -167.001 51.999l-40 -51h-17v233h32c0 -54.667 16.833 -101.667 50.5 -141
s79.5 -59 137.5 -59c48.667 0 83.667 11.667 105 35s32 53.666 32 90.999c0 10 -1 19.5 -3 28.5s-4 17 -6 24s-5.83301 13.667 -11.5 20l-13.5 15.5c-3.33301 4 -9.33301 8.33301 -18 13s-15 8.16699 -19 10.5s-11.833 5.5 -23.5 9.5l-23.5 8
c-4 1.33301 -12.667 3.83301 -26 7.5s-22 6.16699 -26 7.5c-26.667 8 -49 16.167 -67 24.5s-36.833 20.166 -56.5 35.499s-34.5 36 -44.5 62s-15 56.667 -15 92c0 56 16.667 102.333 50 139s80 55 140 55c28 0 55.667 -4.66699 83 -14s49 -21.666 65 -36.999l36 50h18v-230
h-33c0 54 -15.833 100.167 -47.5 138.5s-69.5 57.5 -113.5 57.5c-43.333 0 -76.333 -11.167 -99 -33.5s-34 -52.5 -34 -90.5c0 -22.667 3.33301 -41.834 10 -57.501s18.834 -29 36.501 -40s32.334 -18.833 44.001 -23.5s31.5 -11.667 59.5 -21
c2.66699 -1.33301 4.66699 -2.16602 6 -2.49902s3.16602 -0.833008 5.49902 -1.5s4.5 -1.33398 6.5 -2.00098c28.667 -9.33301 52 -18.166 70 -26.499s37 -20.5 57 -36.5s34.833 -36.667 44.5 -62s14.5 -55.666 14.5 -90.999c0 -51.333 -16.333 -95.666 -49 -132.999
s-82.667 -56 -150 -56z" />
    <glyph glyph-name="sacute" unicode="&#x15b;" horiz-adv-x="446" 
d="M183 590l102 130.999c13.333 18 33 27 59 27h66c12 0 19.833 -1.66699 23.5 -5s3.66699 -7.66602 0 -12.999s-10.5 -11 -20.5 -17l-200 -123h-30zM46 -11.001l-0.00195312 182h34c0 -17.333 2.16699 -33.833 6.5 -49.5s11.666 -31.5 21.999 -47.5s26.5 -28.667 48.5 -38
s48.333 -14 79 -14c32.667 0 57.334 7.66699 74.001 23s25 36.666 25 63.999c0 10.667 -1.33301 20.334 -4 29.001s-7.66699 16.167 -15 22.5l-18.5 15.5c-5 4 -14.167 8.16699 -27.5 12.5s-22.833 7.33301 -28.5 9s-16.834 4.5 -33.501 8.5
c-23.333 5.33301 -43 11.166 -59 17.499s-32.333 15.333 -49 27s-29.167 27.167 -37.5 46.5s-12.5 42 -12.5 68c0 44 13.667 79.667 41 107s65 41 113 41c49.333 0 87.666 -12.333 114.999 -37l39 37h14v-178h-33c0 44 -10.833 78.833 -32.5 104.5s-54.167 38.5 -97.5 38.5
c-30 0 -53.5 -7.33301 -70.5 -22s-25.5 -34.667 -25.5 -60c0 -12 2.16699 -22.667 6.5 -32s9.83301 -17 16.5 -23s15.5 -11.333 26.5 -16s21.5 -8.5 31.5 -11.5s22.333 -6.5 37 -10.5l12 -3c22.667 -6 41.834 -12.167 57.501 -18.5s31.834 -15.5 48.501 -27.5
s29.334 -27.833 38.001 -47.5s13 -43.167 13 -70.5c0 -47.333 -14.167 -83.666 -42.5 -108.999s-67.166 -38 -116.499 -38c-50 0 -95.667 13 -137 39l-44 -39h-14z" />
    <glyph glyph-name="Scaron" unicode="&#x160;" horiz-adv-x="501" 
d="M267 754h-27l-143 172h32l125 -76l114 76h27zM263 -11c-66 0 -121.668 17.332 -167.001 51.999l-40 -51h-17v233h32c0 -54.667 16.833 -101.667 50.5 -141s79.5 -59 137.5 -59c48.667 0 83.667 11.667 105 35s32 53.666 32 90.999c0 10 -1 19.5 -3 28.5s-4 17 -6 24
s-5.83301 13.667 -11.5 20l-13.5 15.5c-3.33301 4 -9.33301 8.33301 -18 13s-15 8.16699 -19 10.5s-11.833 5.5 -23.5 9.5l-23.5 8c-4 1.33301 -12.667 3.83301 -26 7.5s-22 6.16699 -26 7.5c-26.667 8 -49 16.167 -67 24.5s-36.833 20.166 -56.5 35.499s-34.5 36 -44.5 62
s-15 56.667 -15 92c0 56 16.667 102.333 50 139s80 55 140 55c28 0 55.667 -4.66699 83 -14s49 -21.666 65 -36.999l36 50h18v-230h-33c0 54 -15.833 100.167 -47.5 138.5s-69.5 57.5 -113.5 57.5c-43.333 0 -76.333 -11.167 -99 -33.5s-34 -52.5 -34 -90.5
c0 -22.667 3.33301 -41.834 10 -57.501s18.834 -29 36.501 -40s32.334 -18.833 44.001 -23.5s31.5 -11.667 59.5 -21c2.66699 -1.33301 4.66699 -2.16602 6 -2.49902s3.16602 -0.833008 5.49902 -1.5s4.5 -1.33398 6.5 -2.00098c28.667 -9.33301 52 -18.166 70 -26.499
s37 -20.5 57 -36.5s34.833 -36.667 44.5 -62s14.5 -55.666 14.5 -90.999c0 -51.333 -16.333 -95.666 -49 -132.999s-82.667 -56 -150 -56z" />
    <glyph glyph-name="scaron" unicode="&#x161;" horiz-adv-x="446" 
d="M241 581h-27l-143 172h32l125 -76l114 76h27zM46 -11l-0.00195312 182h34c0 -17.333 2.16699 -33.833 6.5 -49.5s11.666 -31.5 21.999 -47.5s26.5 -28.667 48.5 -38s48.333 -14 79 -14c32.667 0 57.334 7.66699 74.001 23s25 36.666 25 63.999
c0 10.667 -1.33301 20.334 -4 29.001s-7.66699 16.167 -15 22.5l-18.5 15.5c-5 4 -14.167 8.16699 -27.5 12.5s-22.833 7.33301 -28.5 9s-16.834 4.5 -33.501 8.5c-23.333 5.33301 -43 11.166 -59 17.499s-32.333 15.333 -49 27s-29.167 27.167 -37.5 46.5
s-12.5 42 -12.5 68c0 44 13.667 79.667 41 107s65 41 113 41c49.333 0 87.666 -12.333 114.999 -37l39 37h14v-178h-33c0 44 -10.833 78.833 -32.5 104.5s-54.167 38.5 -97.5 38.5c-30 0 -53.5 -7.33301 -70.5 -22s-25.5 -34.667 -25.5 -60c0 -12 2.16699 -22.667 6.5 -32
s9.83301 -17 16.5 -23s15.5 -11.333 26.5 -16s21.5 -8.5 31.5 -11.5s22.333 -6.5 37 -10.5l12 -3c22.667 -6 41.834 -12.167 57.501 -18.5s31.834 -15.5 48.501 -27.5s29.334 -27.833 38.001 -47.5s13 -43.167 13 -70.5c0 -47.333 -14.167 -83.666 -42.5 -108.999
s-67.166 -38 -116.499 -38c-50 0 -95.667 13 -137 39l-44 -39h-14z" />
    <glyph glyph-name="Tcaron" unicode="&#x164;" horiz-adv-x="565" 
d="M297 754h-27l-143 172h32l125 -76l114 76h27zM125 0v33h104v624h-38c-53.333 0 -90 -10.167 -110 -30.5s-30 -58.5 -30 -114.5v-42h-32v220h527v-220h-32v42c0 56.667 -10 95 -30 115s-56.667 30 -110 30h-38v-624h104v-33h-315z" />
    <glyph glyph-name="tcaron" unicode="&#x165;" horiz-adv-x="389" 
d="M308 561l-22 24.998c39.333 28.667 61 64.334 65 107.001c-2 0 -5.33301 -0.166992 -10 -0.5s-7.66699 -0.5 -9 -0.5c-24.667 0 -42.334 7.33301 -53.001 22s-16 29.667 -16 45c0 16 5.33301 31.5 16 46.5s28.334 22.5 53.001 22.5c24 0 41.333 -8.16699 52 -24.5
s16 -36.166 16 -59.499c0 -82.667 -30.667 -143.667 -92 -183zM220 -11.002c-36 0 -66.667 9.83398 -92 29.501s-38 53.167 -38 100.5v350h-90v22c51.333 0 91.5 19.167 120.5 57.5s44.167 82.166 45.5 131.499h24v-179h157v-32h-154v-356c0 -58.667 20 -88 60 -88
c25.333 0 43.5 12 54.5 36s16.5 62.333 16.5 115h30c0 -62.667 -9.33301 -109.5 -28 -140.5s-54 -46.5 -106 -46.5z" />
    <glyph glyph-name="Umacron" unicode="&#x16a;" 
d="M228 796v47h244v-47h-244zM546 232c0 -82.667 -15.5 -143.833 -46.5 -183.5s-83.833 -59.5 -158.5 -59.5c-83.333 0 -143.333 20.167 -180 60.5s-55 101.5 -55 183.5v424h-82v33h283v-33h-93v-432c0 -65.333 10.5 -115.333 31.5 -150s58.5 -52 112.5 -52
c55.333 0 93.5 17.333 114.5 52s31.5 86 31.5 154v428h-93v33h217v-33h-82v-425z" />
    <glyph glyph-name="umacron" unicode="&#x16b;" horiz-adv-x="612" 
d="M199 672v47h244v-47h-244zM429 -5l-0.00292969 136c-13.333 -94.667 -66.666 -142 -159.999 -142c-55.333 0 -96.666 15.667 -123.999 47s-41 82 -41 152v281h-87v32c65.333 0 109 0.833008 131 2.5s37 5.5 45 11.5l13 -9v-311c0 -55.333 8.33301 -95 25 -119
s42.334 -36 77.001 -36c69.333 0 104 58 104 174v255h-122v32c81.333 0 134.833 0.833008 160.5 2.5s42.5 5.5 50.5 11.5l14 -9v-473h78v-33c-66.667 -0 -116.667 -4.66699 -150 -14z" />
    <glyph glyph-name="Uring" unicode="&#x16e;" 
d="M447 824c0 -19.333 -6.83301 -38.166 -20.5 -56.499s-35.5 -27.5 -65.5 -27.5c-30.667 0 -52.667 9.16699 -66 27.5s-20 37.166 -20 56.499c0 20 6.66699 39.167 20 57.5s35.333 27.5 66 27.5c30 0 51.833 -9.16699 65.5 -27.5s20.5 -37.5 20.5 -57.5zM320 824
c0 -30 14 -45 42 -45c15.333 0 26.333 5 33 15s10 20 10 30s-3.33301 19.833 -10 29.5s-17.667 14.5 -33 14.5c-28 0 -42 -14.667 -42 -44zM546 232c0 -82.667 -15.5 -143.833 -46.5 -183.5s-83.833 -59.5 -158.5 -59.5c-83.333 0 -143.333 20.167 -180 60.5
s-55 101.5 -55 183.5v424h-82v33h283v-33h-93v-432c0 -65.333 10.5 -115.333 31.5 -150s58.5 -52 112.5 -52c55.333 0 93.5 17.333 114.5 52s31.5 86 31.5 154v428h-93v33h217v-33h-82v-425z" />
    <glyph glyph-name="uring" unicode="&#x16f;" horiz-adv-x="612" 
d="M400 681c0 -19.333 -6.83301 -38.166 -20.5 -56.499s-35.5 -27.5 -65.5 -27.5c-30.667 0 -52.667 9.16699 -66 27.5s-20 37.166 -20 56.499c0 20 6.66699 39.167 20 57.5s35.333 27.5 66 27.5c30 0 51.833 -9.16699 65.5 -27.5s20.5 -37.5 20.5 -57.5zM273 681
c0 -30 14 -45 42 -45c15.333 0 26.333 5 33 15s10 20 10 30s-3.33301 19.833 -10 29.5s-17.667 14.5 -33 14.5c-28 0 -42 -14.667 -42 -44zM429 -5l-0.00292969 136c-13.333 -94.667 -66.666 -142 -159.999 -142c-55.333 0 -96.666 15.667 -123.999 47s-41 82 -41 152v281
h-87v32c65.333 0 109 0.833008 131 2.5s37 5.5 45 11.5l13 -9v-311c0 -55.333 8.33301 -95 25 -119s42.334 -36 77.001 -36c69.333 0 104 58 104 174v255h-122v32c81.333 0 134.833 0.833008 160.5 2.5s42.5 5.5 50.5 11.5l14 -9v-473h78v-33
c-66.667 -0 -116.667 -4.66699 -150 -14z" />
    <glyph glyph-name="Uhungarumlaut" unicode="&#x170;" 
d="M273 740l37.001 104c3.33301 17.333 19.666 26 48.999 26h34c34 0 38 -11.333 12 -34l-102 -96h-30zM381.001 740l93.999 103.998c14.667 17.333 34.334 26 59.001 26h60c12 0 20 -1.66699 24 -5s3.83301 -7.66602 -0.5 -12.999s-11.5 -10.666 -21.5 -15.999l-183 -96
h-32zM546 231.998c0 -82.667 -15.5 -143.833 -46.5 -183.5s-83.833 -59.5 -158.5 -59.5c-83.333 0 -143.333 20.167 -180 60.5s-55 101.5 -55 183.5v424h-82v33h283v-33h-93v-432c0 -65.333 10.5 -115.333 31.5 -150s58.5 -52 112.5 -52c55.333 0 93.5 17.333 114.5 52
s31.5 86 31.5 154v428h-93v33h217v-33h-82v-425z" />
    <glyph glyph-name="uhungarumlaut" unicode="&#x171;" horiz-adv-x="612" 
d="M243 590l45.002 132c3.33301 17.333 19.666 26 48.999 26h44c18 0 27.667 -2.83301 29 -8.5s-4.33398 -14.167 -17.001 -25.5l-120 -124h-30zM352.002 590l105 132c13.333 17.333 33 26 59 26h66c12 0 19.833 -1.66699 23.5 -5s3.5 -7.5 -0.5 -12.5s-11 -10.5 -21 -16.5
l-201 -124h-31zM429.002 -5l-0.00292969 136c-13.333 -94.667 -66.666 -142 -159.999 -142c-55.333 0 -96.666 15.667 -123.999 47s-41 82 -41 152v281h-87v32c65.333 0 109 0.833008 131 2.5s37 5.5 45 11.5l13 -9v-311c0 -55.333 8.33301 -95 25 -119
s42.334 -36 77.001 -36c69.333 0 104 58 104 174v255h-122v32c81.333 0 134.833 0.833008 160.5 2.5s42.5 5.5 50.5 11.5l14 -9v-473h78v-33c-66.667 -0 -116.667 -4.66699 -150 -14z" />
    <glyph glyph-name="Uogonek" unicode="&#x172;" 
d="M367 -147c-31.333 0 -56.833 5.99805 -76.5 17.998s-29.5 29.667 -29.5 53c0 30.667 17.333 52.667 52 66c-73.333 4 -126.166 26.167 -158.499 66.5s-48.5 99.166 -48.5 176.499v424h-82v33h283v-33h-93v-432c0 -65.333 10.5 -115.333 31.5 -150s58.5 -52 112.5 -52
c55.333 0 93.5 17.333 114.5 52s31.5 86 31.5 154v428h-93v33h217v-33h-82v-425c0 -74.667 -12.333 -131.667 -37 -171s-66.334 -62.666 -125.001 -69.999c-14.667 0 -27.5 -5.16699 -38.5 -15.5s-16.5 -23.166 -16.5 -38.499c0 -17.333 6.16699 -30.666 18.5 -39.999
s27.833 -14 46.5 -14c22 0 39.667 6 53 18l13 -11c-15.333 -24.667 -46.333 -37 -93 -37z" />
    <glyph glyph-name="uogonek" unicode="&#x173;" horiz-adv-x="612" 
d="M570 -137c-68.667 0 -103.002 21.668 -103.002 65.001c0 33.333 20.667 56.666 62 69.999c-37.333 -2.66699 -66 -6.66699 -86 -12l-14 9v136c-13.333 -94.667 -66.666 -142 -159.999 -142c-55.333 0 -96.666 15.667 -123.999 47s-41 82 -41 152v281h-87v32
c65.333 0 109 0.833008 131 2.5s37 5.5 45 11.5l13 -9v-311c0 -55.333 8.33301 -95 25 -119s42.334 -36 77.001 -36c69.333 0 104 58 104 174v255h-122v32c129.333 0 199.666 4.66699 210.999 14l14 -9v-473h78v-33c-16.667 0 -30.5 -4.83301 -41.5 -14.5
s-16.5 -22.5 -16.5 -38.5c0 -36 21.667 -54 65 -54c22 0 39.667 6 53 18l13 -11c-15.333 -24.667 -47.333 -37 -96 -37z" />
    <glyph glyph-name="Ydieresis" unicode="&#x178;" horiz-adv-x="603" 
d="M235 756c-22.667 0 -39 7.33301 -49 22s-15 29.667 -15 45c0 16 5 31.333 15 46s26.333 22 49 22c22 0 38.167 -7.33301 48.5 -22s15.5 -30 15.5 -46c0 -15.333 -5.16699 -30.333 -15.5 -45s-26.5 -22 -48.5 -22zM427 756c-22 0 -38 7.33301 -48 22s-15 29.667 -15 45
c0 16 5 31.333 15 46s26 22 48 22s38.167 -7.33301 48.5 -22s15.5 -30 15.5 -46c0 -15.333 -5.16699 -30.333 -15.5 -45s-26.5 -22 -48.5 -22zM169 0v33h87v281l-181 343h-70v33h286v-33h-105l155 -293l146 293h-87v33h198v-33h-68l-166 -334v-290h88v-33h-283z" />
    <glyph glyph-name="Zacute" unicode="&#x179;" horiz-adv-x="527" 
d="M225 740l75 102.999c13.333 18 33 27 59 27h75c12 0 19.833 -1.66699 23.5 -5s3.66699 -7.66602 0 -12.999s-10.5 -11 -20.5 -17l-182 -95h-30zM29 -0.000976562v23l347 634h-160c-54.667 0 -92.5 -10 -113.5 -30s-31.5 -58.333 -31.5 -115v-42h-32v220h450v-23
l-349 -634h191c54 0 90 12.167 108 36.5s27 63.833 27 118.5v36h32v-224h-469z" />
    <glyph glyph-name="zacute" unicode="&#x17a;" horiz-adv-x="471" 
d="M178 593l102 130.999c13.333 18 33 27 59 27h66c12 0 19.833 -1.66699 23.5 -5s3.66699 -7.66602 0 -12.999s-10.5 -11 -20.5 -17l-200 -123h-30zM32 -0.000976562l-0.00195312 22.999l293 446h-136c-41.333 0 -69.666 -10.167 -84.999 -30.5s-23 -51.166 -23 -92.499
v-25h-33v180h387v-22l-293 -446h156c40.667 0 68.834 10.333 84.501 31s23.5 51.667 23.5 93v24h33v-181h-407z" />
    <glyph glyph-name="Zdotaccent" unicode="&#x17b;" horiz-adv-x="527" 
d="M338 831c0 -16 -5.66699 -31.333 -17 -46s-29.333 -22 -54 -22c-25.333 0 -43.5 7.33301 -54.5 22s-16.5 30 -16.5 46s5.5 31.333 16.5 46s29.167 22 54.5 22c24.667 0 42.667 -7.33301 54 -22s17 -30 17 -46zM29 0v23l347 634h-160c-54.667 0 -92.5 -10 -113.5 -30
s-31.5 -58.333 -31.5 -115v-42h-32v220h450v-23l-349 -634h191c54 0 90 12.167 108 36.5s27 63.833 27 118.5v36h32v-224h-469z" />
    <glyph glyph-name="zdotaccent" unicode="&#x17c;" horiz-adv-x="471" 
d="M310 698c0 -16 -5.66699 -31.333 -17 -46s-29.333 -22 -54 -22c-25.333 0 -43.5 7.33301 -54.5 22s-16.5 30 -16.5 46s5.5 31.333 16.5 46s29.167 22 54.5 22c24.667 0 42.667 -7.33301 54 -22s17 -30 17 -46zM32 0l-0.00195312 22.999l293 446h-136
c-41.333 0 -69.666 -10.167 -84.999 -30.5s-23 -51.166 -23 -92.499v-25h-33v180h387v-22l-293 -446h156c40.667 0 68.834 10.333 84.501 31s23.5 51.667 23.5 93v24h33v-181h-407z" />
    <glyph glyph-name="Zcaron" unicode="&#x17d;" horiz-adv-x="527" 
d="M283 754h-27l-143 172h32l125 -76l114 76h27zM29 0v23l347 634h-160c-54.667 0 -92.5 -10 -113.5 -30s-31.5 -58.333 -31.5 -115v-42h-32v220h450v-23l-349 -634h191c54 0 90 12.167 108 36.5s27 63.833 27 118.5v36h32v-224h-469z" />
    <glyph glyph-name="zcaron" unicode="&#x17e;" horiz-adv-x="471" 
d="M263 581h-27l-143 172h32l125 -76l114 76h27zM32 0l-0.00195312 22.999l293 446h-136c-41.333 0 -69.666 -10.167 -84.999 -30.5s-23 -51.166 -23 -92.499v-25h-33v180h387v-22l-293 -446h156c40.667 0 68.834 10.333 84.501 31s23.5 51.667 23.5 93v24h33v-181h-407z
" />
    <glyph glyph-name="uni0192" unicode="&#x192;" horiz-adv-x="437" 
d="M35 -259c-34 0 -62.502 7.83398 -85.502 23.501s-34.5 39.167 -34.5 70.5c0 23.333 6.33301 42.5 19 57.5s30.667 22.5 54 22.5c18 0 32.167 -5.33301 42.5 -16s15.5 -24.334 15.5 -41.001c0 -20.667 -6.33301 -37.167 -19 -49.5s-30 -19.166 -52 -20.499
c12 -10.667 29.333 -16 52 -16c31.333 0 55.833 12.5 73.5 37.5s30.167 66.833 37.5 125.5l66 534h-92v32h96c6.66699 51.333 18.167 95.166 34.5 131.499s35.833 63.666 58.5 81.999s45 31.333 67 39s44.667 11.5 68 11.5c33.333 0 62.333 -8 87 -24s37 -40 37 -72
c0 -22.667 -6.33301 -41.5 -19 -56.5s-30.667 -22.5 -54 -22.5c-18 0 -32.167 5.33301 -42.5 16s-15.5 24.334 -15.5 41.001c0 20.667 6.33301 37 19 49s30 18.667 52 20c-10 11.333 -27.333 17 -52 17c-35.333 0 -63.666 -12.667 -84.999 -38s-36 -67 -44 -125l-9 -69h124
v-32h-127l-58 -466c-11.333 -90.667 -37.166 -157 -77.499 -199s-85.833 -63 -136.5 -63z" />
    <glyph glyph-name="circumflex" unicode="&#x2c6;" horiz-adv-x="388" 
d="M77 581h-32l138 172h27l133 -172h-27l-120 75z" />
    <glyph glyph-name="caron" unicode="&#x2c7;" horiz-adv-x="388" 
d="M215 581h-27l-143 172h32l125 -76l114 76h27z" />
    <glyph glyph-name="breve" unicode="&#x2d8;" horiz-adv-x="438" 
d="M378 765c0 -55.333 -12.501 -99.999 -37.501 -133.999s-63.833 -51 -116.5 -51c-53.333 0 -94 17.333 -122 52s-42 79 -42 133h23c0 -34.667 10.833 -63.334 32.5 -86.001s57.834 -34 108.501 -34c50 0 84.333 11 103 33s28 51 28 87h23z" />
    <glyph glyph-name="dotaccent" unicode="&#x2d9;" horiz-adv-x="249" 
d="M192 698c0 -16 -5.66699 -31.333 -17 -46s-29.333 -22 -54 -22c-25.333 0 -43.5 7.33301 -54.5 22s-16.5 30 -16.5 46s5.5 31.333 16.5 46s29.167 22 54.5 22c24.667 0 42.667 -7.33301 54 -22s17 -30 17 -46z" />
    <glyph glyph-name="ring" unicode="&#x2da;" horiz-adv-x="278" 
d="M225 681c0 -19.333 -6.83301 -38.166 -20.5 -56.499s-35.5 -27.5 -65.5 -27.5c-30.667 0 -52.667 9.16699 -66 27.5s-20 37.166 -20 56.499c0 20 6.66699 39.167 20 57.5s35.333 27.5 66 27.5c30 0 51.833 -9.16699 65.5 -27.5s20.5 -37.5 20.5 -57.5zM98 681
c0 -30 14 -45 42 -45c15.333 0 26.333 5 33 15s10 20 10 30s-3.33301 19.833 -10 29.5s-17.667 14.5 -33 14.5c-28 0 -42 -14.667 -42 -44z" />
    <glyph glyph-name="ogonek" unicode="&#x2db;" horiz-adv-x="497" 
d="M381 -99c-18 -25.333 -49.334 -38 -94.001 -38c-31.333 0 -56.666 6 -75.999 18s-29 30 -29 54c0 49.333 42 74 126 74v-9c-16.667 0 -30.5 -4.83301 -41.5 -14.5s-16.5 -22.5 -16.5 -38.5c0 -36 21.667 -54 65 -54c25.333 0 43 6.33301 53 19z" />
    <glyph glyph-name="tilde" unicode="&#x2dc;" horiz-adv-x="455" 
d="M392 760c0 -84.667 -31.002 -127.002 -93.002 -127.002c-17.333 0 -34.166 3.83301 -50.499 11.5s-29.666 16.334 -39.999 26.001s-22 18.334 -35 26.001s-25.5 11.5 -37.5 11.5c-31.333 0 -47 -23 -47 -69h-25c0 84.667 30 127 90 127c20 0 38.667 -3.83301 56 -11.5
s30.833 -16 40.5 -25s21 -17.333 34 -25s25.833 -11.5 38.5 -11.5c29.333 0 44 22.333 44 67h25z" />
    <glyph glyph-name="hungarumlaut" unicode="&#x2dd;" horiz-adv-x="500" 
d="M63 590l45.002 132c3.33301 17.333 19.666 26 48.999 26h44c18 0 27.667 -2.83301 29 -8.5s-4.33398 -14.167 -17.001 -25.5l-120 -124h-30zM172.002 590l105 132c13.333 17.333 33 26 59 26h66c12 0 19.833 -1.66699 23.5 -5s3.5 -7.5 -0.5 -12.5s-11 -10.5 -21 -16.5
l-201 -124h-31z" />
    <glyph glyph-name="pi" unicode="&#x3c0;" horiz-adv-x="686" 
d="M535 -11c-81.333 0 -121.998 43.334 -121.998 130.001v341h-136v-286c0 -62 -9.5 -108.333 -28.5 -139s-50.5 -46 -94.5 -46c-34 0 -61.5 10 -82.5 30s-31.5 46.667 -31.5 80c0 50.667 23 76 69 76c20 0 35 -6 45 -18s15 -27.333 15 -46
c0 -40.667 -23.667 -61.667 -71 -63c8 -16.667 27 -25 57 -25c31.333 0 52.833 12.667 64.5 38s17.5 60.666 17.5 105.999v293h-12c-38.667 0 -70.834 -5 -96.501 -15s-50.834 -30.667 -75.501 -62l-19 13c40.667 70 110.667 105 210 105h385v-41h-113v-347
c0 -32.667 3.83301 -55.5 11.5 -68.5s21.167 -19.5 40.5 -19.5c24.667 0 41.167 11.5 49.5 34.5s12.5 61.833 12.5 116.5h29c0 -64.667 -8 -112 -24 -142s-49.333 -45 -100 -45z" />
    <glyph glyph-name="uni0401" unicode="&#x401;" horiz-adv-x="583" 
d="M200 756c-22.667 0 -39 7.33301 -49 22s-15 29.667 -15 45c0 16 5 31.333 15 46s26.333 22 49 22c22 0 38.167 -7.33301 48.5 -22s15.5 -30 15.5 -46c0 -15.333 -5.16699 -30.333 -15.5 -45s-26.5 -22 -48.5 -22zM392 756c-22 0 -38 7.33301 -48 22s-15 29.667 -15 45
c0 16 5 31.333 15 46s26 22 48 22s38.167 -7.33301 48.5 -22s15.5 -30 15.5 -46c0 -15.333 -5.16699 -30.333 -15.5 -45s-26.5 -22 -48.5 -22zM42 0v33h82v624h-82v33h477v-220h-33v42c0 56 -11.833 94.167 -35.5 114.5s-63.5 30.5 -119.5 30.5h-100v-290h145v77h37v-195
h-37v86h-145v-302h138c54 0 90 12 108 36s27 63.667 27 119v36h33v-224h-495z" />
    <glyph glyph-name="uni0402" unicode="&#x402;" horiz-adv-x="709" 
d="M336 352c34 52.667 84.667 79 152 79c58 0 103.167 -17.667 135.5 -53s48.5 -88 48.5 -158c0 -78.667 -16 -135.667 -48 -171s-70 -53 -114 -53c-31.333 0 -54 5.33301 -68 16l8 19c10 -3.33301 20.667 -5 32 -5c54.667 0 82 62.667 82 188
c0 53.333 -9.5 94.333 -28.5 123s-47.167 43 -84.5 43c-35.333 0 -63.333 -12.167 -84 -36.5s-31 -57.833 -31 -100.5v-210h58v-33h-269v33h104v624h-39c-53.333 0 -89.833 -9.5 -109.5 -28.5s-29.5 -56.5 -29.5 -112.5v-16h-32v190h527v-190h-32v16
c0 56 -10 93.5 -30 112.5s-56.667 28.5 -110 28.5h-38v-305z" />
    <glyph glyph-name="uni0403" unicode="&#x403;" horiz-adv-x="533" 
d="M243 740l75 102.999c13.333 18 33 27 59 27h75c12 0 19.833 -1.66699 23.5 -5s3.66699 -7.66602 0 -12.999s-10.5 -11 -20.5 -17l-182 -95h-30zM42 -0.000976562v33h82v624h-82v33h471v-220h-32v42c0 55.333 -12 93.333 -36 114s-64 31 -120 31h-94v-624h135v-33h-324z
" />
    <glyph glyph-name="uni0404" unicode="&#x404;" horiz-adv-x="591" 
d="M531 224v-234.001h-18l-40 38c-37.333 -26 -83.333 -39 -138 -39c-48 0 -91.333 11 -130 33s-69.834 50.667 -93.501 86s-41.667 73.5 -54 114.5s-18.5 82.167 -18.5 123.5c0 56 11 110.5 33 163.5s56.167 98.167 102.5 135.5s99.5 56 159.5 56
c54.667 0 99.334 -12.333 134.001 -37l40 36h18v-230h-33c0 131.333 -51 197 -153 197c-56.667 0 -101 -23 -133 -69s-48.667 -124.333 -50 -235h282v-33h-282c2.66699 -204.667 63.667 -307 183 -307c55.333 0 95.5 18.333 120.5 55s37.5 85.334 37.5 146.001h33z" />
    <glyph glyph-name="uni0405" unicode="&#x405;" horiz-adv-x="501" 
d="M263 -11c-66 0 -121.668 17.332 -167.001 51.999l-40 -51h-17v233h32c0 -54.667 16.833 -101.667 50.5 -141s79.5 -59 137.5 -59c48.667 0 83.667 11.667 105 35s32 53.666 32 90.999c0 10 -1 19.5 -3 28.5s-4 17 -6 24s-5.83301 13.667 -11.5 20l-13.5 15.5
c-3.33301 4 -9.33301 8.33301 -18 13s-15 8.16699 -19 10.5s-11.833 5.5 -23.5 9.5l-23.5 8c-4 1.33301 -12.667 3.83301 -26 7.5s-22 6.16699 -26 7.5c-26.667 8 -49 16.167 -67 24.5s-36.833 20.166 -56.5 35.499s-34.5 36 -44.5 62s-15 56.667 -15 92
c0 56 16.667 102.333 50 139s80 55 140 55c28 0 55.667 -4.66699 83 -14s49 -21.666 65 -36.999l36 50h18v-230h-33c0 54 -15.833 100.167 -47.5 138.5s-69.5 57.5 -113.5 57.5c-43.333 0 -76.333 -11.167 -99 -33.5s-34 -52.5 -34 -90.5
c0 -22.667 3.33301 -41.834 10 -57.501s18.834 -29 36.501 -40s32.334 -18.833 44.001 -23.5s31.5 -11.667 59.5 -21c2.66699 -1.33301 4.66699 -2.16602 6 -2.49902s3.16602 -0.833008 5.49902 -1.5s4.5 -1.33398 6.5 -2.00098c28.667 -9.33301 52 -18.166 70 -26.499
s37 -20.5 57 -36.5s34.833 -36.667 44.5 -62s14.5 -55.666 14.5 -90.999c0 -51.333 -16.333 -95.666 -49 -132.999s-82.667 -56 -150 -56z" />
    <glyph glyph-name="uni0406" unicode="&#x406;" horiz-adv-x="364" 
d="M322 0h-280v33h86v624h-86v33h280v-33h-86v-624h86v-33z" />
    <glyph glyph-name="uni0407" unicode="&#x407;" horiz-adv-x="364" 
d="M86 756c-22.667 0 -39 7.33301 -49 22s-15 29.667 -15 45c0 16 5 31.333 15 46s26.333 22 49 22c22 0 38.167 -7.33301 48.5 -22s15.5 -30 15.5 -46c0 -15.333 -5.16699 -30.333 -15.5 -45s-26.5 -22 -48.5 -22zM278 756c-22 0 -38 7.33301 -48 22s-15 29.667 -15 45
c0 16 5 31.333 15 46s26 22 48 22s38.167 -7.33301 48.5 -22s15.5 -30 15.5 -46c0 -15.333 -5.16699 -30.333 -15.5 -45s-26.5 -22 -48.5 -22zM322 0h-280v33h86v624h-86v33h280v-33h-86v-624h86v-33z" />
    <glyph glyph-name="uni0408" unicode="&#x408;" horiz-adv-x="455" 
d="M363 237c0 -86 -16.668 -148.834 -50.001 -188.501s-82.666 -59.5 -147.999 -59.5c-50 0 -87.833 12.833 -113.5 38.5s-38.5 59.167 -38.5 100.5c0 25.333 6.33301 45.5 19 60.5s29.667 22.5 51 22.5c20.667 0 37 -6.33301 49 -19s18 -28 18 -46
c0 -45.333 -27 -69 -81 -71c2 -13.333 10.833 -25.166 26.5 -35.499s35.5 -15.5 59.5 -15.5c39.333 0 66 14.333 80 43s21 79 21 151v439h-109v33h298v-33h-82v-420z" />
    <glyph glyph-name="uni0409" unicode="&#x409;" horiz-adv-x="894" 
d="M271 657c0 -70 -0.331055 -130.002 -0.998047 -180.002s-2 -98.333 -4 -145s-4.66699 -85.667 -8 -117s-7.83301 -60.666 -13.5 -87.999s-12.167 -49 -19.5 -65s-16.5 -29.833 -27.5 -41.5s-23 -19.834 -36 -24.501s-28.167 -7 -45.5 -7c-28 0 -51.833 9.33301 -71.5 28
s-29.5 45 -29.5 79c0 20.667 5.83301 38.334 17.5 53.001s28.167 22 49.5 22s37.333 -6.5 48 -19.5s16 -28.167 16 -45.5c0 -42.667 -24.667 -64 -74 -64c8.66699 -12.667 24.667 -19 48 -19c16.667 0 30.667 4.16699 42 12.5s21.166 23.833 29.499 46.5
s14.833 48.167 19.5 76.5s8.16699 68.833 10.5 121.5s3.83301 106.667 4.5 162s1 127 1 215h-101v33h507v-33h-82v-264h58c71.333 0 133.333 -17.167 186 -51.5s79 -82.166 79 -143.499c0 -64 -22.333 -113 -67 -147s-109.334 -51 -194.001 -51h-252v33h86v624h-176z
M551.002 32.998l48 0.00195312c57.333 0 98.333 13.667 123 41s37 68.666 37 123.999c0 53.333 -14.333 93.666 -43 120.999s-67 41 -115 41h-50v-327z" />
    <glyph glyph-name="uni040A" unicode="&#x40a;" horiz-adv-x="945" 
d="M601 33l48 0.000976562c56.667 0 97.5 13.167 122.5 39.5s37.5 65.166 37.5 116.499c0 50 -14.333 87.667 -43 113s-66.667 38 -114 38h-51v-307zM42 0.000976562v33h82v624h-82v33h269v-33h-80v-289h263v289h-80v33h269v-33h-82v-284h59
c70.667 0 132.5 -16.333 185.5 -49s79.5 -77.667 79.5 -135c0 -60 -22.5 -106.5 -67.5 -139.5s-109.833 -49.5 -194.5 -49.5h-249v33h80v303h-263v-303h80v-33h-269z" />
    <glyph glyph-name="uni040B" unicode="&#x40b;" horiz-adv-x="768" 
d="M336 351c12 20.667 31.333 39 58 55s58 24 94 24c116.667 0 175 -66.333 175 -199v-198h78v-33h-256v33h75v191c0 55.333 -9.5 95 -28.5 119s-46.5 36 -82.5 36c-34.667 0 -62.167 -12.167 -82.5 -36.5s-30.5 -57.833 -30.5 -100.5v-209h75v-33h-286v33h104v624h-39
c-53.333 0 -89.833 -9.5 -109.5 -28.5s-29.5 -56.5 -29.5 -112.5v-16h-32v190h527v-190h-32v16c0 56 -10 93.5 -30 112.5s-56.667 28.5 -110 28.5h-38v-306z" />
    <glyph glyph-name="uni040C" unicode="&#x40c;" 
d="M309 740l75 102.999c13.333 18 33 27 59 27h75c12 0 19.833 -1.66699 23.5 -5s3.66699 -7.66602 0 -12.999s-10.5 -11 -20.5 -17l-182 -95h-30zM541 -11.001c-38.667 0 -66.998 12.167 -84.998 36.5s-34.667 62.5 -50 114.5c-8.66699 30 -16.667 54.667 -24 74
s-16.666 39.333 -27.999 60s-24.833 36.167 -40.5 46.5s-33.167 15.5 -52.5 15.5h-34v-303h88v-33h-273v33h82v624h-82v33h266v-33h-81v-289h69c25.333 0 45.166 11.5 59.499 34.5s24.666 50.667 30.999 83l20 97.5c7 32.667 19.5 60.5 37.5 83.5s42.667 34.5 74 34.5
c28.667 0 51.667 -8 69 -24s26 -39.333 26 -70c0 -48.667 -21 -73 -63 -73c-20 0 -36.333 5.66699 -49 17s-19 27.666 -19 48.999c0 14 4.33301 27.833 13 41.5s23.334 21.5 44.001 23.5c-6.66699 3.33301 -15.334 5 -26.001 5c-19.333 0 -35 -10.333 -47 -31
s-21 -46 -27 -76l-19 -90.5c-6.66699 -30.333 -17.167 -57.166 -31.5 -80.499s-32.5 -37 -54.5 -41c68.667 -28 112.167 -52.5 130.5 -73.5s37.833 -67.5 58.5 -139.5c15.333 -52 26.666 -82.333 33.999 -91c6 -7.33301 14 -11 24 -11c22.667 0 34 41.667 34 125h29
c0 -58.667 -6.5 -102 -19.5 -130s-40.833 -42 -83.5 -42z" />
    <glyph glyph-name="uni040E" unicode="&#x40e;" horiz-adv-x="573" 
d="M506 897c0 -37.333 -14.999 -70.8311 -44.999 -100.498s-71.667 -44.5 -125 -44.5s-95.166 14.833 -125.499 44.5s-45.5 63.167 -45.5 100.5c0 18 5.16699 32.833 15.5 44.5s24.5 17.5 42.5 17.5c17.333 0 30.666 -4.83301 39.999 -14.5s14 -21.834 14 -36.501
c0 -16.667 -7 -30.834 -21 -42.501s-33.333 -14.834 -58 -9.50098c18.667 -32.667 64.667 -49 138 -49c75.333 0 122.666 16.667 141.999 50c-29.333 -6.66699 -50.5 -4.5 -63.5 6.5s-19.5 25.833 -19.5 44.5c0 14.667 4.66699 26.834 14 36.501s22.333 14.5 39 14.5
c18.667 0 33 -5.83301 43 -17.5s15 -26.5 15 -44.5zM174.001 -10.998c-33.333 0 -60.833 10.832 -82.5 32.499s-32.5 52.834 -32.5 93.501c0 21.333 6.16699 39.166 18.5 53.499s29.5 21.5 51.5 21.5c21.333 0 37.5 -6.66699 48.5 -20s16.5 -29 16.5 -47
c0 -42.667 -25.667 -65 -77 -67c9.33301 -22 29.333 -33 60 -33c27.333 0 48.5 9.83301 63.5 29.5s33.167 54.834 54.5 105.501l-231 499h-76v33h306v-33h-120l172 -371l137 371h-93v33h205v-33h-70l-149 -396c-42.667 -114 -76 -187.833 -100 -221.5s-58 -50.5 -102 -50.5z
" />
    <glyph glyph-name="uni040F" unicode="&#x40f;" horiz-adv-x="711" 
d="M356 -216c-19.333 0 -33.333 6.33301 -42 19s-13 27 -13 43c0 16.667 6.16699 42 18.5 76s18.833 60 19.5 78h-297v33h82v624h-82v33h260v-33h-71v-624h248v624h-70v33h260v-33h-82v-624h82v-33h-296c1.33301 -17.333 8 -42.833 20 -76.5s18 -59.5 18 -77.5
c0 -16 -4.66699 -30.333 -14 -43s-23 -19 -41 -19z" />
    <glyph glyph-name="uni0410" unicode="&#x410;" horiz-adv-x="600" 
d="M356 254l-95 281l-95 -281h190zM-12 0v33h64l229 667h36l227 -667h69v-33h-301v33h119l-64 188h-212l-64 -188h116v-33h-219z" />
    <glyph glyph-name="uni0411" unicode="&#x411;" horiz-adv-x="592" 
d="M42 0v33h82v624h-82v33h472v-211h-33v33c0 56 -11.833 94.167 -35.5 114.5s-63.5 30.5 -119.5 30.5h-95v-275h68c71.333 0 133.333 -16.5 186 -49.5s79 -79.167 79 -138.5c0 -62.667 -22.833 -110.667 -68.5 -144s-112.167 -50 -199.5 -50h-254zM291 350l-60 0.000976562
v-317h57c57.333 0 98.333 13.333 123 40s37 67 37 121c0 51.333 -14.333 90.166 -43 116.499s-66.667 39.5 -114 39.5z" />
    <glyph glyph-name="uni0412" unicode="&#x412;" horiz-adv-x="609" 
d="M42 0v33h82v624h-82v33h212c192.667 0 289 -57 289 -171c0 -42.667 -14.5 -79 -43.5 -109s-66.833 -48.333 -113.5 -55c55.333 -8.66699 100.833 -26.5 136.5 -53.5s53.5 -64.833 53.5 -113.5c0 -125.333 -89 -188 -267 -188h-267zM262 657h-31.001v-290h63
c44.667 0 78.334 13 101.001 39s34 63.333 34 112c0 46.667 -13.167 81.5 -39.5 104.5s-68.833 34.5 -127.5 34.5zM299.999 337l-69 0.000976562v-304h67c58 0 99.333 12.667 124 38s37 64.666 37 117.999c0 98.667 -53 148 -159 148z" />
    <glyph glyph-name="uni0413" unicode="&#x413;" horiz-adv-x="533" 
d="M42 0v33h82v624h-82v33h471v-220h-32v42c0 55.333 -12 93.333 -36 114s-64 31 -120 31h-94v-624h135v-33h-324z" />
    <glyph glyph-name="uni0414" unicode="&#x414;" horiz-adv-x="628" 
d="M404 657l-191.998 0.000976562c-0.666992 -172.667 -8.33398 -306.334 -23.001 -401.001s-37.334 -169 -68.001 -223h283v624zM41.002 -179.999h-32v213h62c34.667 51.333 59.5 123 74.5 215s22.833 228.333 23.5 409h-81v33h505v-33h-82v-624h98v-213h-33v32
c0 57.333 -10.5 96.333 -31.5 117s-58.833 31 -113.5 31h-244c-55.333 0 -93.5 -10.333 -114.5 -31s-31.5 -59.667 -31.5 -117v-32z" />
    <glyph glyph-name="uni0415" unicode="&#x415;" horiz-adv-x="583" 
d="M42 0v33h82v624h-82v33h477v-220h-33v42c0 56 -11.833 94.167 -35.5 114.5s-63.5 30.5 -119.5 30.5h-100v-290h145v77h37v-195h-37v86h-145v-302h138c54 0 90 12 108 36s27 63.667 27 119v36h33v-224h-495z" />
    <glyph glyph-name="uni0416" unicode="&#x416;" horiz-adv-x="956" 
d="M839 -11c-20.667 0 -38.3359 3.33008 -53.0029 9.99707s-27.167 18 -37.5 34s-18.333 31.333 -24 46s-12.5 35 -20.5 61l-12 41.5c-6 21 -10.167 35 -12.5 42s-6.5 18.5 -12.5 34.5s-11.5 27.167 -16.5 33.5s-11.333 13.833 -19 22.5s-16 14.5 -25 17.5
s-19.167 4.5 -30.5 4.5h-42v-303h79v-33h-262v33h79v303h-51c-8.66699 0 -16.834 -1 -24.501 -3s-14.667 -5.5 -21 -10.5s-12 -9.83301 -17 -14.5s-10 -11.667 -15 -21s-9 -17.166 -12 -23.499s-6.66699 -15.833 -11 -28.5s-7.5 -22.5 -9.5 -29.5l-9.5 -32.5
c-4.33301 -14.667 -7.5 -25.667 -9.5 -33c-6.66699 -21.333 -12 -37.833 -16 -49.5s-9.66699 -25.167 -17 -40.5s-15.166 -26.666 -23.499 -33.999s-19 -13.666 -32 -18.999s-27.833 -8 -44.5 -8c-22.667 0 -41.167 4 -55.5 12s-25 20.5 -32 37.5s-11.5 34.667 -13.5 53
s-3 41.5 -3 69.5h30c0 -83.333 12.333 -125 37 -125c6.66699 0 12.167 1.5 16.5 4.5s9 9.83301 14 20.5s9 20.5 12 29.5s7.83301 24.833 14.5 47.5c18.667 64 32 103.333 40 118c16 28 45.333 51.667 88 71c16 7.33301 35.667 15.333 59 24c-22.667 4 -41 17.667 -55 41
s-24.333 50.166 -31 80.499l-20 90.5c-6.66699 30 -16.667 55.333 -30 76s-30.333 31 -51 31c-10.667 0 -19.667 -2.66699 -27 -8c21.333 -0.666992 37.5 -7.16699 48.5 -19.5s16.5 -27.166 16.5 -44.499c0 -19.333 -6 -34.833 -18 -46.5s-26.667 -17.5 -44 -17.5
c-20 0 -36.5 6.33301 -49.5 19s-19.5 31 -19.5 55c0 29.333 9.33301 52.166 28 68.499s40.334 24.5 65.001 24.5c31.333 0 56.333 -11.5 75 -34.5s31.834 -50.833 39.501 -83.5s14.834 -65.167 21.501 -97.5s17.167 -60 31.5 -83s33.833 -34.5 58.5 -34.5h67v289h-79v33h262
v-33h-79v-289h59c25.333 0 45.166 11.5 59.499 34.5s24.666 50.667 30.999 83l20 97.5c7 32.667 19.5 60.5 37.5 83.5s42.667 34.5 74 34.5c28.667 0 51.667 -8 69 -24s26 -39.333 26 -70c0 -48.667 -21 -73 -63 -73c-20 0 -36.333 5.66699 -49 17s-19 27.666 -19 48.999
c0 14 4.33301 27.833 13 41.5s23.334 21.5 44.001 23.5c-6.66699 3.33301 -15.334 5 -26.001 5c-19.333 0 -35 -10.333 -47 -31s-21 -46 -27 -76l-19 -90.5c-6.66699 -30.333 -17.167 -57.166 -31.5 -80.499s-32.5 -37 -54.5 -41c36.667 -13.333 64.667 -24.833 84 -34.5
s35.833 -23 49.5 -40s22.834 -32.167 27.501 -45.5s12.334 -37.666 23.001 -72.999l6 -20c16 -52 27 -82 33 -90s14.333 -12 25 -12c22.667 0 34 41.667 34 125h30c0 -28 -1 -51.167 -3 -69.5s-6.5 -36 -13.5 -53s-17.667 -29.5 -32 -37.5s-32.833 -12 -55.5 -12z" />
    <glyph glyph-name="uni0417" unicode="&#x417;" horiz-adv-x="545" 
d="M278 -11c-64 0 -117.998 12.667 -161.998 38l-40 -37h-17v233h32c0 -58 13.667 -105.833 41 -143.5s67.666 -56.5 120.999 -56.5c94.667 0 142 53 142 159c0 109.333 -51.667 164 -155 164h-75v33h75c44 0 76.667 13.333 98 40s32 64 32 112
c0 90.667 -39.333 136 -118 136c-46.667 0 -83.334 -17.5 -110.001 -52.5s-40 -83.167 -40 -144.5h-32v230h17l40 -37c42.667 25.333 91 38 145 38c68 0 120.333 -14.833 157 -44.5s55 -70.5 55 -122.5c0 -44.667 -16.667 -81.167 -50 -109.5s-73 -47.5 -119 -57.5
c60 -8.66699 107.833 -29.167 143.5 -61.5s53.5 -74.5 53.5 -126.5c0 -60 -21.5 -106.667 -64.5 -140s-99.5 -50 -169.5 -50z" />
    <glyph glyph-name="uni0418" unicode="&#x418;" horiz-adv-x="744" 
d="M319 0h-277v33h82v624h-82v33h277v-33h-88v-483l281 423v60h-88v33h278v-33h-82v-624h82v-33h-278v33h88v498l-281 -423v-75h88v-33z" />
    <glyph glyph-name="uni0419" unicode="&#x419;" horiz-adv-x="744" 
d="M543 897c0 -37.333 -14.999 -70.8311 -44.999 -100.498s-71.667 -44.5 -125 -44.5s-95.166 14.833 -125.499 44.5s-45.5 63.167 -45.5 100.5c0 18 5.16699 32.833 15.5 44.5s24.5 17.5 42.5 17.5c17.333 0 30.666 -4.83301 39.999 -14.5s14 -21.834 14 -36.501
c0 -16.667 -7 -30.834 -21 -42.501s-33.333 -14.834 -58 -9.50098c18.667 -32.667 64.667 -49 138 -49c75.333 0 122.666 16.667 141.999 50c-29.333 -6.66699 -50.5 -4.5 -63.5 6.5s-19.5 25.833 -19.5 44.5c0 14.667 4.66699 26.834 14 36.501s22.333 14.5 39 14.5
c18.667 0 33 -5.83301 43 -17.5s15 -26.5 15 -44.5zM319.001 0.00195312h-277v33h82v624h-82v33h277v-33h-88v-483l281 423v60h-88v33h278v-33h-82v-624h82v-33h-278v33h88v498l-281 -423v-75h88v-33z" />
    <glyph glyph-name="uni041A" unicode="&#x41a;" 
d="M541 -11c-38.667 0 -66.998 12.167 -84.998 36.5s-34.667 62.5 -50 114.5c-8.66699 30 -16.667 54.667 -24 74s-16.666 39.333 -27.999 60s-24.833 36.167 -40.5 46.5s-33.167 15.5 -52.5 15.5h-34v-303h88v-33h-273v33h82v624h-82v33h266v-33h-81v-289h69
c25.333 0 45.166 11.5 59.499 34.5s24.666 50.667 30.999 83l20 97.5c7 32.667 19.5 60.5 37.5 83.5s42.667 34.5 74 34.5c28.667 0 51.667 -8 69 -24s26 -39.333 26 -70c0 -48.667 -21 -73 -63 -73c-20 0 -36.333 5.66699 -49 17s-19 27.666 -19 48.999
c0 14 4.33301 27.833 13 41.5s23.334 21.5 44.001 23.5c-6.66699 3.33301 -15.334 5 -26.001 5c-19.333 0 -35 -10.333 -47 -31s-21 -46 -27 -76l-19 -90.5c-6.66699 -30.333 -17.167 -57.166 -31.5 -80.499s-32.5 -37 -54.5 -41c68.667 -28 112.167 -52.5 130.5 -73.5
s37.833 -67.5 58.5 -139.5c15.333 -52 26.666 -82.333 33.999 -91c6 -7.33301 14 -11 24 -11c22.667 0 34 41.667 34 125h29c0 -58.667 -6.5 -102 -19.5 -130s-40.833 -42 -83.5 -42z" />
    <glyph glyph-name="uni041B" unicode="&#x41b;" horiz-adv-x="674" 
d="M447 657l-176.003 -0.00195312c0 -70.667 -0.333008 -131.167 -1 -181.5s-2 -99.166 -4 -146.499s-4.66699 -86.5 -8 -117.5s-7.83301 -60.167 -13.5 -87.5s-12.167 -48.833 -19.5 -64.5s-16.5 -29.167 -27.5 -40.5s-23 -19.166 -36 -23.499s-28.167 -6.5 -45.5 -6.5
c-28 0 -51.833 9.33301 -71.5 28s-29.5 45 -29.5 79c0 20.667 5.83301 38.334 17.5 53.001s28.167 22 49.5 22s37.333 -6.5 48 -19.5s16 -28.167 16 -45.5c0 -20 -6.66699 -35.667 -20 -47s-31.666 -17 -54.999 -17c8.66699 -13.333 24 -20 46 -20
c12.667 0 23.834 2.33301 33.501 7s18.334 13 26.001 25s14.167 25.667 19.5 41s10 36.666 14 63.999s7.16699 55.5 9.5 84.5s4 66.167 5 111.5s1.66699 90.5 2 135.5s0.5 100.5 0.5 166.5h-101v33h507v-33h-82v-624h82v-33h-272v33h86v624z" />
    <glyph glyph-name="uni041C" unicode="&#x41c;" horiz-adv-x="860" 
d="M271 33v-33h-229v33h82v624h-82v33h199l190 -448l189 448h198v-33h-82v-624h82v-33h-289v33h99v579l-219 -521h-23l-220 522v-580h105z" />
    <glyph glyph-name="uni041D" unicode="&#x41d;" horiz-adv-x="725" 
d="M42 0v33h82v624h-82v33h269v-33h-80v-289h263v289h-80v33h269v-33h-82v-624h82v-33h-269v33h80v303h-263v-303h80v-33h-269z" />
    <glyph glyph-name="uni041E" unicode="&#x41e;" horiz-adv-x="656" 
d="M617 345c0 -42 -5.83301 -83.5 -17.5 -124.5s-28.667 -79 -51 -114s-52.666 -63.333 -90.999 -85s-81.5 -32.5 -129.5 -32.5s-91.167 10.833 -129.5 32.5s-68.666 50 -90.999 85s-39.333 73 -51 114s-17.5 82.5 -17.5 124.5s5.83301 83.5 17.5 124.5s28.667 79 51 114
s52.666 63.333 90.999 85s81.5 32.5 129.5 32.5s91.167 -10.833 129.5 -32.5s68.666 -50 90.999 -85s39.333 -73 51 -114s17.5 -82.5 17.5 -124.5zM157 345c0 -118.667 14.5 -202.167 43.5 -250.5s71.5 -72.5 127.5 -72.5s98.5 24.167 127.5 72.5s43.5 131.833 43.5 250.5
s-14.5 202.167 -43.5 250.5s-71.5 72.5 -127.5 72.5s-98.5 -24.167 -127.5 -72.5s-43.5 -131.833 -43.5 -250.5z" />
    <glyph glyph-name="uni041F" unicode="&#x41f;" horiz-adv-x="711" 
d="M42 0v33h82v624h-82v33h627v-33h-82v-624h82v-33h-269v33h79v624h-248v-624h80v-33h-269z" />
    <glyph glyph-name="uni0420" unicode="&#x420;" horiz-adv-x="580" 
d="M42 0v33h82v624h-82v33h220c96 0 168.167 -17.667 216.5 -53s72.5 -83.333 72.5 -144s-23.833 -110.167 -71.5 -148.5s-119.167 -57.5 -214.5 -57.5h-34v-254h118v-33h-307zM266 657l-35.001 -0.000976562v-337h37c62.667 0 106.334 15 131.001 45s37 72.333 37 127
c0 52.667 -12.5 93.334 -37.5 122.001s-69.167 43 -132.5 43z" />
    <glyph glyph-name="uni0421" unicode="&#x421;" horiz-adv-x="591" 
d="M473 28c-38 -26 -84 -39.001 -138 -39.001c-48 0 -91.333 11 -130 33s-69.834 50.667 -93.501 86s-41.667 73.5 -54 114.5s-18.5 82.167 -18.5 123.5c0 56 11 110.5 33 163.5s56.167 98.167 102.5 135.5s99.5 56 159.5 56c56.667 0 101.334 -12.333 134.001 -37l40 36h18
v-230h-33c0 131.333 -51 197 -153 197c-38 0 -69.833 -9.16699 -95.5 -27.5s-46.667 -51.833 -63 -100.5s-24.5 -113 -24.5 -193c0 -215.333 61 -323 183 -323c55.333 0 95.5 18.333 120.5 55s37.5 85.334 37.5 146.001h33v-234h-18z" />
    <glyph glyph-name="uni0422" unicode="&#x422;" horiz-adv-x="565" 
d="M125 0v33h104v624h-38c-53.333 0 -90 -10.167 -110 -30.5s-30 -58.5 -30 -114.5v-42h-32v220h527v-220h-32v42c0 56.667 -10 95 -30 115s-56.667 30 -110 30h-38v-624h104v-33h-315z" />
    <glyph glyph-name="uni0423" unicode="&#x423;" horiz-adv-x="573" 
d="M174 -11c-33.333 0 -60.833 10.832 -82.5 32.499s-32.5 52.834 -32.5 93.501c0 21.333 6.16699 39.166 18.5 53.499s29.5 21.5 51.5 21.5c21.333 0 37.5 -6.66699 48.5 -20s16.5 -29 16.5 -47c0 -42.667 -25.667 -65 -77 -67c9.33301 -22 29.333 -33 60 -33
c27.333 0 48.5 9.83301 63.5 29.5s33.167 54.834 54.5 105.501l-231 499h-76v33h306v-33h-120l172 -371l137 371h-93v33h205v-33h-70l-149 -396c-42.667 -114 -76 -187.833 -100 -221.5s-58 -50.5 -102 -50.5z" />
    <glyph glyph-name="uni0424" unicode="&#x424;" horiz-adv-x="786" 
d="M239 -10l-0.000976562 33.001h100v102c-91.333 5.33301 -166.166 27.666 -224.499 66.999s-87.5 94 -87.5 164c0 70.667 29 125.167 87 163.5s133 60.166 225 65.499v82h-100v33h308v-33h-100v-82c91.333 -5.33301 166 -27.333 224 -66s87 -93 87 -163
s-29 -124.667 -87 -164s-132.667 -61.666 -224 -66.999v-102h100v-33h-308zM143.999 356.001c0 -38.667 5.49902 -71.333 16.499 -98s26.5 -46.667 46.5 -60s40.333 -22.833 61 -28.5s44.334 -9.16699 71.001 -10.5v393c-22 -0.666992 -41 -2.5 -57 -5.5
s-33.167 -8.5 -51.5 -16.5s-33.333 -18.833 -45 -32.5s-21.5 -32.5 -29.5 -56.5s-12 -52.333 -12 -85zM641.998 356.002c0 40 -5.5 73.333 -16.5 100s-26.667 46.334 -47 59.001s-40.5 21.5 -60.5 26.5s-43.667 8.16699 -71 9.5v-392c21.333 0.666992 40.333 2.66699 57 6
s34 9.16602 52 17.499s33 19.5 45 33.5s21.833 32.833 29.5 56.5s11.5 51.5 11.5 83.5z" />
    <glyph glyph-name="uni0425" unicode="&#x425;" horiz-adv-x="601" 
d="M6 0v33h66l177 307l-174 317h-69v33h274v-33h-90l129 -235l134 235h-74v33h189v-33h-72l-156 -272l193 -352h62v-33h-284v33h106l-147 268l-153 -268h94v-33h-205z" />
    <glyph glyph-name="uni0426" unicode="&#x426;" horiz-adv-x="706" 
d="M655 -180v32c0 57.333 -10.5 96.333 -31.5 117s-59.167 31 -114.5 31h-467v33h82v624h-82v33h260v-33h-71v-624h248v624h-70v33h260v-33h-82v-624h100v-213h-32z" />
    <glyph glyph-name="uni0427" unicode="&#x427;" 
d="M314 0l0.000976562 33h112v298c-38.667 -20.667 -86.334 -31 -143.001 -31c-64.667 0 -114.167 14.667 -148.5 44s-51.5 79 -51.5 149v164h-82v33h259v-33h-73v-169c0 -102 40.667 -153 122 -153c49.333 0 88.333 9.33301 117 28v294h-74v33h259v-33h-81v-624h81v-33
h-297z" />
    <glyph glyph-name="uni0428" unicode="&#x428;" horiz-adv-x="963" 
d="M42 0v33h82v624h-82v33h254v-33h-65v-624h196v624h-73v33h246v-33h-65v-624h196v624h-65v33h255v-33h-82v-624h82v-33h-879z" />
    <glyph glyph-name="uni0429" unicode="&#x429;" horiz-adv-x="958" 
d="M907 -180v32c0 57.333 -10.5 96.333 -31.5 117s-59.167 31 -114.5 31h-719v33h82v624h-82v33h254v-33h-65v-624h196v624h-73v33h246v-33h-65v-624h196v624h-65v33h255v-33h-82v-624h100v-213h-32z" />
    <glyph glyph-name="uni042A" unicode="&#x42a;" horiz-adv-x="675" 
d="M388 0l-246.001 0.000976562v33h82v624h-33c-53.333 -0.666992 -90 -10.834 -110 -30.501s-30 -57.5 -30 -113.5v-43h-32v220h421v-33h-109v-264h59c71.333 0 133.333 -17.167 186 -51.5s79 -82.166 79 -143.499c0 -64.667 -22.667 -113.834 -68 -147.501
s-111.666 -50.5 -198.999 -50.5zM330.999 360.001v-326.998h48c57.333 0 98.333 13.667 123 41s37 68.666 37 123.999c0 53.333 -14.333 93.666 -43 120.999s-66.667 41 -114 41h-51z" />
    <glyph glyph-name="uni042B" unicode="&#x42b;" horiz-adv-x="881" 
d="M839 0h-280v33h86v624h-86v33h280v-33h-86v-624h86v-33zM42 0l-0.000976562 33h82v624h-82v33h298v-33h-109v-264h59c71.333 0 133.333 -17.167 186 -51.5s79 -82.166 79 -143.499c0 -64.667 -22.667 -113.834 -68 -147.501s-111.666 -50.5 -198.999 -50.5h-246z
M230.999 360v-326.998h48c57.333 0 98.333 13.667 123 41s37 68.666 37 123.999c0 53.333 -14.333 93.666 -43 120.999s-66.667 41 -114 41h-51z" />
    <glyph glyph-name="uni042C" unicode="&#x42c;" horiz-adv-x="575" 
d="M42 0l-0.000976562 33h82v624h-82v33h298v-33h-109v-264h59c71.333 0 133.333 -17.167 186 -51.5s79 -82.166 79 -143.499c0 -64.667 -22.667 -113.834 -68 -147.501s-111.666 -50.5 -198.999 -50.5h-246zM230.999 360v-326.998h48c57.333 0 98.333 13.667 123 41
s37 68.666 37 123.999c0 53.333 -14.333 93.666 -43 120.999s-66.667 41 -114 41h-51z" />
    <glyph glyph-name="uni042D" unicode="&#x42d;" horiz-adv-x="596" 
d="M271 -11c-64.667 0 -116.335 12.6699 -155.002 38.0029l-40 -37h-17v234h32c0 -58.667 14.667 -106.834 44 -144.501s73 -56.5 131 -56.5c56 0 98.833 23.833 128.5 71.5s44.834 128.167 45.501 241.5h-271v32h271c-2 108.667 -17.667 185.667 -47 231
s-71.666 68 -126.999 68c-51.333 0 -92.333 -17.5 -123 -52.5s-46 -83.167 -46 -144.5h-32v230h17l40 -37c40.667 25.333 90.667 38 150 38c47.333 0 89.833 -10.833 127.5 -32.5s67.667 -50 90 -85s39.333 -72.833 51 -113.5s17.5 -82 17.5 -124
s-5.83301 -83.333 -17.5 -124s-28.667 -78.834 -51 -114.501s-52.5 -64.334 -90.5 -86.001s-80.667 -32.5 -128 -32.5z" />
    <glyph glyph-name="uni042E" unicode="&#x42e;" horiz-adv-x="940" 
d="M623 -11c-38 0 -72.665 6.99805 -103.998 20.998s-57.5 32.5 -78.5 55.5s-38.833 49.833 -53.5 80.5s-25.334 61.834 -32.001 93.501s-10.334 63.834 -11.001 96.501h-113v-303h80v-33h-269v33h82v624h-82v33h269v-33h-80v-289h113c2 40.667 8.83301 80 20.5 118
s28.167 73.5 49.5 106.5s50 59.333 86 79s77 29.5 123 29.5c48 0 90.5 -10.833 127.5 -32.5s66 -50.167 87 -85.5s36.833 -73.166 47.5 -113.499s16 -81.5 16 -123.5c0 -33.333 -3.16699 -66.333 -9.5 -99s-16.666 -64.667 -30.999 -96s-32 -58.833 -53 -82.5
s-47.333 -42.834 -79 -57.501s-66.834 -22 -105.501 -22zM462.002 345.998c0 -116.667 13.333 -199.834 40 -249.501s67 -74.5 121 -74.5c54.667 0 95 24.333 121 73s39 132.334 39 251.001c0 118 -13.167 201.167 -39.5 249.5s-66.5 72.5 -120.5 72.5
c-54.667 0 -95.167 -23.833 -121.5 -71.5s-39.5 -131.167 -39.5 -250.5z" />
    <glyph glyph-name="uni042F" unicode="&#x42f;" horiz-adv-x="642" 
d="M373 361h42.001v296h-39c-58.667 0 -101.334 -11.833 -128.001 -35.5s-40 -60.5 -40 -110.5s13 -87.5 39 -112.5s68 -37.5 126 -37.5zM117.001 -11c-22.667 0 -41.167 3.99805 -55.5 11.998s-25 20.5 -32 37.5s-11.5 34.667 -13.5 53s-3 41.5 -3 69.5h30
c0 -47.333 3.16699 -79.833 9.5 -97.5s15.833 -26.5 28.5 -26.5c11.333 0 20.5 7.5 27.5 22.5s16.167 41.5 27.5 79.5c0.666992 3.33301 1.33398 6 2.00098 8c18 59.333 37.333 100 58 122s62 44.333 124 67c-69.333 0.666992 -124.5 18 -165.5 52s-61.5 75.333 -61.5 124
c0 50 24.167 92.167 72.5 126.5s112.166 51.5 191.499 51.5h243v-33h-82v-624h82v-33h-278v33h93v299h-27c-36.667 0 -64.667 -15.167 -84 -45.5s-38 -76.5 -56 -138.5c-6 -19.333 -10 -32 -12 -38s-5.83301 -16.667 -11.5 -32s-10.167 -25.666 -13.5 -30.999
s-8.5 -13 -15.5 -23s-14 -16.667 -21 -20s-15.333 -6.66602 -25 -9.99902s-20.5 -5 -32.5 -5z" />
    <glyph glyph-name="uni0430" unicode="&#x430;" horiz-adv-x="554" 
d="M441 -11c-65.333 0 -100.002 39.001 -104.002 117.001c-10.667 -34.667 -29.667 -62.834 -57 -84.501s-61.666 -32.5 -102.999 -32.5c-40.667 0 -73.5 9.33301 -98.5 28s-37.5 47.667 -37.5 87c0 36.667 16.333 67.5 49 92.5s88.334 47.833 167.001 68.5l72 19v70
c0 80 -35 120 -105 120c-38.667 0 -70.334 -11.667 -95.001 -35c35.333 -10 53 -32 53 -66c0 -18.667 -5.33301 -34 -16 -46s-27 -18 -49 -18c-21.333 0 -37.333 6 -48 18s-16 27.333 -16 46c0 37.333 19.167 70 57.5 98s85.833 42 142.5 42c119.333 0 179 -49.667 179 -149
v-279c0 -34 11.333 -51 34 -51c33.333 0 50 39.333 50 118h30c0 -57.333 -8.16699 -98.833 -24.5 -124.5s-43.166 -38.5 -80.499 -38.5zM217.998 45.001c34.667 0 61.833 14.167 81.5 42.5s29.5 70.166 29.5 125.499v41l-61 -18c-46 -13.333 -77.5 -29.166 -94.5 -47.499
s-25.5 -41.166 -25.5 -68.499c0 -26.667 6.66699 -45.834 20 -57.501s30 -17.5 50 -17.5z" />
    <glyph glyph-name="uni0431" unicode="&#x431;" horiz-adv-x="572" 
d="M535 252c0 -71.333 -24.666 -133.001 -73.999 -185.001s-105.666 -78 -168.999 -78c-70 0 -128.5 27.5 -175.5 82.5s-70.5 129.833 -70.5 224.5c0 64 5.5 120 16.5 168s25 86.167 42 114.5s38.333 51.666 64 69.999s50.167 31.333 73.5 39s50 13.167 80 16.5
c12 1.33301 28.5 2.83301 49.5 4.5s36.667 3.16699 47 4.5s21.5 3.83301 33.5 7.5s20.5 9 25.5 16s7.5 16.167 7.5 27.5h30c0 -14.667 -1 -28 -3 -40s-4.33301 -22.5 -7 -31.5s-7.33398 -17.167 -14.001 -24.5l-16 -18c-4 -4.66699 -11.167 -9 -21.5 -13l-23.5 -9
c-5.33301 -2 -14.5 -4 -27.5 -6s-22.333 -3.16699 -28 -3.5s-16.167 -1.16602 -31.5 -2.49902s-26 -2.33301 -32 -3c-28 -2.66699 -51.5 -6.16699 -70.5 -10.5s-39.167 -12.666 -60.5 -24.999s-38.333 -28.5 -51 -48.5s-23.334 -47.5 -32.001 -82.5s-13 -76.833 -13 -125.5
h6c9.33301 58 33.5 102.333 72.5 133s83.833 46 134.5 46c64 0 119.667 -23.167 167 -69.5s71 -105.833 71 -178.5zM157.001 251.999c0 -70 11.334 -125.832 34.001 -167.499s56.334 -62.5 101.001 -62.5c41.333 0 74.166 21.333 98.499 64s36.5 97.667 36.5 165
c0 69.333 -11.833 122.666 -35.5 159.999s-56.834 56 -99.501 56c-90 0 -135 -71.667 -135 -215z" />
    <glyph glyph-name="uni0432" unicode="&#x432;" horiz-adv-x="556" 
d="M37 0v32.999h78v435h-78v33h213c34 0 63.667 -1.66699 89 -5s49 -9.16602 71 -17.499s38.833 -21 50.5 -38s17.5 -37.833 17.5 -62.5c0 -34 -11.833 -60.167 -35.5 -78.5s-53.5 -29.833 -89.5 -34.5c45.333 -4 82.833 -15.833 112.5 -35.5s44.5 -49.167 44.5 -88.5
c0 -30 -7.83301 -55.167 -23.5 -75.5s-37.667 -34.833 -66 -43.5s-55.333 -14.5 -81 -17.5s-55.5 -4.5 -89.5 -4.5h-213zM245 468.999l-27.001 -0.000976562v-193h38c42.667 0 73 6.66699 91 20s27 39 27 77c0 36.667 -11.667 61.834 -35 75.501s-54.666 20.5 -93.999 20.5z
M217.999 31.998h37c49.333 0 86.333 8 111 24s37 44.333 37 85c0 42 -12 69.833 -36 83.5s-61.333 20.5 -112 20.5h-37v-213z" />
    <glyph glyph-name="uni0433" unicode="&#x433;" horiz-adv-x="468" 
d="M335 0h-298v33h78v436h-78v32h411v-182h-33v24c0 84 -36.333 126 -109 126h-88v-436h117v-33z" />
    <glyph glyph-name="uni0434" unicode="&#x434;" horiz-adv-x="573" 
d="M355 469l-159 -0.000976562c0 -85.333 -5.33301 -165.666 -16 -240.999c-14 -97.333 -34.667 -162.333 -62 -195h237v436zM458 32.999h89v-181h-33v25c0 82 -40.333 123 -121 123h-231c-80.667 0 -121 -41 -121 -123v-25h-32v181h56c34 25.333 58.667 89 74 191
c7.33301 45.333 13 127 17 245h-78v32h466v-32h-86v-436z" />
    <glyph glyph-name="uni0435" unicode="&#x435;" horiz-adv-x="519" 
d="M282 -11c-66.667 0 -122.667 23.333 -168 70s-68 111.334 -68 194.001c0 79.333 21.833 142.5 65.5 189.5s97.167 70.5 160.5 70.5c66 0 116.833 -21.5 152.5 -64.5s53.5 -97.167 53.5 -162.5c0 -6.66699 -0.666992 -15.334 -2 -26.001h-322v-11
c0 -76 10.167 -132.333 30.5 -169s55.5 -55 105.5 -55c42 0 74.5 11.167 97.5 33.5s40.833 53.833 53.5 94.5l31 -7c-11.333 -48.667 -33.833 -87 -67.5 -115s-74.5 -42 -122.5 -42zM270 479c-37.333 0 -65.168 -14.8311 -83.501 -44.498s-28.833 -76.834 -31.5 -141.501
h218c0.666992 61.333 -6.66602 107.666 -21.999 138.999s-42.333 47 -81 47z" />
    <glyph glyph-name="uni0436" unicode="&#x436;" horiz-adv-x="882" 
d="M390 271l-0.00390625 198.001h-58v32h219v-32h-58v-198h45c18.667 0 33.5 8.33301 44.5 25s19.5 36.834 25.5 60.501s12.833 47.334 20.5 71.001s20.334 43.834 38.001 60.501s40.834 25 69.501 25c24 0 44.667 -6.83301 62 -20.5s26 -34.834 26 -63.501
c0 -20.667 -5.33301 -37 -16 -49s-25.667 -18 -45 -18c-18.667 0 -33.834 5.5 -45.501 16.5s-17.5 24.833 -17.5 41.5c0 31.333 15 50 45 56c-4 2 -9.33301 3 -16 3c-17.333 0 -31.5 -6.66699 -42.5 -20s-19.5 -30 -25.5 -50s-11.667 -40.5 -17 -61.5
s-13.166 -40 -23.499 -57s-23.5 -28.167 -39.5 -33.5c56.667 -19.333 95 -38.5 115 -57.5s34 -44.167 42 -75.5c1.33301 -4.66699 3 -11 5 -19s3.5 -14.167 4.5 -18.5s2.5 -9.66602 4.5 -15.999s4 -11.166 6 -14.499s4.33301 -6.66602 7 -9.99902
s5.83398 -5.83301 9.50098 -7.5s7.83398 -2.5 12.501 -2.5c26 0 39 38.667 39 116h30c0 -57.333 -7.33301 -98.833 -22 -124.5s-43 -38.5 -85 -38.5c-38 0 -65.333 10.333 -82 31s-30 50.334 -40 89.001c-1.33301 4.66699 -3.66602 13.5 -6.99902 26.5
s-5.83301 22.167 -7.5 27.5s-4.33398 13.166 -8.00098 23.499s-7.5 17.833 -11.5 22.5s-8.83301 10 -14.5 16s-12.334 10.167 -20.001 12.5s-16.5 3.5 -26.5 3.5h-39v-208h66v-33h-235v33h66v208h-39c-8.66699 0 -16.667 -1.16699 -24 -3.5s-13.5 -4.83301 -18.5 -7.5
s-10 -7.66699 -15 -15l-11.5 -16.5c-2.66699 -3.66699 -5.66699 -10.834 -9 -21.501l-6.5 -21c-1 -3.33301 -3.16699 -11.333 -6.5 -24l-6 -23c-4.66699 -18.667 -9.33398 -33.834 -14.001 -45.501s-11.5 -23.834 -20.5 -36.501s-20.5 -22.167 -34.5 -28.5
s-31 -9.5 -51 -9.5c-42 0 -70.5 13.333 -85.5 40s-22.5 67.667 -22.5 123h30c0 -31.333 2 -55.833 6 -73.5s8.66699 -29.167 14 -34.5s12 -8 20 -8c6.66699 0 12.334 1.33301 17.001 4s8.66699 7.66699 12 15s5.83301 13.333 7.5 18s3.83398 13.167 6.50098 25.5
s4.66699 20.833 6 25.5c6 22 12.833 39.333 20.5 52s22.5 26 44.5 40s52.667 27.667 92 41c-16 5.33301 -29.167 16.666 -39.5 33.999s-18.166 36.333 -23.499 57s-11 41 -17 61s-14.5 36.667 -25.5 50s-25.167 20 -42.5 20c-8 0 -14.333 -1.66699 -19 -5
c32.667 -4 49 -22 49 -54c0 -17.333 -5.66699 -31.166 -17 -41.499s-26.333 -15.5 -45 -15.5c-20 0 -35.667 6 -47 18s-17 29 -17 51c0 26 8.83301 46 26.5 60s38.167 21 61.5 21c30 0 54.167 -8.33301 72.5 -25s31.166 -36.834 38.499 -60.501s13.833 -47.334 19.5 -71.001
s13.667 -43.834 24 -60.501s24.833 -25 43.5 -25h46z" />
    <glyph glyph-name="uni0437" unicode="&#x437;" horiz-adv-x="495" 
d="M242 -11c-64.667 0 -113.999 12.667 -147.999 38s-51 56.666 -51 93.999c0 20 5.33301 36.333 16 49s26.667 19 48 19s37 -6 47 -18s15 -27 15 -45c0 -32 -19.667 -51.667 -59 -59c21.333 -30.667 62 -46 122 -46c76.667 0 115 40.333 115 121
c0 37.333 -10.833 63 -32.5 77s-54.834 21 -99.501 21h-45v33h45c39.333 0 68 8.16699 86 24.5s27 44.166 27 83.499c0 62 -33 93 -99 93c-38.667 0 -67.834 -11.5 -87.501 -34.5s-33.167 -57.5 -40.5 -103.5h-31v170h29l25 -38c36 30 81.667 45 137 45
c30 0 57.167 -3.66699 81.5 -11s45.333 -21.166 63 -41.499s26.5 -46.166 26.5 -77.499c0 -34 -11.667 -61.5 -35 -82.5s-54.333 -34.5 -93 -40.5c40 -4.66699 74.833 -16.5 104.5 -35.5s44.5 -47.5 44.5 -85.5c0 -30 -7.16699 -55.5 -21.5 -76.5
s-33.166 -36.5 -56.499 -46.5s-45.833 -17 -67.5 -21s-43.5 -6 -65.5 -6z" />
    <glyph glyph-name="uni0438" unicode="&#x438;" horiz-adv-x="652" 
d="M297 33v-33h-260v33h78v436h-78v32h260v-32h-79v-328l217 279v49h-79v32h259v-32h-77v-436h77v-33h-259v33h79v331l-217 -279v-52h79z" />
    <glyph glyph-name="uni0439" unicode="&#x439;" horiz-adv-x="652" 
d="M493 724c0 -36.667 -14.499 -70.501 -43.499 -101.501s-69.5 -46.5 -121.5 -46.5s-92.5 15.5 -121.5 46.5s-43.5 64.833 -43.5 101.5c0 18 5.16699 33 15.5 45s24.5 18 42.5 18c17.333 0 30.666 -4.83301 39.999 -14.5s14 -21.834 14 -36.501
c0 -17.333 -7.16699 -31.666 -21.5 -42.999s-34.833 -14 -61.5 -8c26 -34.667 71.333 -52 136 -52c68 0 114.667 17.667 140 53c-30.667 -8 -52.834 -6.5 -66.501 4.5s-20.5 26.167 -20.5 45.5c0 14.667 4.83301 26.834 14.5 36.501s22.834 14.5 39.501 14.5
c18.667 0 33 -6 43 -18s15 -27 15 -45zM297.001 32.999v-33h-260v33h78v436h-78v32h260v-32h-79v-328l217 279v49h-79v32h259v-32h-77v-436h77v-33h-259v33h79v331l-217 -279v-52h79z" />
    <glyph glyph-name="uni043A" unicode="&#x43a;" horiz-adv-x="614" 
d="M486 -11c-37.333 0 -64.5029 10.499 -81.5029 31.499s-30.5 50.5 -40.5 88.5c-5.33301 20.667 -9.83301 36.667 -13.5 48s-9.83398 24.5 -18.501 39.5s-20 26 -34 33s-31.333 10.5 -52 10.5h-28v-207h88v-33h-269v33h78v436h-78v32h251v-32h-70v-196h36
c18.667 0 33.667 8.16699 45 24.5s20.333 36.333 27 60s14.167 47.334 22.5 71.001s21.833 43.667 40.5 60s42.334 24.5 71.001 24.5c24 0 44.833 -7.16699 62.5 -21.5s26.5 -35.833 26.5 -64.5c0 -21.333 -5.5 -38 -16.5 -50s-25.5 -18 -43.5 -18
c-19.333 0 -35 5.66699 -47 17s-18 26 -18 44c0 32 16.667 51.333 50 58c-5.33301 2.66699 -12.333 4 -21 4c-20.667 0 -38 -9.5 -52 -28.5s-23.833 -40.667 -29.5 -65s-14.5 -49.333 -26.5 -75s-26.333 -43.167 -43 -52.5c66.667 -20.667 110.167 -41 130.5 -61
s35.5 -49.667 45.5 -89c1.33301 -4 2.83301 -9.66699 4.5 -17s3 -12.833 4 -16.5s2.33301 -8.16699 4 -13.5s3.33398 -9.33301 5.00098 -12s3.83398 -5.5 6.50098 -8.5s5.66699 -5 9 -6s7 -1.5 11 -1.5c24 0 36 38.667 36 116h30c0 -54.667 -7.16699 -95.5 -21.5 -122.5
s-41.166 -40.5 -80.499 -40.5z" />
    <glyph glyph-name="uni043B" unicode="&#x43b;" horiz-adv-x="591" 
d="M373 469h-139c0 -196.667 -7.66699 -325.834 -23 -387.501s-52 -92.5 -110 -92.5c-22.667 0 -43.667 7.16699 -63 21.5s-29 38.5 -29 72.5c0 20 5.66699 36.833 17 50.5s27.333 20.5 48 20.5c20 0 35.167 -5.66699 45.5 -17s15.5 -24.666 15.5 -39.999
c0 -18.667 -6.16699 -33 -18.5 -43s-28.833 -15 -49.5 -15c6.66699 -10 20 -15 40 -15c39.333 0 63.5 30.5 72.5 91.5s13.5 178.833 13.5 353.5h-84v32h444v-32h-77v-436h77v-33h-263v33h83v436z" />
    <glyph glyph-name="uni043C" unicode="&#x43c;" horiz-adv-x="770" 
d="M241 33v-33h-204v33h78v436h-78v32h203l147 -310l149 310h197v-32h-78v-436h78v-33h-262v33h81v414l-187 -395h-27l-181 396v-415h84z" />
    <glyph glyph-name="uni043D" unicode="&#x43d;" horiz-adv-x="651" 
d="M293 33v-33h-256v33h78v436h-78v32h256v-32h-75v-192h216v192h-75v32h255v-32h-77v-436h77v-33h-255v33h75v212h-216v-212h75z" />
    <glyph glyph-name="uni043E" unicode="&#x43e;" horiz-adv-x="568" 
d="M522 250c0 -78.667 -23.833 -141.832 -71.5 -189.499s-103.5 -71.5 -167.5 -71.5c-66.667 0 -122.834 23.667 -168.501 71s-68.5 110.666 -68.5 189.999c0 80 22.833 143.833 68.5 191.5s101.834 71.5 168.501 71.5c64 0 119.833 -24.167 167.5 -72.5
s71.5 -111.833 71.5 -190.5zM154 250.002c0 -74.667 9.66699 -131.333 29 -170s52.666 -58 99.999 -58c87.333 0 131 76 131 228c0 152.667 -43.667 229 -131 229c-47.333 0 -80.666 -19.333 -99.999 -58s-29 -95.667 -29 -171z" />
    <glyph glyph-name="uni043F" unicode="&#x43f;" horiz-adv-x="631" 
d="M288 33v-33h-251v33h78v436h-78v32h557v-32h-77v-436h77v-33h-250v33h70v436h-196v-436h70z" />
    <glyph glyph-name="uni0440" unicode="&#x440;" horiz-adv-x="616" 
d="M341 24c43.333 0 74.1641 19.167 92.4971 57.5s27.833 94.833 28.5 169.5c0.666992 74 -8.16602 129.833 -26.499 167.5s-49.166 56.5 -92.499 56.5c-37.333 0 -67.5 -19 -90.5 -57s-34.5 -89.667 -34.5 -155v-58c0 -67.333 10.333 -114.333 31 -141
s51.334 -40 92.001 -40zM328.998 -213v-36.998h-292v37h78v677h-78v37c85.333 0 135.333 4.66699 150 14l14 -9v-146c6 45.333 23.333 82.166 52 110.499s66 42.5 112 42.5c55.333 0 103.333 -23.833 144 -71.5s61 -110.5 61 -188.5
c0 -78.667 -21.667 -142.334 -65 -191.001s-95 -73 -155 -73c-59.333 0 -103.333 23 -132 69v-271h111z" />
    <glyph glyph-name="uni0441" unicode="&#x441;" horiz-adv-x="490" 
d="M458 146c-24 -104.667 -85.001 -157 -183.001 -157c-67.333 0 -122.166 22.667 -164.499 68s-63.5 109 -63.5 191c0 84 22.5 149.167 67.5 195.5s101.5 69.5 169.5 69.5c48.667 0 88.667 -13.167 120 -39.5s47 -62.5 47 -108.5c0 -20.667 -5.5 -37.167 -16.5 -49.5
s-26.5 -18.5 -46.5 -18.5c-22 0 -38.667 5.83301 -50 17.5s-17 27.167 -17 46.5c0 38.667 23.333 61.667 70 69c-16 33.333 -50 50 -102 50c-48.667 0 -83.167 -19.667 -103.5 -59s-30.5 -97 -30.5 -173c0 -68.667 10.667 -123 32 -163s53.333 -60 96 -60
c37.333 0 67.5 10.333 90.5 31s40.5 53 52.5 97z" />
    <glyph glyph-name="uni0442" unicode="&#x442;" horiz-adv-x="505" 
d="M391 0h-277v33h87v436h-42c-39.333 0 -66.833 -10.667 -82.5 -32s-23.5 -52 -23.5 -92v-25h-33v181h465v-181h-32v25c0 40 -8 70.5 -24 91.5s-43.667 31.833 -83 32.5h-42v-436h87v-33z" />
    <glyph glyph-name="uni0443" unicode="&#x443;" horiz-adv-x="533" 
d="M122 -260c-29.333 0 -53.834 9.66699 -73.501 29s-29.5 46 -29.5 80c0 22 6 39.833 18 53.5s28.333 20.5 49 20.5s35.834 -5.83301 45.501 -17.5s14.5 -26.5 14.5 -44.5c0 -18.667 -6 -33.667 -18 -45s-30 -17.333 -54 -18c9.33301 -15.333 25.333 -23 48 -23
c24.667 0 45.667 13.5 63 40.5s39 77.167 65 150.5l11 31l-194 472h-74v32h265v-32h-89l137 -338l125 338h-77v32h186v-32h-65l-176 -484c-34 -94.667 -62.5 -159.167 -85.5 -193.5s-53.5 -51.5 -91.5 -51.5z" />
    <glyph glyph-name="uni0444" unicode="&#x444;" horiz-adv-x="804" 
d="M257 29c29.333 0 52.333 18 69 54s25 83.667 25 143v54c0 58 -8.33301 104.5 -25 139.5s-39.667 52.5 -69 52.5c-35.333 0 -61.333 -19.5 -78 -58.5s-25 -91.5 -25 -157.5c0 -151.333 34.333 -227 103 -227zM553 29c64.667 0 97 75.668 97 227.001
c0 144 -32.333 216 -97 216c-32 0 -56.5 -17.333 -73.5 -52s-25.5 -81.334 -25.5 -140.001v-54c0 -60.667 9 -108.667 27 -144s42 -53 72 -53zM514 -253.999l-9.99902 -10.002c-4.66699 2.66699 -22.667 25 -54 67s-48 66 -50 72c-2 -6 -18 -30 -48 -72
s-47.333 -64.333 -52 -67l-9 10c50 112.667 75.333 238.334 76 377.001c-8 -41.333 -21.5 -74 -40.5 -98s-46.833 -36 -83.5 -36c-39.333 0 -74.333 13.5 -105 40.5s-53.667 60.5 -69 100.5s-23 82 -23 126c0 68 17.5 127.833 52.5 179.5s81.167 77.5 138.5 77.5
c69.333 0 112.666 -46.667 129.999 -140c-0.666992 142 -26 269.333 -76 382l9 10c4.66699 -2.66699 22.834 -25 54.501 -67s48.5 -66 50.5 -72c2 6 17.833 30 47.5 72s46.834 64.333 51.501 67l10 -10c-50.667 -118.667 -76.334 -246 -77.001 -382
c17.333 93.333 61 140 131 140c56.667 0 102.5 -25.833 137.5 -77.5s52.5 -111.5 52.5 -179.5c0 -69.333 -17.333 -131.166 -52 -185.499s-80.667 -81.5 -138 -81.5c-68.667 0 -112.334 44.667 -131.001 134c2 -149.333 27.667 -275 77 -377z" />
    <glyph glyph-name="uni0445" unicode="&#x445;" horiz-adv-x="530" 
d="M-4 0v33h73l150 211l-154 225h-59v32h235v-32h-69l113 -163l113 163h-70v32h185v-32h-68l-137 -195l167 -241h54v-33h-242v33h78l-121 175l-123 -175h76v-33h-201z" />
    <glyph glyph-name="uni0446" unicode="&#x446;" horiz-adv-x="649" 
d="M623 -148h-33v25c0 82 -40.667 123 -122 123h-431v33h78v436h-78v32h255v-32h-74v-436h213v436h-74v32h254v-32h-77v-436h89v-181z" />
    <glyph glyph-name="uni0447" unicode="&#x447;" horiz-adv-x="590" 
d="M552 0h-289v33h109v208c-34.667 -24 -76.667 -36 -126 -36c-114.667 0 -172 51.333 -172 154v110h-68v32h236v-32h-65v-110c0 -76.667 33 -115 99 -115c37.333 0 69.333 10.667 96 32v193h-65v32h245v-32h-77v-436h77v-33z" />
    <glyph glyph-name="uni0448" unicode="&#x448;" horiz-adv-x="873" 
d="M37 0v33h78v436h-78v32h233v-32h-52v-436h167v436h-61v32h224v-32h-60v-436h167v436h-52v32h232v-32h-77v-436h77v-33h-798z" />
    <glyph glyph-name="uni0449" unicode="&#x449;" horiz-adv-x="873" 
d="M847 -148h-33v25c0 82 -40.667 123 -122 123h-655v33h78v436h-78v32h233v-32h-52v-436h167v436h-61v32h224v-32h-60v-436h167v436h-52v32h232v-32h-77v-436h89v-181z" />
    <glyph glyph-name="uni044A" unicode="&#x44a;" horiz-adv-x="625" 
d="M378 0h-247.999v33h77v436h-36c-78.667 0 -118 -41.333 -118 -124v-25h-33v181h383v-32h-93v-181h68c63.333 0 115.666 -11.333 156.999 -34s62 -58.667 62 -108s-20 -86 -60 -110s-93 -36 -159 -36zM310.001 256v-223h60c80 0 120 38 120 114
c0 39.333 -9.66699 67.333 -29 84s-50 25 -92 25h-59z" />
    <glyph glyph-name="uni044B" unicode="&#x44b;" horiz-adv-x="795" 
d="M218 288h68.001c40 0 75.667 -4.16699 107 -12.5s57.666 -23.5 78.999 -45.5s32 -50 32 -84c0 -49.333 -20 -86 -60 -110s-92.667 -36 -158 -36h-249v33h78v436h-78v32h274v-32h-93v-181zM502.001 0v33h75v436h-84v32h264v-32h-77v-436h77v-33h-255zM218.001 256v-223h59
c80 0 120 38 120 114c0 39.333 -9.66699 67.333 -29 84s-50 25 -92 25h-58z" />
    <glyph glyph-name="uni044C" unicode="&#x44c;" horiz-adv-x="532" 
d="M218 288h68.001c40 0 75.667 -4.16699 107 -12.5s57.666 -23.5 78.999 -45.5s32 -50 32 -84c0 -49.333 -20 -86 -60 -110s-92.667 -36 -158 -36h-249v33h78v436h-78v32h274v-32h-93v-181zM218.001 256v-223h59c80 0 120 38 120 114c0 39.333 -9.66699 67.333 -29 84
s-50 25 -92 25h-58z" />
    <glyph glyph-name="uni044D" unicode="&#x44d;" horiz-adv-x="505" 
d="M216 -11c-55.333 0 -98.668 12.335 -130.001 37.002s-47 56 -47 94c0 19.333 5.5 35.5 16.5 48.5s27.167 19.5 48.5 19.5s37.333 -6.16699 48 -18.5s16 -27.5 16 -45.5c0 -38.667 -21 -60.334 -63 -65.001c20 -25.333 53.667 -38 101 -38c51.333 0 88 19.667 110 59
s33.667 94.666 35 165.999h-187v33h187c-3.33301 130 -47.333 195 -132 195c-68.667 0 -111 -47.667 -127 -143h-31v175h29l25 -34c28.667 27.333 67 41 115 41c64.667 0 118.834 -23.833 162.501 -71.5s65.5 -107.167 65.5 -178.5c0 -77.333 -21.667 -142.333 -65 -195
s-102.333 -79 -177 -79z" />
    <glyph glyph-name="uni044E" unicode="&#x44e;" horiz-adv-x="821" 
d="M542 -11c-60.667 0 -114.167 23 -160.5 69s-69.833 108.333 -70.5 187h-85v-212h67v-33h-247v33h78v436h-78v32h247v-32h-67v-192h86c4.66699 74.667 29.5 132.667 74.5 174s96.833 62 155.5 62c62.667 0 117.167 -23 163.5 -69s69.5 -109.667 69.5 -191
c0 -82 -23.333 -146.5 -70 -193.5s-101 -70.5 -163 -70.5zM542 23c83.333 0 125 76.667 125 230c0 74 -9.66699 130.167 -29 168.5s-51.333 57.5 -96 57.5c-47.333 0 -79.833 -18.667 -97.5 -56s-26.5 -94 -26.5 -170c0 -50 3.16699 -91 9.5 -123s19 -57.833 38 -77.5
s44.5 -29.5 76.5 -29.5z" />
    <glyph glyph-name="uni044F" unicode="&#x44f;" horiz-adv-x="582" 
d="M365 268v201h-48c-34 0 -63.667 -8.33301 -89 -25s-38 -42.667 -38 -78c0 -34 12.333 -58.833 37 -74.5s53.667 -23.5 87 -23.5h51zM219 94c-10 -34 -22.834 -60.001 -38.501 -78.001s-39.5 -27 -71.5 -27c-36 0 -61 12.333 -75 37s-21 66.667 -21 126h30
c0 -77.333 12 -116 36 -116c8.66699 0 15.167 4.33301 19.5 13s11.5 30.334 21.5 65.001c10.667 34.667 23.667 59 39 73s49 33.333 101 58c-29.333 0.666992 -56.5 4.5 -81.5 11.5s-47.167 20.167 -66.5 39.5s-29 43.333 -29 72c0 43.333 20.667 76.333 62 99s95 34 161 34
h239v-32h-77v-436h77v-33h-264v33h84v206h-30c-17.333 0 -32 -3 -44 -9s-22.333 -16.5 -31 -31.5s-15.167 -28 -19.5 -39s-10.166 -28.5 -17.499 -52.5c-2 -6 -3.33301 -10.333 -4 -13z" />
    <glyph glyph-name="uni0451" unicode="&#x451;" horiz-adv-x="519" 
d="M173 603c-22.667 0 -39 7.33301 -49 22s-15 29.667 -15 45c0 16 5 31.333 15 46s26.333 22 49 22c22 0 38.167 -7.33301 48.5 -22s15.5 -30 15.5 -46c0 -15.333 -5.16699 -30.333 -15.5 -45s-26.5 -22 -48.5 -22zM365 603c-22 0 -38 7.33301 -48 22s-15 29.667 -15 45
c0 16 5 31.333 15 46s26 22 48 22s38.167 -7.33301 48.5 -22s15.5 -30 15.5 -46c0 -15.333 -5.16699 -30.333 -15.5 -45s-26.5 -22 -48.5 -22zM282 -11c-66.667 0 -122.667 23.333 -168 70s-68 111.334 -68 194.001c0 79.333 21.833 142.5 65.5 189.5
s97.167 70.5 160.5 70.5c66 0 116.833 -21.5 152.5 -64.5s53.5 -97.167 53.5 -162.5c0 -6.66699 -0.666992 -15.334 -2 -26.001h-322v-11c0 -76 10.167 -132.333 30.5 -169s55.5 -55 105.5 -55c42 0 74.5 11.167 97.5 33.5s40.833 53.833 53.5 94.5l31 -7
c-11.333 -48.667 -33.833 -87 -67.5 -115s-74.5 -42 -122.5 -42zM270 479c-37.333 0 -65.168 -14.8311 -83.501 -44.498s-28.833 -76.834 -31.5 -141.501h218c0.666992 61.333 -6.66602 107.666 -21.999 138.999s-42.333 47 -81 47z" />
    <glyph glyph-name="uni0452" unicode="&#x452;" horiz-adv-x="590" 
d="M342 -11l-1 20.999c63.333 20 95 102.333 95 247c0 64 -8.83301 113.667 -26.5 149s-43.5 53 -77.5 53c-34.667 0 -62.334 -12.167 -83.001 -36.5s-31 -57.833 -31 -100.5v-289h75v-33h-256v33h78v575h-78v33h78v76h-78v33c96.667 0 152.334 4.33301 167.001 13l14 -9
v-113h135v-33h-135v-85c0 -42.667 -2 -76 -6 -100c35.333 58 88 87 158 87c54 0 96.333 -21 127 -63s46 -104.667 46 -188s-19.5 -149.166 -58.5 -197.499s-86.5 -72.5 -142.5 -72.5z" />
    <glyph glyph-name="uni0453" unicode="&#x453;" horiz-adv-x="468" 
d="M198 590l102 130.999c13.333 18 33 27 59 27h66c12 0 19.833 -1.66699 23.5 -5s3.66699 -7.66602 0 -12.999s-10.5 -11 -20.5 -17l-200 -123h-30zM335 -0.000976562h-298v33h78v436h-78v32h411v-182h-33v24c0 84 -36.333 126 -109 126h-88v-436h117v-33z" />
    <glyph glyph-name="uni0454" unicode="&#x454;" horiz-adv-x="491" 
d="M457 146c-24 -104.667 -84.999 -157 -182.999 -157c-68 0 -123 23 -165 69s-63 111 -63 195c0 83.333 22.333 147.5 67 192.5s101.334 67.5 170.001 67.5c47.333 0 86.666 -12.167 117.999 -36.5s47 -55.5 47 -93.5c0 -20 -5.5 -36 -16.5 -48s-26.5 -18 -46.5 -18
c-22 0 -38.667 5.83301 -50 17.5s-17 26.834 -17 45.501c0 35.333 20.333 57.666 61 66.999c-18.667 22 -49 33 -91 33c-46.667 0 -80.334 -17.333 -101.001 -52s-31.667 -86 -33 -154h170v-33h-170c2 -144 44.667 -216 128 -216c38 0 68.5 10.333 91.5 31s40.5 53 52.5 97z
" />
    </font>
</defs>
</svg>
